<svg xmlns="http://www.w3.org/2000/svg" version="1.1" xmlns:xlink="http://www.w3.org/1999/xlink" width="512" height="512" x="0" y="0" viewBox="0 0 380.734 380.734" style="enable-background:new 0 0 512 512" xml:space="preserve" class=""><g><path d="M190.367 0C85.23 0 0 85.23 0 190.367s85.23 190.367 190.367 190.367 190.367-85.23 190.367-190.367S295.504 0 190.367 0zm108.635 298.36c-28.996 28.996-67.57 44.959-108.634 44.959S110.723 327.35 81.733 298.36c-28.865-28.876-44.769-67.227-44.769-107.993 0-40.771 15.904-79.128 44.769-107.993 28.99-28.996 67.57-44.959 108.634-44.959 41.054 0 79.639 15.969 108.629 44.959 28.871 28.865 44.763 67.221 44.763 107.993.006 40.766-15.892 79.122-44.757 107.993z" style="" fill="#08ff00" data-original="#010002" opacity="1" class=""></path></g></svg>