<svg id="Icons" height="512" viewBox="0 0 60 60" width="512" xmlns="http://www.w3.org/2000/svg"><path d="m43.12 37.17c-5.84 11.02-20.04 24.12-24.98 21.49-2.91-1.55-3.11-8.8-1.58-16.75 1.591-8.361 6.118-22.256 14.1-25.07 3.064-1.11 6.183-.41 9.06 1.12 7.956 4.24 7.596 11.309 3.4 19.21z" fill="#ff9801"/><path d="m42.74 20.04a16.2 16.2 0 0 0 -5.72-3.22 10.186 10.186 0 0 0 -4.713-.4 15.555 15.555 0 0 1 7.433 3.62c5.47 4.96 3.12 11.97.38 17.13-4.863 9.176-15.52 19.785-21.8 21.564 5.091 2.245 19.027-10.67 24.8-21.564 2.74-5.16 5.09-12.17-.38-17.13z" fill="#f57c00"/><path d="m54.69 14.09.01.02a4.782 4.782 0 0 1 -.63 2.41c-1.56 2.96-7.71 1.1-11.33 3.52a16.2 16.2 0 0 0 -5.72-3.22c.66-3.32 2.17-8.8 5.27-12.24 3.346-3.725 8.01-4.818 13.4-1.95 5.5 2.93 3.2 10.11-1 11.46z" fill="#60a917"/><path d="m55.69 2.63a11.617 11.617 0 0 0 -7.367-1.514 13.648 13.648 0 0 1 4.367 1.514c5.5 2.93 3.2 10.11-1 11.46l.01.02a4.782 4.782 0 0 1 -.63 2.41c-1.309 2.48-5.845 1.58-9.411 2.654a13.378 13.378 0 0 1 1.081.866c3.62-2.42 9.77-.56 11.33-3.52a4.782 4.782 0 0 0 .63-2.41l-.01-.02c4.2-1.35 6.5-8.53 1-11.46z" fill="#549414"/><path d="m30.66 16.84c-7.988 2.816-12.512 16.726-14.1 25.07-6.03 4.03-12.09 6.39-14.35 4.49-3.85-3.22 2.09-19.6 9.17-28.28 3.41-4.19 8.59-8.73 14.78-5.28a14.2 14.2 0 0 1 4.5 4z" fill="#f57c00"/><path d="m44.06 2.96c-4.022 2.97-6.065 8.954-7.04 13.86a9.713 9.713 0 0 0 -6.36.02 14.188 14.188 0 0 0 -4.5-4c1.18-2.82 3.48-7.38 6.79-9.86 2.76-2.07 6.71-3.14 11.11-.02z" fill="#549414"/><path d="m32.685 31.232-.883-.47a1 1 0 0 0 -.94 1.766l.883.47a1 1 0 0 0 .94-1.766z"/><path d="m27.468 43.205-.883-.471a1 1 0 1 0 -.939 1.766l.883.47a1 1 0 0 0 .939-1.765z"/><path d="m1.566 47.166c3.119 2.62 10.177-1.11 13.663-3.225-.674 4.381-1.483 13.512 2.44 15.6a5.421 5.421 0 0 0 4.126.1c9.753-2.984 32.807-27.766 22.61-39.332 3.528-1.357 8.838-.077 10.545-3.317a6.078 6.078 0 0 0 .719-2.214 7.864 7.864 0 0 0 4.26-6.875 6.752 6.752 0 0 0 -3.769-6.156c-5.39-2.866-9.436-1.766-12.12.009a9.749 9.749 0 0 0 -11.689.424c-3.068 2.3-5.276 6.155-6.688 9.3a9.461 9.461 0 0 0 -4.769-.824c-12.384 1.181-25.34 31.481-19.328 36.51zm43.043-16.394-4.689-2.495a1 1 0 1 0 -.94 1.766l5.03 2.676a29.362 29.362 0 0 1 -1.619 3.681l-2.642-1.4a1 1 0 1 0 -.938 1.766l2.612 1.388a57.952 57.952 0 0 1 -6.612 8.965l-3.811-2.032a1 1 0 0 0 -.94 1.766l3.355 1.786c-4.257 4.5-8.863 8.069-12.206 9.091a3.533 3.533 0 0 1 -2.6.045c-1.783-.949-2.323-4.951-1.881-10.077l3.862 2.055a1 1 0 1 0 .94-1.766l-4.567-2.43a64.682 64.682 0 0 1 2.222-10.176l2.624 1.4a1 1 0 0 0 .942-1.764l-2.943-1.572a51.716 51.716 0 0 1 2.26-5.6l5.263 2.8a1 1 0 0 0 .938-1.766l-5.292-2.813c3.946-7.288 8.987-11.1 16.275-7.222 4.896 2.604 6.673 6.534 5.357 11.928zm10.61-27.26a4.751 4.751 0 0 1 2.71 4.368 5.939 5.939 0 0 1 -2.99 5.042 3.834 3.834 0 0 1 -4.191-.5 1 1 0 0 0 -1.175 1.62 6.22 6.22 0 0 0 3.927 1.286 4.776 4.776 0 0 1 -.313.726c-1.1 2.087-6.607.828-10.333 2.765a17.089 17.089 0 0 0 -4.673-2.647c.678-3.071 2.112-7.881 4.855-10.923 3.089-3.441 7.238-4.367 12.183-1.737zm-21.669.268a7.707 7.707 0 0 1 8.813-.7c-3.285 3.09-5.114 8.12-6.103 12.51a10.686 10.686 0 0 0 -5.224.087 15.165 15.165 0 0 0 -3.613-3.233c1.15-2.582 3.242-6.502 6.127-8.664zm-5.872 11.326a13.5 13.5 0 0 1 1.388 1.339c-5.759 2.89-9.348 10.892-11.334 17.018v.006a.914.914 0 0 0 -.063.209c-.573 1.787-1.081 3.64-1.511 5.5l-3.512-2.943a1 1 0 1 0 -1.284 1.534l4.256 3.565c-6.886 4.522-11.436 5.415-12.762 4.3-1.245-1.041-1.044-4.56.194-8.951l2.822 2.364a1 1 0 0 0 1.284-1.533l-3.466-2.9a56.809 56.809 0 0 1 3.627-8.42l1.936 1.618a1 1 0 0 0 1.283-1.534l-2.236-1.873a45.544 45.544 0 0 1 2.866-4.374l3.994 3.345a1 1 0 0 0 1.284-1.533l-4.044-3.381c4.692-5.632 9.69-8.045 15.278-3.356z"/></svg>