<svg id="Layer_1" enable-background="new 0 0 512 512" height="512" viewBox="0 0 512 512" width="512" xmlns="http://www.w3.org/2000/svg"><g id="XMLID_2_"><g id="XMLID_3313_"><g id="XMLID_1029_"><path id="XMLID_1536_" d="m335.4 5h-37.3l-11 68h59.2z" fill="#b1614a"/><path id="XMLID_1538_" d="m486.2 219h-339c-11.3 0-20.5-9.2-20.5-20.5 0-26.6 10.5-52.1 29.2-71 40.9-41.3 96.6-64.5 154.8-64.5h12.2c58.1 0 113.8 23.2 154.7 64.5 18.7 18.9 29.2 44.4 29.2 71-.1 11.3-9.2 20.5-20.6 20.5z" fill="#b1614a"/><g id="XMLID_2599_" fill="#993e29"><path id="XMLID_2627_" d="m142 145.2c-1.8 3-3.5 6-5 9.1l7.7 7.7 7.1-7.1z"/><path id="XMLID_2628_" d="m163.2 160.2h10v36.7h-10z" transform="matrix(.707 -.707 .707 .707 -76.941 171.248)"/><path id="XMLID_2629_" d="m201.7 219h7l3.6-3.5-20.5-20.5-7.1 7.1z"/><path id="XMLID_2630_" d="m267.7 219h7l3.6-3.5-20.5-20.5-7.1 7.1z"/><path id="XMLID_2631_" d="m182.9 140.5h36.7v10h-36.7z" transform="matrix(-.707 -.707 .707 -.707 240.661 390.685)"/><path id="XMLID_2632_" d="m174 111.2c-2.6 2.1-5.2 4.3-7.7 6.5l11.3 11.3 7.1-7.1z"/><path id="XMLID_2633_" d="m229.2 160.2h10v36.7h-10z" transform="matrix(.707 -.707 .707 .707 -57.61 217.917)"/><path id="XMLID_2634_" d="m295.2 160.2h10v36.7h-10z" transform="matrix(.707 -.707 .707 .707 -38.279 264.586)"/><path id="XMLID_2635_" d="m333.7 219h7l3.6-3.5-20.5-20.5-7.1 7.1z"/><path id="XMLID_2636_" d="m214.3 85.5c-3.1 1.5-6.2 3.2-9.3 4.9l5.6 5.6 7.1-7.1z"/><path id="XMLID_2637_" d="m248.9 140.5h36.7v10h-36.7z" transform="matrix(-.707 -.707 .707 -.707 353.33 437.354)"/><path id="XMLID_2638_" d="m229.2 94.2h10v36.7h-10z" transform="matrix(-.707 .707 -.707 -.707 479.429 26.414)"/><path id="XMLID_2639_" d="m361.2 160.2h10v36.7h-10z" transform="matrix(.707 -.707 .707 .707 -18.948 311.255)"/><path id="XMLID_2640_" d="m399.7 219h7l3.6-3.5-20.5-20.5-7.1 7.1z"/><path id="XMLID_2641_" d="m263.1 68.3c-3.8.8-7.6 1.8-11.3 2.8l24.9 24.9 7.1-7.1z"/><path id="XMLID_2643_" d="m281.9 107.5h36.7v10h-36.7z" transform="matrix(-.707 -.707 .707 -.707 432.999 404.354)"/><path id="XMLID_2644_" d="m314.9 140.5h36.7v10h-36.7z" transform="matrix(-.707 -.707 .707 -.707 465.999 484.023)"/><path id="XMLID_2645_" d="m361.2 94.2h10v36.7h-10z" transform="matrix(-.707 .707 -.707 -.707 704.767 -66.924)"/><path id="XMLID_2652_" d="m465.7 219h7l3.6-3.5-20.5-20.5-7.1 7.1z"/><path id="XMLID_2653_" d="m316.7 70.1 26 25.9 7.1-7.1-26-25.9c-.3 0-.7 0-1 0h-6.1l3.5 3.5z"/><path id="XMLID_2654_" d="m427.2 160.2h10v36.7h-10z" transform="matrix(.707 -.707 .707 .707 .383 357.924)"/><path id="XMLID_2655_" d="m380.9 140.5h36.7v10h-36.7z" transform="matrix(-.707 -.707 .707 -.707 578.668 530.692)"/><path id="XMLID_2656_" d="m406.6 79.7c-7.2-3-14.5-5.6-21.9-7.8l24 24 7.1-7.1z"/><path id="XMLID_2657_" d="m460.2 127.2h10v36.7h-10z" transform="matrix(-.707 .707 -.707 -.707 897.105 -80.593)"/><path id="XMLID_2658_" d="m427.2 94.2h10v36.7h-10z" transform="matrix(-.707 .707 -.707 -.707 817.436 -113.593)"/><path id="XMLID_2660_" d="m506.6 194c-.2-5.5-.9-10.9-2.1-16.2l-15.7-15.8-7.1 7.1z"/><path id="XMLID_2661_" d="m184.7 136.1 7.1-7.1 25.9-25.9 7.1-7.1 24-24c-7.4 2.2-14.8 4.8-21.9 7.8l-9.2 9.2-7.1 7.1-25.9 25.9-7.1 7.1-25.9 25.9-7.1 7.1-15.8 15.8c-1.1 5.3-1.8 10.7-2.1 16.2l24.9-24.9 7.1-7.1z"/><path id="XMLID_2662_" d="m250.7 136.1 7.1-7.1 25.9-25.9 7.1-7.1 25.9-25.9 3.5-3.5-3.5-3.5h-6.1c-.3 0-.7 0-1 0l-25.9 25.9-7.1 7.1-25.9 25.9-7.1 7.1-25.9 25.9-7.1 7.1-25.9 25.9-7.1 7.1-20.5 20.5 3.5 3.5h7.1l16.9-16.9 7.1-7.1 25.9-25.9 7.1-7.1z"/><path id="XMLID_2663_" d="m316.7 136.1 7.1-7.1 25.9-25.9 7.1-7.1 24.9-24.9c-3.7-1-7.5-2-11.3-2.8l-20.7 20.7-7.1 7.1-25.9 25.9-7.1 7.1-25.9 25.9-7.1 7.1-25.9 25.9-7.1 7.1-20.5 20.5 3.5 3.5h7.1l16.9-16.9 7.1-7.1 25.9-25.9 7.1-7.1z"/><path id="XMLID_2664_" d="m382.7 136.1 7.1-7.1 25.9-25.9 7.1-7.1 5.6-5.6c-3.1-1.7-6.2-3.3-9.3-4.9l-3.4 3.4-7.1 7.1-25.9 25.9-7.1 7.1-25.9 25.9-7.1 7.1-25.9 25.9-7.1 7.1-20.5 20.5 3.5 3.5h7.1l16.9-16.9 7.1-7.1 25.9-25.9 7.1-7.1z"/><path id="XMLID_2665_" d="m448.7 136.1 7.1-7.1 11.3-11.3c-2.5-2.2-5.1-4.4-7.7-6.5l-10.7 10.7-7.1 7.1-25.9 25.9-7.1 7.1-25.9 25.9-7.1 7.1-20.5 20.5 3.5 3.5h7.1l16.9-16.9 7.1-7.1 25.9-25.9 7.1-7.1z"/><path id="XMLID_2666_" d="m491.5 145.2-9.8 9.8-7.1 7.1-25.9 25.9-7.1 7.1-20.5 20.5 3.5 3.5h7.1l16.9-16.9 7.1-7.1 25.9-25.9 7.1-7.1 7.7-7.7c-1.4-3.2-3.1-6.3-4.9-9.2z"/></g><path id="XMLID_1537_" d="m147.6 219v69.5c0 86.5 60.8 161.1 145.5 178.5l23.7 40 23.7-40c84.7-17.5 145.5-92 145.5-178.5v-69.5z" fill="#f8961e"/><path id="XMLID_2309_" d="m405.7 316c0 44.3-20 86.2-54.4 114.1l-8.6 7c53.5-6.5 86.5-61.9 66.6-112z" fill="#e36414"/><path id="XMLID_1265_" d="m391.2 219c-1.7-12.5-5.9-24.6-12.5-35.6-24-40.3-61.2-70.9-105-86.9l3-30.9c-18.5 2.9-36.4 8.2-53.5 15.6l-.7 1.5c-.7-.1-1.3-.2-2-.3-23.9 10.8-45.9 26-64.7 45-18.7 18.9-29.2 44.4-29.2 71 0 11.3 9.2 20.5 20.5 20.5h244.1z" fill="#993e29"/><path id="XMLID_1253_" d="m148 288.5c0 64.2 33.3 121.9 85.3 154.5 56.1-16.1 101.6-60.5 117.4-119.6l15-56.3 3.1.8c8.7 2.3 17.7-2.8 20-11.6 3.3-12.3 4-25 2.3-37.3h-243.1z" fill="#e36414"/></g><g id="XMLID_1550_"><path id="XMLID_1570_" d="m247.3 42.6-33.9-9.1-26 57 53.9 14.4z" fill="#b1614a"/><path id="XMLID_1572_" d="m337.2 267.9-314.2-84.2c-8.7-2.3-13.9-11.3-11.6-20 6.6-24.7 22.9-45.7 45.2-58.1 46.1-25.9 100.5-32.6 151.6-19l17.1 4.6c51.1 13.7 94.8 46.8 121.8 92.2 13.1 22 16.7 48.3 10.1 72.9-2.3 8.8-11.3 13.9-20 11.6z" fill="#b1614a"/><path id="XMLID_1153_" d="m272.6 231.1c-7.9 9.1-20.3 12.9-32 9.9l-217.6-57.3c-8.7-2.3-13.9-11.3-11.6-20 6.6-24.7 22.9-45.7 45.2-58.1 46.1-25.9 100.5-32.6 151.6-19 21.7 6 40 20.6 50.5 40.5l21.2 39.8c11.1 20.8 8.2 46.4-7.3 64.2z" fill="#d37762"/><g id="XMLID_922_" fill="#993e29"><path id="XMLID_2559_" d="m38.3 144h10v36.7h-10z" transform="matrix(.866 -.5 .5 .866 -75.377 43.41)"/><path id="XMLID_2560_" d="m54.8 192.2 13.7 3.7-6.7-11.5-8.6 5z"/><path id="XMLID_2561_" d="m29.5 128.4c-2.3 2.8-4.5 5.8-6.4 8.9l1.8 3.1 8.7-5z"/><path id="XMLID_2562_" d="m65.4 134h36.7v10h-36.7z" transform="matrix(-.5 -.866 .866 -.5 5.201 281.056)"/><path id="XMLID_2563_" d="m67 100.1c-3 1.5-6 3-8.9 4.6l7.1 12.3 8.7-5z"/><path id="XMLID_2564_" d="m118.5 209.3 13.7 3.7-6.6-11.5-8.7 5z"/><path id="XMLID_2565_" d="m102.1 161.1h10v36.7h-10z" transform="matrix(.866 -.5 .5 .866 -75.376 77.574)"/><path id="XMLID_2566_" d="m182.3 226.4 13.7 3.7-6.7-11.5-8.6 5z"/><path id="XMLID_2567_" d="m119.2 97.4h10v36.7h-10z" transform="matrix(-.866 .5 -.5 -.866 289.515 153.81)"/><path id="XMLID_2568_" d="m111.9 84.5c-3.4.7-6.8 1.6-10.1 2.5l3.8 6.6 8.7-5z"/><path id="XMLID_2569_" d="m165.8 178.2h10v36.7h-10z" transform="matrix(.866 -.5 .5 .866 -75.377 111.738)"/><path id="XMLID_2570_" d="m129.2 151.1h36.7v10h-36.7z" transform="matrix(-.5 -.866 .866 -.5 86.034 361.889)"/><path id="XMLID_2571_" d="m169.6 127.8h36.7v10h-36.7z" transform="matrix(-.5 -.866 .866 -.5 166.867 361.889)"/><path id="XMLID_2572_" d="m192.9 168.2h36.7v10h-36.7z" transform="matrix(-.5 -.866 .866 -.5 166.867 442.722)"/><path id="XMLID_2573_" d="m246 243.5 13.7 3.6-6.6-11.5-8.7 5z"/><path id="XMLID_2574_" d="m229.6 195.3h10v36.7h-10z" transform="matrix(.866 -.5 .5 .866 -75.378 145.905)"/><path id="XMLID_2575_" d="m163.1 79.9c-3.9-.1-7.7-.2-11.6-.1l17.9 31 8.7-5z"/><path id="XMLID_2576_" d="m309.8 260.6 13.7 3.6-6.7-11.5-8.6 5z"/><path id="XMLID_2577_" d="m214.8 96.1 18.4 31.7 8.6-5-18.5-32.1-6.3-1.7-.3.2 2.5 4.4z"/><path id="XMLID_2578_" d="m246.7 131.5h10v36.7h-10z" transform="matrix(-.866 .5 -.5 -.866 544.519 153.808)"/><path id="XMLID_2579_" d="m256.7 185.3h36.7v10h-36.7z" transform="matrix(-.5 -.866 .866 -.5 247.699 523.555)"/><path id="XMLID_2580_" d="m293.3 212.4h10v36.7h-10z" transform="matrix(.866 -.5 .5 .866 -75.377 180.069)"/><path id="XMLID_2581_" d="m310.4 148.6h10v36.7h-10z" transform="matrix(-.866 .5 -.5 -.866 672.021 153.807)"/><path id="XMLID_2582_" d="m298.8 128.2c-6.2-4.9-12.7-9.5-19.4-13.6l17.5 30.3 8.7-5z"/><path id="XMLID_2583_" d="m333.7 189h10v36.7h-10z" transform="matrix(-.866 .5 -.5 -.866 735.772 217.559)"/><path id="XMLID_2584_" d="m358.4 251.4c1.2-5.5 1.8-11 2-16.6l-3.1-5.4-8.7 5z"/><path id="XMLID_2585_" d="m70.2 125.6 8.7-5 31.8-18.3 8.7-5 30.3-17.5c-7.9.2-15.8.9-23.6 2.1l-11.7 6.7-8.7 5-31.8 18.4-8.7 5-31.8 18.3-8.7 5-5.4 3.1c-2.6 4.9-4.8 10-6.6 15.3l17-9.8 8.7-5z"/><path id="XMLID_2586_" d="m134 142.7 8.6-5 31.8-18.3 8.7-5 31.7-18.3 4.4-2.5-2.5-4.4-.3-.4-6.2-1.6-32.1 18.5-8.7 5-31.8 18.4-8.6 5-31.8 18.3-8.6 5-31.8 18.3-8.6 5-11.5 6.7 13.6 3.6 2.9-1.6 8.6-5 31.8-18.3 8.6-5z"/><path id="XMLID_2587_" d="m197.7 159.8 8.7-5 31.8-18.3 8.7-5 31-17.9c-3.3-2-6.7-3.9-10.1-5.7l-25.9 14.9-8.7 5-31.8 18.3-8.7 5-31.7 18.4-8.7 5-31.8 18.3-8.7 5-11.5 6.6 13.7 3.7 2.8-1.6 8.7-5 31.8-18.3 8.7-5z"/><path id="XMLID_2588_" d="m261.5 176.9 8.7-5 31.8-18.3 8.7-5 6.6-3.8c-2.4-2.5-4.9-4.9-7.5-7.2l-4.1 2.4-8.7 5-31.8 18.3-8.7 5-31.8 18.3-8.7 5-31.8 18.3-8.7 5-11.5 6.6 13.7 3.7 2.8-1.6 8.7-5 31.8-18.3 8.7-5z"/><path id="XMLID_2589_" d="m325.2 194 8.7-5 12.3-7.1c-1.7-2.9-3.5-5.7-5.4-8.4l-11.9 6.8-8.7 5-31.8 18.3-8.7 5-31.6 18.4-8.7 5-11.5 6.6 13.7 3.7 2.8-1.6 8.7-5 31.8-18.3 8.7-5z"/><path id="XMLID_2590_" d="m359.2 216.7-7 4-8.7 5-31.8 18.3-8.7 5-11.5 6.6 13.7 3.7 2.8-1.6 8.7-5 31.8-18.3 8.7-5 3.1-1.8c-.1-3.6-.5-7.3-1.1-10.9z"/></g><path id="XMLID_1571_" d="m26.1 184.6-15.1 56.3c-21 78.5 16.3 160.8 89.2 196.7l12.1 40.9 31-29.3c81 5.3 154.6-47.3 175.6-125.8l15.1-56.3z" fill="#f8961e"/><path id="XMLID_2152_" d="m26.1 184.6-15.1 56.3c-21 78.5 16.3 160.8 89.2 196.7l12.1 40.9 13.7-32.5c47.1-35.3 81.7-84.7 98.6-141.1l18.8-62.6z" fill="#ffc971"/></g></g><g id="XMLID_5_"><g id="XMLID_1294_"><g id="XMLID_1314_"><path id="XMLID_2511_" d="m112.3 483.5c-.4 0-.9-.1-1.3-.2-1.7-.5-3-1.7-3.5-3.4l-11.5-38.8c-35.4-18-63.8-47.7-80.2-83.9-16.7-36.8-20.1-78.6-9.7-117.7l15.1-56.3c.7-2.7 3.5-4.3 6.1-3.5l307.9 82.5c2.7.7 4.3 3.5 3.5 6.1l-15.1 56.3c-10.5 39.1-34.3 73.5-67.2 97.1-32.3 23.1-71.8 34.6-111.4 32.5l-29.4 27.8c-.8 1-2 1.5-3.3 1.5zm-82.6-292.8-13.8 51.5c-20.3 75.9 16.1 156.2 86.5 191 1.2.6 2.2 1.7 2.6 3.1l9.8 33.1 25-23.7c1-1 2.4-1.4 3.8-1.4 78.4 5.2 150.1-46.2 170.4-122.1l13.8-51.5z" fill="#060d1a"/></g><g id="XMLID_1447_"><path id="XMLID_2483_" d="m20 157.4h46.7v10h-46.7z" fill="#060d1a" transform="matrix(.5 .866 -.866 .5 162.269 43.668)"/></g><g id="XMLID_1448_"><path id="XMLID_2482_" d="m23.4 132.4h11v10h-11z" fill="#060d1a" transform="matrix(.5 .866 -.866 .5 133.45 43.669)"/></g><g id="XMLID_1449_"><path id="XMLID_2481_" d="m51.7 183.3h13.3v10h-13.3z" fill="#060d1a" transform="matrix(.5 .866 -.866 .5 192.238 43.662)"/></g><g id="XMLID_1450_"><path id="XMLID_2480_" d="m57.8 105.6h19v10h-19z" fill="#060d1a" transform="matrix(.5 .866 -.866 .5 129.437 -3.002)"/></g><g id="XMLID_1451_"><path id="XMLID_2479_" d="m83.7 174.4h46.7v10h-46.7z" fill="#060d1a" transform="matrix(.5 .866 -.866 .5 208.936 -3.003)"/></g><g id="XMLID_1452_"><path id="XMLID_2478_" d="m60.4 134h46.7v10h-46.7z" fill="#060d1a" transform="matrix(.5 .866 -.866 .5 162.267 -3.003)"/></g><g id="XMLID_1453_"><path id="XMLID_2477_" d="m115.4 200.4h13.3v10h-13.3z" fill="#060d1a" transform="matrix(.5 .866 -.866 .5 238.918 -2.999)"/></g><g id="XMLID_1454_"><path id="XMLID_2476_" d="m179.2 217.5h13.3v10h-13.3z" fill="#060d1a" transform="matrix(.5 .866 -.866 .5 285.589 -49.669)"/></g><g id="XMLID_1455_"><path id="XMLID_2475_" d="m100.8 110.7h46.7v10h-46.7z" fill="#060d1a" transform="matrix(.5 .866 -.866 .5 162.267 -49.672)"/></g><g id="XMLID_1456_"><path id="XMLID_2474_" d="m147.5 191.5h46.7v10h-46.7z" fill="#060d1a" transform="matrix(.5 .866 -.866 .5 255.604 -49.672)"/></g><g id="XMLID_1457_"><path id="XMLID_2473_" d="m104 85.6h11.3v10h-11.3z" fill="#060d1a" transform="matrix(.5 .866 -.866 .5 133.281 -49.672)"/></g><g id="XMLID_1458_"><path id="XMLID_2472_" d="m124.2 151.1h46.7v10h-46.7z" fill="#060d1a" transform="matrix(.5 .866 -.866 .5 208.939 -49.671)"/></g><g id="XMLID_1459_"><path id="XMLID_2468_" d="m147.8 91.2h37.9v10h-37.9z" fill="#060d1a" transform="matrix(.5 .866 -.866 .5 166.657 -96.341)"/></g><g id="XMLID_1460_"><path id="XMLID_2466_" d="m187.9 168.2h46.7v10h-46.7z" fill="#060d1a" transform="matrix(.5 .866 -.866 .5 255.604 -96.341)"/></g><g id="XMLID_1461_"><path id="XMLID_2465_" d="m211.2 208.6h46.7v10h-46.7z" fill="#060d1a" transform="matrix(.5 .866 -.866 .5 302.278 -96.34)"/></g><g id="XMLID_1462_"><path id="XMLID_2464_" d="m242.9 234.6h13.3v10h-13.3z" fill="#060d1a" transform="matrix(.5 .866 -.866 .5 332.238 -96.344)"/></g><g id="XMLID_1463_"><path id="XMLID_2463_" d="m164.6 127.8h46.7v10h-46.7z" fill="#060d1a" transform="matrix(.5 .866 -.866 .5 208.936 -96.341)"/></g><g id="XMLID_1464_"><path id="XMLID_2462_" d="m306.7 251.6h13.3v10h-13.3z" fill="#060d1a" transform="matrix(.5 .866 -.866 .5 378.923 -143.009)"/></g><g id="XMLID_1465_"><path id="XMLID_2460_" d="m228.3 144.9h46.7v10h-46.7z" fill="#060d1a" transform="matrix(.5 .866 -.866 .5 255.61 -143.01)"/></g><g id="XMLID_1467_"><path id="XMLID_2459_" d="m251.7 185.3h46.7v10h-46.7z" fill="#060d1a" transform="matrix(.5 .866 -.866 .5 302.278 -143.009)"/></g><g id="XMLID_1468_"><path id="XMLID_2458_" d="m275 225.7h46.7v10h-46.7z" fill="#060d1a" transform="matrix(.5 .866 -.866 .5 348.941 -143.01)"/></g><g id="XMLID_1469_"><path id="XMLID_2457_" d="m205 104.4h46.7v10h-46.7z" fill="#060d1a" transform="matrix(.5 .866 -.866 .5 208.935 -143.01)"/></g><g id="XMLID_1470_"><path id="XMLID_2456_" d="m315.4 202.4h46.7v10h-46.7z" fill="#060d1a" transform="matrix(.5 .866 -.866 .5 348.941 -189.679)"/></g><g id="XMLID_1471_"><path id="XMLID_2455_" d="m281.2 128.7h30v10h-30z" fill="#060d1a" transform="matrix(.5 .866 -.866 .5 263.935 -189.679)"/></g><g id="XMLID_1472_"><path id="XMLID_2454_" d="m345.8 230.6h18.5v10h-18.5z" fill="#060d1a" transform="matrix(.5 .866 -.866 .5 381.556 -189.678)"/></g><g id="XMLID_1473_"><path id="XMLID_2453_" d="m292.1 161.9h46.7v10h-46.7z" fill="#060d1a" transform="matrix(.5 .866 -.866 .5 302.272 -189.678)"/></g><g id="XMLID_1474_"><path id="XMLID_2452_" d="m46.9 107.2h10v46.7h-10z" fill="#060d1a" transform="matrix(.5 .866 -.866 .5 138.933 20.332)"/></g><g id="XMLID_1475_"><path id="XMLID_2451_" d="m87.3 83.8h10v46.7h-10z" fill="#060d1a" transform="matrix(.5 .866 -.866 .5 138.932 -26.337)"/></g><g id="XMLID_1476_"><path id="XMLID_2450_" d="m120.5 73h10v30h-10z" fill="#060d1a" transform="matrix(.5 .866 -.866 .5 138.933 -64.683)"/></g><g id="XMLID_1477_"><path id="XMLID_2449_" d="m18.6 137.5h10v18.5h-10z" fill="#060d1a" transform="matrix(.5 .866 -.866 .5 138.933 52.934)"/></g><g id="XMLID_1478_"><path id="XMLID_2448_" d="m110.6 124.2h10v46.7h-10z" fill="#060d1a" transform="matrix(.5 .866 -.866 .5 185.602 -26.337)"/></g><g id="XMLID_1479_"><path id="XMLID_2447_" d="m151 100.9h10v46.7h-10z" fill="#060d1a" transform="matrix(.5 .866 -.866 .5 185.602 -73.006)"/></g><g id="XMLID_1480_"><path id="XMLID_2446_" d="m70.2 147.6h10v46.7h-10z" fill="#060d1a" transform="matrix(.5 .866 -.866 .5 185.602 20.332)"/></g><g id="XMLID_1482_"><path id="XMLID_2445_" d="m44.2 179.3h10v13.3h-10z" fill="#060d1a" transform="matrix(.5 .866 -.866 .5 185.602 50.306)"/></g><g id="XMLID_1483_"><path id="XMLID_2444_" d="m191.4 77.6h10v46.7h-10z" fill="#060d1a" transform="matrix(.5 .866 -.866 .5 185.601 -119.675)"/></g><g id="XMLID_1484_"><path id="XMLID_2443_" d="m251.4 101.2h10v37.9h-10z" fill="#060d1a" transform="matrix(.5 .866 -.866 .5 232.27 -161.957)"/></g><g id="XMLID_1485_"><path id="XMLID_2442_" d="m108 196.3h10v13.3h-10z" fill="#060d1a" transform="matrix(.5 .866 -.866 .5 232.271 3.637)"/></g><g id="XMLID_1486_"><path id="XMLID_2438_" d="m133.9 164.7h10v46.7h-10z" fill="#060d1a" transform="matrix(.5 .866 -.866 .5 232.271 -26.337)"/></g><g id="XMLID_1487_"><path id="XMLID_2437_" d="m214.8 118h10v46.7h-10z" fill="#060d1a" transform="matrix(.5 .866 -.866 .5 232.27 -119.676)"/></g><g id="XMLID_1488_"><path id="XMLID_2436_" d="m174.4 141.3h10v46.7h-10z" fill="#060d1a" transform="matrix(.5 .866 -.866 .5 232.27 -73.006)"/></g><g id="XMLID_1489_"><path id="XMLID_2423_" d="m303.6 138.3h10v11.3h-10z" fill="#060d1a" transform="matrix(.5 .866 -.866 .5 278.939 -195.327)"/></g><g id="XMLID_1490_"><path id="XMLID_2422_" d="m238.1 158.4h10v46.7h-10z" fill="#060d1a" transform="matrix(.5 .866 -.866 .5 278.939 -119.676)"/></g><g id="XMLID_1491_"><path id="XMLID_2421_" d="m278.5 135.1h10v46.7h-10z" fill="#060d1a" transform="matrix(.5 .866 -.866 .5 278.939 -166.344)"/></g><g id="XMLID_1492_"><path id="XMLID_2420_" d="m197.7 181.7h10v46.7h-10z" fill="#060d1a" transform="matrix(.5 .866 -.866 .5 278.94 -73.007)"/></g><g id="XMLID_1493_"><path id="XMLID_2419_" d="m171.7 213.4h10v13.3h-10z" fill="#060d1a" transform="matrix(.5 .866 -.866 .5 278.939 -43.032)"/></g><g id="XMLID_1496_"><path id="XMLID_2418_" d="m301.9 175.5h10v46.7h-10z" fill="#060d1a" transform="matrix(.5 .866 -.866 .5 325.608 -166.344)"/></g><g id="XMLID_1497_"><path id="XMLID_2417_" d="m261.4 198.8h10v46.7h-10z" fill="#060d1a" transform="matrix(.5 .866 -.866 .5 325.608 -119.675)"/></g><g id="XMLID_1501_"><path id="XMLID_2416_" d="m235.5 230.5h10v13.3h-10z" fill="#060d1a" transform="matrix(.5 .866 -.866 .5 325.608 -89.701)"/></g><g id="XMLID_1502_"><path id="XMLID_2415_" d="m330.3 172.9h10v19h-10z" fill="#060d1a" transform="matrix(.5 .866 -.866 .5 325.608 -199.175)"/></g><g id="XMLID_1503_"><path id="XMLID_2414_" d="m350.2 219.3h10v11h-10z" fill="#060d1a" transform="matrix(.5 .866 -.866 .5 372.277 -195.164)"/></g><g id="XMLID_1504_"><path id="XMLID_2413_" d="m325.2 215.9h10v46.7h-10z" fill="#060d1a" transform="matrix(.5 .866 -.866 .5 372.277 -166.345)"/></g><g id="XMLID_1505_"><path id="XMLID_2411_" d="m299.2 247.6h10v13.3h-10z" fill="#060d1a" transform="matrix(.5 .866 -.866 .5 372.277 -136.37)"/></g><g id="XMLID_712_"><path id="XMLID_2406_" d="m341.4 273.5c-1.8 0-3.7-.2-5.5-.7l-314.2-84.3c-5.5-1.5-10.1-5-13-10-2.9-4.9-3.6-10.7-2.1-16.2 6.9-25.8 24.3-48.1 47.6-61.2 35.2-19.7 75.1-28.7 115.4-26l-.7 10c-38.3-2.6-76.3 6-109.9 24.8-21 11.7-36.6 31.8-42.8 55-.8 2.9-.4 6 1.1 8.6s4 4.5 6.9 5.3l314.2 84.2c6.1 1.6 12.3-2 13.9-8 6.2-23.2 2.7-48.4-9.6-69.1-26.4-44.5-68.6-76.4-118.7-89.9l-17.1-4.6c-5.5-1.5-11.2-2.7-16.8-3.7-1.5-.3-2.8-1.2-3.6-2.6-.7-1.4-.8-3-.1-4.4l22.5-49.3c1-2.2 3.5-3.4 5.8-2.8l33.9 9.1c2.4.6 3.9 2.9 3.7 5.3l-4.8 50.1c43.4 16.6 79.8 47.2 103.9 87.7 13.7 23 17.6 51 10.6 76.8-2.5 9.6-11.2 15.9-20.6 15.9zm-143.3-194.4c3.8.8 7.6 1.7 11.4 2.7l17.1 4.6c3.8 1 7.5 2.1 11.2 3.3l4.2-43.4-25.7-6.9z" fill="#060d1a"/></g></g><g id="XMLID_1329_"><g id="XMLID_1408_"><path id="XMLID_2298_" d="m443.8 202h33.9v10h-33.9z" fill="#060d1a" transform="matrix(.707 .707 -.707 .707 281.32 -265.166)"/></g><g id="XMLID_1409_"><path id="XMLID_2296_" d="m342.9 107.5h46.7v10h-46.7z" fill="#060d1a" transform="matrix(.707 .707 -.707 .707 186.82 -226.023)"/></g><g id="XMLID_1410_"><path id="XMLID_2295_" d="m408.9 173.5h46.7v10h-46.7z" fill="#060d1a" transform="matrix(.707 .707 -.707 .707 252.82 -253.361)"/></g><g id="XMLID_1411_"><path id="XMLID_2294_" d="m375.9 140.5h46.7v10h-46.7z" fill="#060d1a" transform="matrix(.707 .707 -.707 .707 219.82 -239.692)"/></g><g id="XMLID_1412_"><path id="XMLID_2293_" d="m309.9 74.5h46.7v10h-46.7z" fill="#060d1a" transform="matrix(.707 .707 -.707 .707 153.82 -212.354)"/></g><g id="XMLID_1413_"><path id="XMLID_2292_" d="m476.7 169.1h34.3v10h-34.3z" fill="#060d1a" transform="matrix(.707 .707 -.707 .707 267.777 -298.219)"/></g><g id="XMLID_1414_"><path id="XMLID_2291_" d="m390.8 80.7h29.2v10h-29.2z" fill="#060d1a" transform="matrix(.707 .707 -.707 .707 179.326 -261.58)"/></g><g id="XMLID_1415_"><path id="XMLID_2290_" d="m408.9 107.5h46.7v10h-46.7z" fill="#060d1a" transform="matrix(.707 .707 -.707 .707 206.151 -272.692)"/></g><g id="XMLID_1416_"><path id="XMLID_2289_" d="m441.9 140.5h46.7v10h-46.7z" fill="#060d1a" transform="matrix(.707 .707 -.707 .707 239.151 -286.361)"/></g><g id="XMLID_1424_"><path id="XMLID_2288_" d="m295.2 56.2h10v46.7h-10z" fill="#060d1a" transform="matrix(.707 .707 -.707 .707 144.173 -189.03)"/></g><g id="XMLID_722_"><path id="XMLID_2286_" d="m272.2 93.3h10v18.7h-10z" fill="#060d1a" transform="matrix(.707 .707 -.707 .707 153.739 -165.934)"/></g><g id="XMLID_1427_"><path id="XMLID_2285_" d="m328.2 89.2h10v46.7h-10z" fill="#060d1a" transform="matrix(.707 .707 -.707 .707 177.176 -202.7)"/></g><g id="XMLID_1429_"><path id="XMLID_2284_" d="m357.9 64.2h10v37.3h-10z" fill="#060d1a" transform="matrix(.707 .707 -.707 .707 164.879 -232.391)"/></g><g id="XMLID_1433_"><path id="XMLID_2283_" d="m361.2 122.2h10v46.7h-10z" fill="#060d1a" transform="matrix(.707 .707 -.707 .707 210.179 -216.369)"/></g><g id="XMLID_1434_"><path id="XMLID_2282_" d="m394.2 89.2h10v46.7h-10z" fill="#060d1a" transform="matrix(.707 .707 -.707 .707 196.51 -249.372)"/></g><g id="XMLID_1435_"><path id="XMLID_2281_" d="m414.8 86.2h10v11.5h-10z" fill="#060d1a" transform="matrix(.707 .707 -.707 .707 187.994 -269.935)"/></g><g id="XMLID_1436_"><path id="XMLID_2278_" d="m451 111.4h10v20.6h-10z" fill="#060d1a" transform="matrix(.707 .707 -.707 .707 219.658 -286.837)"/></g><g id="XMLID_1437_"><path id="XMLID_2277_" d="m394.2 155.2h10v46.7h-10z" fill="#060d1a" transform="matrix(.707 .707 -.707 .707 243.183 -230.038)"/></g><g id="XMLID_1438_"><path id="XMLID_2276_" d="m427.2 122.2h10v46.7h-10z" fill="#060d1a" transform="matrix(.707 .707 -.707 .707 229.514 -263.041)"/></g><g id="XMLID_474_"><path id="XMLID_2275_" d="m366.6 190.4h10v31.6h-10z" fill="#060d1a" transform="matrix(.707 .707 -.707 .707 254.643 -202.368)"/></g><g id="XMLID_1440_"><path id="XMLID_2274_" d="m431.7 190h10v33.9h-10z" fill="#060d1a" transform="matrix(.707 .707 -.707 .707 274.322 -248.207)"/></g><g id="XMLID_1441_"><path id="XMLID_2273_" d="m460.2 155.2h10v46.7h-10z" fill="#060d1a" transform="matrix(.707 .707 -.707 .707 262.517 -276.71)"/></g><g id="XMLID_1442_"><path id="XMLID_2263_" d="m482.9 147.1h10v17.5h-10z" fill="#060d1a" transform="matrix(.707 .707 -.707 .707 253.121 -299.396)"/></g><g id="XMLID_648_"><path id="XMLID_2262_" d="m345.9 440.9-6.3-7.8 8.6-7c33.4-27 52.5-67.2 52.5-110.2h10c0 46-20.5 89-56.3 117.9z" fill="#060d1a"/></g><g id="XMLID_354_"><path id="XMLID_2261_" d="m316.7 512c-1.8 0-3.4-.9-4.3-2.5l-22.6-38.1c-17.7-3.9-34.7-10.2-50.5-19l4.8-8.8c15.6 8.6 32.3 14.8 49.9 18.4 1.4.3 2.6 1.1 3.3 2.4l19.4 32.7 19.4-32.7c.7-1.2 1.9-2.1 3.3-2.4 82-16.9 141.5-89.9 141.5-173.6v-69.4h10v69.5c0 43-15 85-42.1 118.3-26.7 32.7-64 55.6-105.2 64.6l-22.6 38.1c-.9 1.6-2.5 2.5-4.3 2.5z" fill="#060d1a"/></g><g id="XMLID_471_"><path id="XMLID_2260_" d="m340 64.9-8.9-54.9h-28.7l-8.9 54.9-9.9-1.6 9.6-59.1c.4-2.4 2.5-4.2 4.9-4.2h37.2c2.5 0 4.5 1.8 4.9 4.2l9.6 59.1z" fill="#060d1a"/></g><g id="XMLID_730_"><path id="XMLID_718_" d="m486.2 224h-127.5v-10h127.5c8.5 0 15.5-7 15.5-15.5 0-25.4-9.9-49.4-27.8-67.5-39.6-40-94.7-63-151.1-63h-12.2c-21.6 0-43.1 3.3-63.7 9.8l-3-9.5c21.6-6.8 44-10.2 66.7-10.2h12.2c29.6 0 58.4 5.8 85.7 17.2s51.7 27.8 72.5 48.8c19.8 20 30.7 46.4 30.7 74.5 0 14-11.4 25.4-25.5 25.4z" fill="#060d1a"/></g><g id="XMLID_1_"><path id="XMLID_80_" d="m226.4 139.3h211.3v10h-211.3z" fill="#060d1a" transform="matrix(.707 .707 -.707 .707 199.3 -192.53)"/></g></g></g></g></svg>