<svg id="Color" height="512" viewBox="0 0 64 64" width="512" xmlns="http://www.w3.org/2000/svg"><path d="m47 49.93v7.99l-9 1.08-.31-.04c-1.51-.35-2.69-3.33-2.69-6.96 0-3.87 1.34-7 3-7l24.69-2.96c-1.51.35-2.69 3.33-2.69 6.96 0 3.87 1.34 7 3 7l-10 1.2v-8l-6 .72z" fill="#eaeaea"/><path d="m53 57.2v4.8l-3-4-3 5v-5.08-7.99l6-.73z" fill="#ed1c24"/><path d="m63 56-.72.09-9.28 1.11v-3a4.58 4.58 0 0 0 4-4.633c0-.052 0-.1 0-.157v-.04a3.188 3.188 0 0 0 -3.54-3.22l-15.46 1.85a2.05 2.05 0 0 0 -1.608 1.092 5.311 5.311 0 0 0 -.15 5.577 2.481 2.481 0 0 0 1.448 1.291l.31.04 9-1.08v3l-9 1.08-.31-.04a1.048 1.048 0 0 1 -.28-.1 1.736 1.736 0 0 1 -.26-.15.031.031 0 0 1 -.02-.01c-.07-.05-.15-.11-.22-.17a2.682 2.682 0 0 1 -.28-.3 2.493 2.493 0 0 1 -.23-.31 5.3 5.3 0 0 1 -.41-.71c-.08-.17-.15-.35-.23-.54-.05-.14-.1-.29-.15-.44a3.946 3.946 0 0 1 -.15-.52c-.05-.17-.09-.35-.13-.53a12.066 12.066 0 0 1 -.26-1.68v-.03a14.193 14.193 0 0 1 -.07-1.47c0-3.87 1.34-7 3-7l24.69-2.96a.188.188 0 0 0 -.1.04c-1.46.44-2.59 3.37-2.59 6.92 0 3.87 1.34 7 3 7z" fill="#dad4d4"/><path d="m51 49.44v1.825a6.2 6.2 0 0 1 -3.959 5.85l-.041.015v5.87l3-5 3 4v-12.8z" fill="#c1272d"/><path d="m63 24-.22.03-24.78 2.97-24.35-2.87h-.01l-4.59-.54-5.05-.59 23.23-2.79a14.971 14.971 0 0 1 3.54 0z" fill="#7070f2"/><path d="m63 33-.22.03-24.78 2.97a.78.78 0 0 1 -.22-.03c-1-.25-1.78-2.15-1.78-4.47 0-2.49.9-4.5 2-4.5l24.78-2.97c-1 .25-1.78 2.15-1.78 4.47 0 2.49.9 4.5 2 4.5z" fill="#eaeaea"/><path d="m63 42a1.1 1.1 0 0 0 -.31.04l-24.69 2.96a.78.78 0 0 1 -.22-.03c-1-.25-1.78-2.15-1.78-4.47 0-2.49.9-4.5 2-4.5l24.78-2.97c-1 .25-1.78 2.15-1.78 4.47 0 2.49.9 4.5 2 4.5z" fill="#eaeaea"/><path d="m62.78 33.03c-.64.16-1.19.99-1.5 2.18l-23.28 2.79c-.94 0-1.74 1.48-1.95 3.48-.03-.31-.05-.64-.05-.98 0-2.49.9-4.5 2-4.5z" fill="#dad4d4"/><path d="m62.78 24.03c-.64.16-1.19.99-1.5 2.18l-23.28 2.79c-.94 0-1.74 1.48-1.95 3.48-.03-.31-.05-.64-.05-.98 0-2.49.9-4.5 2-4.5z" fill="#dad4d4"/><path d="m13.65 24.13 24.35 2.87c-1.1 0-2 2.01-2 4.5 0 2.32.78 4.22 1.78 4.47l-7.18-.84-4.4-.52-13.07-1.54a11.329 11.329 0 0 1 -.63-4.07c0-2.35.48-4.33 1.14-4.87z" fill="#5e5eea"/><path d="m37.78 35.97a.78.78 0 0 0 .22.03c-1.1 0-2 2.01-2 4.5 0 2.32.78 4.22 1.78 4.47l-6.13-.72-1.67-.19a9.955 9.955 0 0 1 -.73-4.06c0-2.37.58-4.36 1.35-4.87z" fill="#99e0d4"/><path d="m37.78 44.97a.78.78 0 0 0 .22.03c-1.66 0-3 3.13-3 7 0 3.63 1.18 6.61 2.69 6.96l-5.97-.7c-1.01-1.24-1.72-3.93-1.72-7.05 0-3.04.67-5.67 1.65-6.96z" fill="#ffca3a"/><path d="m31.72 58.26-4.04-.47c-1-1.27-1.68-3.93-1.68-7s.69-5.74 1.69-7l2.29.27 1.67.19c-.98 1.29-1.65 3.92-1.65 6.96 0 3.12.71 5.81 1.72 7.05z" fill="#f7931e"/><path d="m26.2 34.61 4.4.52c-.77.51-1.35 2.5-1.35 4.87a9.955 9.955 0 0 0 .73 4.06l-2.29-.27-1.63-.19a8.2 8.2 0 0 1 -1.06-4.6 8.349 8.349 0 0 1 1.2-4.39z" fill="#7070f2"/><path d="m26.06 43.6 1.63.19c-1 1.26-1.69 3.92-1.69 7s.68 5.73 1.68 7l-16.22-1.91a13.353 13.353 0 0 1 -1.44-6.64c0-3.36.83-6.22 1.98-7.3z" fill="#ffca3a"/><path d="m13.13 33.07 13.07 1.54a8.349 8.349 0 0 0 -1.2 4.39 8.2 8.2 0 0 0 1.06 4.6l-14.06-1.66-4.01-.47-3.99-.47c-1.1 0-2-2.01-2-4.5s.9-4.5 2-4.5l4.89.57v.01z" fill="#99e0d4"/><path d="m37.78 44.97-6.13-.72-1.67-.19a8.38 8.38 0 0 1 -.66-2.67l6.83.78c.26 1.51.88 2.61 1.63 2.8z" fill="#5bd3c7"/><path d="m29.98 44.06-2.29-.27-1.63-.19a5.772 5.772 0 0 1 -.92-2.69l4.18.48a8.38 8.38 0 0 0 .66 2.67z" fill="#5858dd"/><path d="m26.06 43.6-14.06-1.66-4.01-.47-3.99-.47c-.82 0-1.53-1.12-1.84-2.73l5.79.66 6.78.78 10.41 1.2a5.772 5.772 0 0 0 .92 2.69z" fill="#5bd3c7"/><path d="m9.05 23.59 4.59.54c-.66.54-1.14 2.52-1.14 4.87a11.329 11.329 0 0 0 .63 4.07l-4.24-.49v-.01a9.474 9.474 0 0 1 -.89-4.57 9.429 9.429 0 0 1 1.05-4.41z" fill="#99e0d4"/><path d="m7.99 41.47 4.01.47c-1.15 1.08-1.98 3.94-1.98 7.3a13.353 13.353 0 0 0 1.44 6.64l-3.99-.47a13.277 13.277 0 0 1 -1.45-6.65c0-3.35.82-6.21 1.97-7.29z" fill="#f7931e"/><path d="m4 23 5.05.59a9.429 9.429 0 0 0 -1.05 4.41 9.474 9.474 0 0 0 .89 4.57l-4.89-.57c-1.1 0-2-2.01-2-4.5s.9-4.5 2-4.5z" fill="#5e5eea"/><path d="m37.78 35.97-24.65-2.9a7.9 7.9 0 0 1 -.49-1.94l23.68 2.79c.31 1.12.84 1.9 1.46 2.05z" fill="#5b52d8"/><path d="m8.89 32.58v-.01a5.418 5.418 0 0 1 -.66-1.95l4.41.51a7.9 7.9 0 0 0 .49 1.94z" fill="#5bd3c7"/><path d="m8.89 32.57-4.89-.57c-.75 0-1.41-.94-1.75-2.33a1.131 1.131 0 0 0 .75.33l5.23.62a5.418 5.418 0 0 0 .66 1.95z" fill="#5b52d8"/><path d="m4 41 3.99.47c-1.15 1.08-1.97 3.94-1.97 7.29a13.277 13.277 0 0 0 1.45 6.65l-3.47-.41c-1.66 0-3-3.13-3-7s1.34-7 3-7z" fill="#ffca3a"/><path d="m37.69 58.96-5.97-.7a7.708 7.708 0 0 1 -1.3-3.09l.79.09 4.25.46c.47 1.78 1.29 3.02 2.23 3.24z" fill="#f7931e"/><path d="m31.72 58.26-4.04-.47a7.923 7.923 0 0 1 -1.27-3.05l.43.05 3.58.38a7.708 7.708 0 0 0 1.3 3.09z" fill="#f15a24"/><path d="m27.68 57.79-16.22-1.91a9.015 9.015 0 0 1 -1.06-2.88l16.01 1.74a7.923 7.923 0 0 0 1.27 3.05z" fill="#f7931e"/><path d="m11.46 55.88-3.99-.47a8.909 8.909 0 0 1 -1.06-2.85l2.9.32 1.09.12a9.015 9.015 0 0 0 1.06 2.88z" fill="#f15a24"/><path d="m7.47 55.41-3.47-.41c-1.02 0-1.91-1.17-2.45-2.97l3.44.38 1.42.15a8.909 8.909 0 0 0 1.06 2.85z" fill="#f7931e"/><path d="m63.023 34 .017-.008a1 1 0 0 0 .971-.992.989.989 0 0 0 -.989-1c-.282-.09-1.022-1.307-1.022-3.5s.741-3.41 1.023-3.5l.014-.007a1 1 0 0 0 .08-1.986l-32.229-3.79a16.013 16.013 0 0 0 -3.777 0l-23.23 2.79h-.015c-1.881.13-2.866 2.824-2.866 5.493a7.834 7.834 0 0 0 1.2 4.5 7.829 7.829 0 0 0 -1.2 4.5 8.065 8.065 0 0 0 1.1 4.358c-1.381 1.39-2.1 4.274-2.1 7.142 0 3.942 1.351 7.933 3.934 8l33.949 3.994a.918.918 0 0 0 .117.006.939.939 0 0 0 .119-.007l7.881-.946v3.953a1 1 0 0 0 .733.964 1.022 1.022 0 0 0 .267.036 1 1 0 0 0 .857-.485l2.235-3.725 2.108 2.81a1 1 0 0 0 1.8-.6v-3.912l9.119-1.095a1 1 0 0 0 -.119-1.993c-.7 0-2-2.278-2-6 0-3.69 1.228-5.826 2-6a1.008 1.008 0 0 0 1.011-1 .99.99 0 0 0 -.877-.992 1.169 1.169 0 0 0 -.119-.008c-.287-.11-1.015-1.324-1.015-3.5 0-2.2.741-3.41 1.023-3.5zm-30.736 23.321a12.384 12.384 0 0 1 -1.287-6.111 13.239 13.239 0 0 1 1.153-5.9l3.293.387a12.639 12.639 0 0 0 -1.446 6.303 13.83 13.83 0 0 0 1.1 5.652zm-4.036-.475a12.619 12.619 0 0 1 -1.251-6.056 12.941 12.941 0 0 1 1.186-5.941l1.87.22a16.273 16.273 0 0 0 -1.056 6.141 16.826 16.826 0 0 0 .947 5.836zm-16.164-1.9a13.591 13.591 0 0 1 -1.067-5.7 11.863 11.863 0 0 1 1.392-6.246l13.563 1.593c.03 0 .057.018.087.018a.185.185 0 0 0 .023 0 16.294 16.294 0 0 0 -1.085 6.179 16.965 16.965 0 0 0 .926 5.783zm-3.993-.469a13.5 13.5 0 0 1 -1.074-5.717 11.869 11.869 0 0 1 1.38-6.236l1.862.219a15.529 15.529 0 0 0 -1.246 6.5 17.385 17.385 0 0 0 .8 5.438zm-4.072-14.477c-.282-.09-1.022-1.307-1.022-3.5 0-2.174.726-3.386.992-3.494l4.737.552c.017 0 .03.013.046.015l20.114 2.36a11.906 11.906 0 0 0 -.639 4.067 13.254 13.254 0 0 0 .309 2.881l-1.913-.224a8.922 8.922 0 0 1 -.646-3.657 7.868 7.868 0 0 1 .2-1.775 1 1 0 1 0 -1.949-.45 9.929 9.929 0 0 0 -.251 2.225 12.579 12.579 0 0 0 .435 3.4l-12.388-1.456h-.021l-3.986-.47c-.009 0-.017 0-.026 0zm5.618-15.332 3.883.455h.01l22.22 2.619a8.946 8.946 0 0 0 -.753 3.758 9.578 9.578 0 0 0 .525 3.2l-21.643-2.541a12.08 12.08 0 0 1 -.382-3.159 14.75 14.75 0 0 1 .115-1.872 1 1 0 1 0 -1.984-.256 16.749 16.749 0 0 0 -.131 2.128 15.174 15.174 0 0 0 .273 2.912l-2.232-.262a10.413 10.413 0 0 1 -.541-3.65 8.949 8.949 0 0 1 .64-3.332zm28.36 3.332a.945.945 0 0 0 .118-.007l22.4-2.685a9.571 9.571 0 0 0 -.518 3.192 8.923 8.923 0 0 0 .757 3.765l-22.746 2.726c-.29-.115-1.011-1.318-1.011-3.491 0-2.193.74-3.41 1-3.5zm-7.3 15.132a10.279 10.279 0 0 1 -.45-3.132 8.087 8.087 0 0 1 .732-3.821l4.774.56a8.926 8.926 0 0 0 -.756 3.761 9.578 9.578 0 0 0 .525 3.2zm7.314.86c-.292-.115-1.014-1.318-1.014-3.492 0-2.193.74-3.41 1-3.5a.939.939 0 0 0 .119-.007l22.4-2.685a9.571 9.571 0 0 0 -.519 3.192 8.821 8.821 0 0 0 .78 3.762zm-10.666-22.792a14.053 14.053 0 0 1 3.305 0l23.88 2.808-16.533 1.985-24.233-2.856h-.01l-1.269-.149zm-23.361 2.8 3.608.423a11.091 11.091 0 0 0 -.595 3.577 14.5 14.5 0 0 0 .373 3.389l-3.351-.389c-.282-.09-1.022-1.307-1.022-3.5 0-2.158.716-3.37.987-3.495zm.013 30c-.7 0-2-2.278-2-6 0-3.7 1.278-5.966 1.985-5.995l2.274.267a15.566 15.566 0 0 0 -1.239 6.488 17.326 17.326 0 0 0 .809 5.448l-1.712-.2a.908.908 0 0 0 -.117-.008zm46.8 3.4a.985.985 0 0 0 -.852-.4 1 1 0 0 0 -.8.484l-1.148 1.906v-8.578l4-.482v8.67zm3.2-1.327v-5.984l.628-.076a1 1 0 0 0 -.237-1.987l-1.5.182h-.007l-6 .72c-.011 0-.02.008-.031.009l-1.246.151a1 1 0 0 0 .115 1.993.945.945 0 0 0 .118-.007l.16-.02v5.979l-8 .96-.088-.01c-.69-.167-1.912-2.3-1.912-5.983 0-3.722 1.3-6 2-6a.939.939 0 0 0 .119-.007l21.981-2.635a13.819 13.819 0 0 0 -1.1 5.642 12.682 12.682 0 0 0 1.439 6.3z" fill="#472b3c"/></svg>