<svg id="453ca62a-7653-4988-8406-279a8203e374" height="512" viewBox="0 0 512 512" width="512" xmlns="http://www.w3.org/2000/svg" data-name="Icons"><path d="m446.62 271.65s-5.94-7.63-27.12-16.1-81.33 21.18-81.33 21.18 55.07-33 71.16-59.31 1.32-59.16-20.33-31.33c-23.71 30.5-80.12 44.55-80.12 44.55-5.39-31.59-4-80.86-33.4-125.46-34.31-52.1-148.67-91.81-148.67-91.81 10.66 16.78 15.7 32.87 13 48-13.81-12.52-35.29-16.78-60.34-17.19 19.85 11.62 36 25.79 47.34 43.21-27.81-5.71-57.93 1.41-89.28 15.61 30.16-4.61 56.76-2.46 78.16 9.54-34.77 8.61-53.36 14.85-84.19 34.19 36.53-5 56.09 1.2 79.42 8.38-21.69 5.7-38.68 18.23-51.46 36.85 23.11-6.71 45.77-9.9 67.35-4.45-19.84 14.23-33.65 30-41 47.34 20.49-4.57 39.29-5.61 55 0-14.15 5.34-24.28 15.49-31.13 29.54 15.53-2 30.82-1.28 45.75 3.18-13.42 5.38-20.31 15.17-23.19 27.64 15.84-3.73 30.84-4.93 44.47-2.23a50.25 50.25 0 0 0 -16.2 23.51c12.81-6.42 25-9 36.22-5.4-8.3 4.85-11.33 12.12-9.53 21.6 14.49 2.57 34.13 1.95 55.91 0 0 0-35 26.37-59.73 34.31s-97.24 13.3-107.72 19-26.66 50.84-27.32 77.85 62.26-17.79 84.5-29.86 78.16-23.2 78.16-23.2l-46.06 55.28s19.38-2.86 48.6-14 69.3-48.16 100.71-74.34c31.77-26.47 54.54-34.29 54.54-34.29a69 69 0 0 0 .74 7.82s51.46-24 61.63-39.22c9.51-14.27 49.34.25 49.34.25-1.99-26.93-13.77-35.56-33.88-40.64z" fill="#3b2521"/><path d="m468.13 281.62c-5.49-4.84-12.71-7.75-21.51-10 0 0-5.94-7.63-27.12-16.1-6.82-2.73-17.69-1.5-29.29 1.42-24.4 6.14-52 19.76-52 19.76s-15.71-2.51-25.87-31.7c0 0 35.58-8.26 61-32.4s21.42-32.62 21.42-32.62a41.53 41.53 0 0 0 -5.75 6.15c-23.71 30.5-80.12 44.55-80.12 44.55-5.39-31.59-4-80.86-33.39-125.46-23.88-36.28-86.5-66.54-122.4-81.6-4.88-2-9.28-3.81-13-5.27a88.05 88.05 0 0 0 8.31 21.65c5.93 10.59 5.91 14.6 20.33 15.67 14.12 1 41.94 20 77 50 23.08 19.73 34 59.69 36.12 88.53 3.81 50.83 18.34 72 26.81 88.92s-6.9 13.59-26.39 30.53-14.4 3.82-10.17-1.69-.42-9.74-3.81-14.83 10.6-11.43 8-16.69-10.08 4.41-14.32 0 9.32-10.41 7.2-15.08-14.83 3-17.37-.85 14.83-7.62 13.14-10.4-16.95 2.36-19.18 0 14.52-9.93 14.1-12.89-16.95.42-18.23-4.23 17.8-5.52 18.23-11-23.31-10.58-22-13.46 21 3.38 22 3.7c-1.21-.76-35.51-22.07-33.43-25.4s29 5.45 30.43 5.91c-1.52-.9-33.33-19.57-30.85-24.12s21 6.79 22 7.38c-1.42-1.14-42.68-34.14-39.77-38.73s41.62 30.22 42.75 31.23c-1.23-1.34-41.57-45.79-39.06-50.38s30.06 27.88 30.91 28.78c-.67-.86-22.21-28.95-34.71-39.37 0 0-48.29-34.73-53-27.1s38.56 23.71 30.93 34.31c-3 4.13-36-35.4-47.37-16.1-6.8 11.58 41 30.5 38.48 36s-48.29-26.25-51.68-5.5c-2.54 15.55 49.56 23.29 49.56 27.53s-35.09-9.74-36.36 1.69 39.32 14.83 39.32 20.76-36.26-1.57-35.15 7.2c1.69 13.45 41.08 4.66 39.84 9.75s-37.3 3-36 12.37 42.35 2.44 43.21 6.69-37.76 3.71-34.75 15.25c4.67 17.79 38.56-1.27 40.25 3.81s-30.5 10.17-25.84 18.78 38.55-7.34 39.82-2.93-29.65 10.4-26.66 18.88 38.09-9.32 41.07 0-34.33 5.93-28.81 18.64 42.35-6.35 44.89 0-23.72 8.05-18.64 19.9 28.39 12.71 29.66 16.52-7.84 4.66-7.84 4.66-12 9.08-27 18.19c-10.54 6.4-22.52 12.85-32.76 16.13-24.73 7.94-97.17 13.34-107.65 19.04s-26.66 50.85-27.32 77.85c-.47 20 33.9.62 60.79-15.68h.05c9.42-5.7 17.91-11 23.66-14.15 22.24-12.1 78.16-23.22 78.16-23.22l-28.24 33.9s40.63-1.5 87.65-49.15 99.34-63.17 99.34-63.17a41.13 41.13 0 0 0 -1 11.08 71.79 71.79 0 0 0 .74 7.83 430.59 430.59 0 0 0 39.28-21.11c9.9-6.16 18.73-12.7 22.35-18.12 3-4.51 9-6.15 15.89-6.27 14.81-.28 33.46 6.52 33.46 6.52-1.09-15.14-5.3-24.5-12.34-30.69z" fill="#4f332e"/><path d="m468.13 281.65c-5.49-4.84-12.71-7.75-21.51-10 0 0-5.94-7.63-27.12-16.1-6.82-2.74-17.69-1.5-29.29 1.42-24.4 6.14-52 19.76-52 19.76a106.31 106.31 0 0 0 -10.46 6.32 50.38 50.38 0 0 0 -7.75 6.39c17.08-3.59 33.09-3.52 47.66 1.59q-24.47 10.8-28.6 31.76c13.68-6.54 27.06-8.94 40-5.71a28.15 28.15 0 0 0 -9.3 15.3 41.06 41.06 0 0 0 -1 11.08 71.38 71.38 0 0 0 .74 7.82 432 432 0 0 0 39.28-21.1c9.9-6.17 18.73-12.7 22.35-18.12 3-4.51 9-6.15 15.89-6.27 14.81-.28 33.46 6.52 33.46 6.52-1.1-15.12-5.31-24.47-12.35-30.66z" fill="#c2aa97"/><path d="m394.75 179.94a41.53 41.53 0 0 0 -5.75 6.15c-23.71 30.5-80.12 44.55-80.12 44.55-5.39-31.59-4-80.86-33.39-125.46-23.87-36.24-86.49-66.5-122.39-81.56 0 0 34.48 26.15 81.73 60 39.23 28.06 50.82 61.41 58.87 128.86 7.43 62.27 34 70.61 34 70.61a108.29 108.29 0 0 1 10.46-6.32s-15.66-2.58-25.82-31.77c0 0 35.58-8.26 61-32.4s21.41-32.66 21.41-32.66z" fill="#815537"/><path d="m216.12 350.83.28.46s-28.6 27.71-72.92 34.71c-26.67 4.2-72.22 4.19-66.23 16.52 3 6.17 22.87 6.35 22.87 6.35s-36.85 13.34-29.86 18.43 25.41 3.81 25.41 3.81-38.12 12.71-34.31 23.25c3.74 10.35 46.16-5.61 47.77-6.21-26.89 16.3-61.26 35.68-60.79 15.68.63-27 16.84-72.12 27.32-77.83s82.92-11.1 107.7-19c10.24-3.32 22.22-9.77 32.76-16.17z" fill="#c2aa97"/><path d="m468.13 281.64c-5.49-4.84-12.71-7.75-21.51-10 0 0-5.94-7.62-27.12-16.1-6.82-2.73-17.69-1.5-29.29 1.43-14.27 10.09-20.56 17.79-2 18.07-12.25 7.3-12.23 12.23 2 14.39-13 8.81-9.37 11.43 4.76 10.17-15.84 13.36-11.41 15.72 5.27 11.44-15.84 16.05-10.53 21.15 8.56 19.12 9.9-6.16 18.73-12.69 22.35-18.12 3-4.51 9-6.15 15.89-6.26 14.81-.28 33.46 6.52 33.46 6.52-1.12-15.12-5.33-24.47-12.37-30.66z" fill="#f7deca"/><path d="m468.13 281.62c7 6.19 11.25 15.54 12.37 30.69 0 0-18.65-6.8-33.46-6.52 0 0-7.18-5.39-21.39-2.16-16.85 3.83-19.67 2.44-3.82-15.89 23.09-26.68 45.41-6.28 46.3-6.12z" fill="#fac924"/><path d="m416.14 299.58s22.63-9.14 43-5c7.42 1.52 14.3 4.45 19.64 10.91 1.67 2 .15 5.7-1.79 3.92-4.51-4.14-13.44-10.78-22.72-11.76-12.1-1.25-38.13 1.93-38.13 1.93z" fill="#603913"/><g fill="#292424"><path d="m423.24 284a10 10 0 0 1 -8.17-4.47 4.25 4.25 0 0 1 -.53-4.11 29.79 29.79 0 0 0 -5.19.49 4.25 4.25 0 1 1 -1.48-8.37c9.75-1.73 17.52.15 23.09 5.59a4.26 4.26 0 0 1 1.23 2.45c.43 3-1.81 6.27-5.31 7.71a9.7 9.7 0 0 1 -3.64.71z"/><path d="m371.32 355.53c5.37-2.5 52.84-24.93 63.36-40.72 5.78-8.66 32.39-2.47 44.37 1.89a4.25 4.25 0 0 0 5.69-4.3c-2.14-29.09-15.83-38.86-35.83-44.15-2.61-2.67-10.25-9.22-27.83-16.25-10.73-4.29-29.31-.23-46.4 5.48 14.88-11.24 30.63-25 38.28-37.43 11.18-18.24 8.69-39.36-1-46.07-3.64-2.52-13.48-6.6-26.31 9.89-18.73 24.08-59.71 37.78-73.31 41.79-.8-5.53-1.47-11.57-2.18-18-3.38-30.59-7.58-68.66-31.16-104.42-14.61-22.24-44.51-44.75-88.82-66.91a588.54 588.54 0 0 0 -62-26.58 4.25 4.25 0 0 0 -5 6.29c8.82 13.86 13.16 26.25 13.12 37.61-13.07-8.65-31.38-12.91-56.76-13.32h-.07a4.25 4.25 0 0 0 -2.14 7.92c16.87 9.87 30.1 21 40.17 33.83-23.79-2.36-50.65 3.37-81.71 17.4a4.25 4.25 0 0 0 2.39 8.07c26-4 47.36-2.62 65 4.13-27.08 7.11-45.53 14-73.9 31.8a4.25 4.25 0 0 0 2.83 7.81c29-3.95 46.64-.82 64.94 4.41-16.48 6.94-30.25 18.4-41.05 34.2a4.25 4.25 0 0 0 4.69 6.48c22-6.37 40-8.39 56-6.17-16.53 13.27-28.2 27.81-34.76 43.33a4.25 4.25 0 0 0 4.84 5.8c16.51-3.68 30.33-4.62 41.88-2.83-9.57 6.06-17.21 14.89-22.8 26.37a4.25 4.25 0 0 0 4.36 6.07 109.32 109.32 0 0 1 33.61.56c-8 5.88-13.23 14.28-15.73 25.08a4.25 4.25 0 0 0 5.11 5.1c12.84-3 24.12-4.12 34.21-3.34a55.88 55.88 0 0 0 -10.92 19.1 4.25 4.25 0 0 0 5.92 5.19c9.24-4.64 17.4-6.82 24.73-6.57-4.18 5.26-5.6 11.95-4.13 19.76a4.25 4.25 0 0 0 3.44 3.39c10.39 1.85 23.85 2.24 41.68 1.2-12.23 8.29-31.19 20.12-46.05 24.88-12.23 3.92-37.38 7.34-59.56 10.35-26.68 3.62-43.31 6-48.88 9-8.14 4.44-15.6 22.74-19.32 33.25-6.09 17.19-9.9 35.22-10.21 48.22-.16 6.62 2.84 9.76 5.37 11.22a13.56 13.56 0 0 0 6.85 1.66c13.25 0 35.36-12.76 62.08-29.09 6.59-4 12.27-7.5 16.46-9.77 15.23-8.27 47.44-16.23 65-20.18l-33.46 40.15a11.49 11.49 0 0 0 -1.91-1.73c-6.65-4.68-17.54-1-18.76-.57a4.25 4.25 0 0 0 2.86 8c2.71-1 8.71-2.1 11-.49.31.22 1.11.78 1.11 3.16 0 5.35-1.65 9.25-5 11.93-8.52 6.75-26.44 4.45-32.63 3a4.25 4.25 0 0 0 -2 8.28 79.43 79.43 0 0 0 16.59 1.81c7.85 0 16.87-1.36 23.26-6.41a20.31 20.31 0 0 0 1.62-1.42c-2.58 3.58-7.33 7.2-14.2 10.83a4.25 4.25 0 0 0 4 7.52c12.16-6.42 18.9-13.24 20.62-20.85a18.33 18.33 0 0 0 -1.27-11.61 293.8 293.8 0 0 0 43.4-13.08c24.86-9.46 56.8-36.69 85-60.72 5.92-5 11.51-9.81 16.92-14.32 22-18.35 39.73-27.6 48.05-31.39.01 4.88.82 7.95 6.25 5.48zm21-166.44c5.81-7.47 11.33-10.5 14.77-8.12 2.77 1.91 4.58 6.81 4.75 12.78a40.48 40.48 0 0 1 -6.17 21.85c-13.89 22.67-59.21 51.39-68.17 56.94-5.15-1.93-14.6-9.64-21.19-28.58a77.8 77.8 0 0 1 -2.59-9.84c13.46-3.83 57.69-18.12 78.64-45.03zm-280.19-37.7c-19-5.86-36.52-11.25-62.27-10.23 22.47-12.31 40-17.51 66.81-24.15a4.26 4.26 0 0 0 1.06-7.84c-14.44-8.11-31.42-12.17-51.4-12.33 22.31-6.92 42-8.51 59.62-4.89a4.25 4.25 0 0 0 4.42-6.49c-8.66-13.29-20.45-25.28-35.15-35.76 19 1.89 32.5 6.83 41.77 15.19a4.25 4.25 0 0 0 7-2.41c2.24-12.61-.28-26-7.69-40.62 29.22 11.33 108.7 45.08 135.64 86.05 22.42 34.05 26.49 71 29.77 100.68 1.66 15.06 3.1 28.06 6.61 38.16 6.2 17.82 14.56 26.51 20.75 30.72a62.75 62.75 0 0 0 -12.17 9.42 4.25 4.25 0 0 0 3.93 7.1c13.06-2.74 24.68-3.16 35.24-1.23-11.69 7.45-18.81 17.38-21.22 29.61a4.25 4.25 0 0 0 6 4.65c10.7-5.12 20.53-7.31 29.81-6.61-4.57 6.52-6 13.81-6.18 20.56-7.21 3-27.13 12.38-53 33.92-5.45 4.54-11.06 9.32-17 14.39-27.66 23.58-59 50.3-82.49 59.24a301.75 301.75 0 0 1 -36 11.3l38.26-45.91a4.25 4.25 0 0 0 -4.09-6.89c-2.31.46-56.81 11.39-79.35 23.63-4.39 2.38-10.16 5.9-16.84 10-11 6.75-24.77 15.14-36.64 20.91-17.54 8.53-22.52 7.1-23.63 6.47-.79-.46-1.17-1.69-1.12-3.67.28-12.14 3.92-29.18 9.72-45.58 6.1-17.22 12.25-26.91 15.39-28.62 4.47-2.44 26.5-5.43 45.94-8.07 23.64-3.21 48.07-6.53 61-10.67 25.18-8.07 59.54-33.87 61-35a4.24 4.24 0 0 0 -2.94-7.62c-23 2.05-39.55 2.23-51.73.53-.42-6.31 2.13-10.88 7.87-14.23a4.25 4.25 0 0 0 -.84-7.72c-8.81-2.83-18.41-2.43-29.12 1.26a44.54 44.54 0 0 1 10.48-12 4.25 4.25 0 0 0 -1.85-7.47c-11.53-2.28-24.37-2.05-39.07.73 3.51-8.52 9.63-14.45 18.54-18a4.26 4.26 0 0 0 -.36-8 109.51 109.51 0 0 0 -39.31-4.13 49.79 49.79 0 0 1 25-20.54 4.25 4.25 0 0 0 -.07-8c-13.14-4.7-29.17-5.31-48.82-1.85 7.51-13.54 19.54-26.31 35.89-38a4.25 4.25 0 0 0 -1.44-7.57c-16.74-4.23-35.18-3.85-57.3 1.27a82.87 82.87 0 0 1 41.44-25.52 4.25 4.25 0 0 0 .17-8.17zm315.48 158.71c-6.94 10.41-37.91 27-54.5 35.15-.68-11.14 2.1-18.85 8.72-24.56a4.25 4.25 0 0 0 -1.75-7.34 52 52 0 0 0 -12.67-1.54 64.74 64.74 0 0 0 -21.5 3.91c4.1-8.57 11.83-15.29 23.42-20.41a4.25 4.25 0 0 0 -.31-7.9 82.11 82.11 0 0 0 -33.15-4.12c1.34-.78 2.76-1.58 4.25-2.38 1.09-.54 15.54-7.56 32.21-13.55 21.84-7.84 38-10.49 45.6-7.47 19.45 7.79 25.31 14.74 25.33 14.76a4.2 4.2 0 0 0 2.31 1.51c16.8 4.25 26.89 10.63 30 30.45-12.64-3.77-39.15-9.73-47.96 3.49z"/><path d="m279.39 215.44c-1.23-12.32-2.76-27.64-6.51-47.54-4.76-25.29-22.92-50.35-54-74.47a282 282 0 0 0 -44.88-28.53 4.25 4.25 0 0 0 -3.71 7.65c.83.4 83.76 41.22 94.25 96.93 3.68 19.53 5.13 34 6.4 46.8 2.46 24.62 4.09 40.88 20 66.07 3.66 5.79 2.5 7.08 0 9l-.17.13-15.53 13.1a4.25 4.25 0 0 0 5.48 6.5l15.46-13c9.95-7.66 4.16-16.81 2-20.26-14.91-23.51-16.37-38.14-18.79-62.38z"/></g></svg>