<svg height="512" viewBox="0 0 256 256" width="512" xmlns="http://www.w3.org/2000/svg"><g id="Layer_33"><g><g><path d="m125.603 253.34c-21.089-1.872-37.116-19.69-36.87-40.86.066-5.651.565-11.346 1.745-16.623.518-2.318.072-4.761-1.228-6.748-2.77-4.235-6.853-12.543-4.275-21.97.71-2.598.233-5.395-1.401-7.536-4.538-5.945-11.96-18.823-4.256-32.228 1.435-2.497 1.596-5.519.36-8.12-3.216-6.766-7.771-20.587.412-33.432 1.405-2.205 1.743-4.93.9-7.405-2.549-7.48-5.345-23.709 13.967-32.187 2.405-1.056 4.274-3.069 4.982-5.598 2.475-8.849 10.906-28.799 35.981-24.292 2.239.403 4.567-.028 6.458-1.292 5.735-3.835 19.572-10.327 33.537 3.835 1.578 1.6 3.731 2.48 5.977 2.532 7.009.161 21.976 3.382 21.028 28.133-.08 2.089.638 4.127 1.966 5.742 4.938 6.002 15.628 22.421 3.292 40.619-1.406 2.075-1.894 4.629-1.238 7.047 1.477 5.442 2.342 15.897-8.993 23.818-3.094 2.162-4.424 6.064-3.327 9.676 1.477 4.861 2.08 11.831-2.951 18.189-1.747 2.208-2.276 5.117-1.516 7.828 1.602 5.715 1.955 15.716-11.356 22.627-2.528 1.313-4.231 3.801-4.577 6.629-.797 6.513-2.577 18.799-5.878 31.44-4.999 19.143-23.03 31.925-42.739 30.176z" fill="#b2e26d"/></g><g><path d="m88.733 212.48c.066-5.651.565-11.346 1.745-16.623.518-2.318.072-4.76-1.228-6.748-2.77-4.235-6.853-12.543-4.275-21.97.71-2.598.233-5.395-1.401-7.536-4.538-5.945-11.96-18.823-4.256-32.228 1.435-2.497 1.596-5.519.36-8.12-3.216-6.766-7.771-20.587.412-33.432 1.405-2.205 1.743-4.93.9-7.405-2.549-7.48-5.345-23.709 13.967-32.188 2.405-1.056 4.274-3.069 4.982-5.598 1.997-7.141 7.88-21.505 23.253-24.417-3.676-.696-7.889-.745-12.728.125-2.239.403-4.567-.028-6.458-1.292-5.734-3.836-19.571-10.328-33.536 3.835-1.578 1.6-3.731 2.48-5.977 2.532-7.009.161-21.976 3.383-21.028 28.133.08 2.089-.638 4.127-1.966 5.742-4.939 6.002-15.629 22.42-3.293 40.619 1.406 2.074 1.894 4.629 1.238 7.047-1.477 5.442-2.342 15.897 8.993 23.818 3.094 2.162 4.424 6.064 3.327 9.676-1.477 4.861-2.08 11.831 2.951 18.189 1.747 2.208 2.276 5.117 1.516 7.828-1.602 5.715-1.955 15.715 11.356 22.627 2.528 1.313 4.231 3.801 4.577 6.629.797 6.513 2.577 18.799 5.878 31.44 4.999 19.145 23.031 31.927 42.74 30.178.812-.072 1.614-.176 2.41-.294-19.885-2.964-34.695-20.212-34.459-40.567z" fill="#b2e26d"/></g><g><path d="m88.733 212.48c.066-5.651.565-11.346 1.745-16.623.518-2.318.072-4.76-1.228-6.748-2.77-4.235-6.853-12.543-4.275-21.97.71-2.598.233-5.395-1.401-7.536-4.538-5.945-11.96-18.823-4.256-32.228 1.435-2.497 1.596-5.519.36-8.12-2.073-4.361-4.697-11.655-4.113-19.728-5.359 11.701-12.49 31.58-10.565 51.473 1.577 16.297 2.325 27.337 2.679 34.149 2.476 1.325 4.144 3.781 4.485 6.573.797 6.513 2.577 18.799 5.878 31.44 4.999 19.145 23.031 31.927 42.74 30.178.812-.072 1.614-.176 2.41-.294-19.885-2.963-34.695-20.211-34.459-40.566z" fill="#e2f9b9"/></g><g><path d="m168.343 223.162c.491-1.879.944-3.746 1.369-5.591-8.412-4.682-14.211-13.77-14.211-24.214v-21.857c0-29.437-12.116-65.239 3.781-111.666 1.408-4.112-3.794-7.241-6.757-4.061-18.562 19.92-46.025 61.62-46.025 120.727v27.419c0 10.805-5.611 20.4-14.128 25.851 5.862 12.884 18.268 22.242 33.23 23.57 19.71 1.749 37.741-11.033 42.741-30.178z" fill="#e2f9b9"/></g><g><path d="m220.013 6.175c-3.1-.6-5.6-3-6.2-6.1 0-.1-.3-.1-.3 0-.6 3.1-3.1 5.5-6.2 6.1-.1 0-.1.2 0 .3 3.1.6 5.6 3 6.2 6.1 0 .1.3.1.3 0 .6-3.1 3.1-5.5 6.2-6.1.1-.1.1-.3 0-.3z" fill="#87d147"/></g><g><path d="m41.013 226.5h2.3v2.3c0 1.8 1.4 3.2 3.2 3.2 1.7 0 3.2-1.4 3.2-3.1v-.1-2.3h2.3c1.8 0 3.2-1.4 3.2-3.2 0-1.7-1.4-3.2-3.1-3.2h-.1-2.3v-2.3c0-1.8-1.4-3.2-3.2-3.2-1.7 0-3.2 1.4-3.2 3.1v.1 2.3h-2.3c-1.8 0-3.2 1.4-3.2 3.2-.1 1.7 1.3 3.2 3.2 3.2-.1 0-.1 0 0 0z" fill="#70d6f9"/></g><g><circle cx="192.413" cy="231.9" fill="#fc657e" r="3.4"/></g><g><circle cx="29.413" cy="149.4" fill="#f5c84c" r="3.4"/></g><g><path d="m208.813 171.2c4.5-.8 8-4.3 8.9-8.7 0-.2.4-.2.4 0 .9 4.4 4.4 7.9 8.9 8.7.2 0 .2.3 0 .4-4.5.8-8 4.3-8.9 8.7 0 .2-.4.2-.4 0-.9-4.4-4.4-7.9-8.9-8.7-.2-.1-.2-.4 0-.4z" fill="#f5c84c"/></g><g><path d="m129.238 256.002c-1.277 0-2.563-.057-3.856-.171-22.212-1.971-39.408-21.026-39.148-43.379.074-6.348.681-12.115 1.806-17.14.369-1.651.048-3.413-.881-4.833-2.938-4.493-7.441-13.584-4.594-23.998.514-1.881.149-3.885-.977-5.361-4.21-5.516-13.07-19.967-4.436-34.99 1.037-1.805 1.138-3.974.27-5.801-3.555-7.479-8.209-22.083.562-35.849 1.007-1.582 1.242-3.497.643-5.256-2.545-7.468-6.145-25.854 15.329-35.283 1.786-.785 3.091-2.236 3.579-3.982 1.438-5.143 4.369-12.484 10.159-18.252 7.325-7.296 16.971-9.929 28.672-7.826 1.658.297 3.302-.026 4.626-.91 5.908-3.952 21.312-11.455 36.707 4.158 1.1 1.115 2.61 1.75 4.254 1.788 3.85.088 11.119 1.099 16.555 6.876 4.99 5.305 7.316 13.33 6.914 23.851-.055 1.453.442 2.895 1.399 4.059 5.438 6.61 16.66 24.093 3.431 43.61-1.021 1.506-1.347 3.324-.895 4.99 1.341 4.941 3.055 17.417-9.975 26.521-2.201 1.539-3.152 4.312-2.366 6.9 1.621 5.337 2.351 13.221-3.382 20.467-1.221 1.542-1.621 3.637-1.07 5.602 1.734 6.185 2.402 17.725-12.611 25.521-1.786.927-3.001 2.689-3.248 4.713-.775 6.337-2.578 18.891-5.94 31.769-5.007 19.162-22.119 32.206-41.527 32.206zm-3.414-5.152c18.521 1.651 35.386-10.266 40.1-28.319 3.289-12.596 5.056-24.899 5.815-31.112.447-3.662 2.656-6.856 5.906-8.543 11.28-5.857 11.72-13.964 10.102-19.733-.981-3.502-.247-7.261 1.963-10.055 3.525-4.456 4.373-9.809 2.52-15.911-1.417-4.666.306-9.669 4.287-12.452 9.549-6.672 9.627-15.164 8.012-21.113-.834-3.074-.257-6.392 1.582-9.105 11.336-16.724 1.571-31.885-3.153-37.628-1.735-2.11-2.636-4.747-2.534-7.425.35-9.134-1.521-15.941-5.561-20.235-3.977-4.228-9.279-5.218-13.026-5.303-2.95-.068-5.685-1.231-7.7-3.276-12.315-12.49-24.312-7.563-30.367-3.513-2.406 1.608-5.351 2.203-8.29 1.675-9.542-1.714-26.537-1.073-33.131 22.504-.894 3.195-3.221 5.824-6.384 7.214-17.046 7.482-15.215 21.438-12.608 29.091 1.092 3.203.669 6.686-1.158 9.555-7.477 11.736-3.374 24.47-.263 31.016 1.573 3.309 1.404 7.211-.45 10.438-6.882 11.975-.4 23.601 4.076 29.466 2.065 2.706 2.748 6.337 1.826 9.712-2.331 8.524 1.478 16.153 3.956 19.942 1.664 2.543 2.238 5.701 1.575 8.662-1.048 4.687-1.615 10.105-1.685 16.106-.231 19.759 14.964 36.6 34.59 38.342z"/></g><g><path d="m117.148 256.001c-19.411 0-36.52-13.043-41.524-32.207-3.364-12.883-5.166-25.434-5.94-31.769-.248-2.023-1.462-3.786-3.248-4.713-15.013-7.795-14.345-19.336-12.611-25.521.551-1.965.151-4.06-1.07-5.602-5.733-7.246-5.003-15.13-3.382-20.467.786-2.588-.166-5.361-2.367-6.899-13.028-9.104-11.315-21.58-9.974-26.522.452-1.666.126-3.484-.895-4.99-13.23-19.517-2.008-37 3.431-43.61.958-1.164 1.455-2.605 1.399-4.058-.403-10.521 1.923-18.545 6.914-23.85 5.435-5.778 12.706-6.789 16.556-6.877 1.644-.038 3.154-.673 4.254-1.788 15.396-15.615 30.8-8.109 36.707-4.158 1.324.884 2.965 1.207 4.626.91 4.859-.874 9.446-.914 13.635-.122 1.18.224 2.035 1.255 2.035 2.457s-.854 2.233-2.035 2.457c-13.762 2.606-19.259 15.3-21.311 22.634-.894 3.196-3.221 5.826-6.385 7.214-17.044 7.482-15.213 21.438-12.606 29.091 1.092 3.204.669 6.686-1.158 9.555-7.477 11.736-3.374 24.47-.263 31.016 1.573 3.31 1.404 7.211-.45 10.438-6.881 11.974-.4 23.601 4.076 29.466 2.065 2.706 2.748 6.336 1.826 9.712-2.332 8.526 1.478 16.154 3.956 19.942 1.664 2.544 2.238 5.701 1.575 8.663-1.048 4.687-1.615 10.106-1.685 16.106-.22 18.922 13.678 35.286 32.328 38.064 1.225.183 2.132 1.234 2.132 2.473s-.907 2.29-2.131 2.473c-.959.143-1.772.242-2.557.312-1.294.114-2.582.17-3.858.17zm-28.035-243.333c-5.136 0-10.962 1.986-16.863 7.97-2.017 2.044-4.751 3.208-7.7 3.276-3.748.086-9.05 1.076-13.028 5.305-4.039 4.293-5.909 11.101-5.56 20.233.103 2.678-.797 5.315-2.534 7.426-4.725 5.743-14.49 20.905-3.153 37.628 1.839 2.714 2.416 6.032 1.581 9.105-1.615 5.949-1.535 14.442 8.013 21.113 3.981 2.782 5.705 7.785 4.288 12.451-1.854 6.102-1.007 11.456 2.519 15.911 2.211 2.794 2.945 6.553 1.963 10.054-1.618 5.77-1.178 13.877 10.101 19.734 3.25 1.688 5.458 4.881 5.907 8.543.759 6.211 2.525 18.512 5.815 31.112 3.474 13.305 13.55 23.274 26.022 26.939-12.372-7.77-20.43-21.649-20.251-37.019.074-6.347.681-12.114 1.806-17.14.369-1.651.048-3.413-.881-4.833-2.938-4.492-7.442-13.582-4.594-23.998.514-1.881.149-3.885-.977-5.36-4.21-5.516-13.069-19.968-4.436-34.991 1.037-1.805 1.138-3.974.269-5.801-3.554-7.479-8.208-22.082.562-35.848 1.007-1.582 1.242-3.497.643-5.256-2.545-7.468-6.145-25.854 15.329-35.283 1.786-.784 3.091-2.235 3.579-3.982 1.39-4.969 5.107-14.936 13.644-21.205-.089.016-.179.031-.269.047-2.94.529-5.884-.066-8.29-1.675-3.154-2.107-7.921-4.456-13.505-4.456zm-.38 199.812h.01z"/></g><g><path d="m123.498 238c-.51 0-1.024-.155-1.468-.478-1.117-.812-1.364-2.376-.552-3.492 2.437-3.35 4.554-8.22 6.293-14.475 2.114-7.599 3.206-15.814 3.247-24.417.141-29.143 1.068-56.83 1.609-70.74.054-1.38 1.256-2.466 2.595-2.401 1.38.054 2.455 1.215 2.401 2.595-.539 13.878-1.466 41.5-1.605 70.569-.043 9.047-1.196 17.705-3.43 25.733-1.899 6.832-4.277 12.241-7.066 16.076-.489.673-1.251 1.03-2.024 1.03z"/></g><g><path d="m151.289 108.333c-.457 0-.919-.125-1.334-.387-1.167-.738-1.515-2.282-.777-3.449 12.009-18.993 32.111-26.532 32.962-26.844 1.292-.476 2.731.19 3.208 1.486.475 1.296-.19 2.731-1.484 3.207-.193.071-19.384 7.306-30.459 24.822-.476.753-1.288 1.165-2.116 1.165z"/></g><g><path d="m152.641 136.602c-.395 0-.795-.094-1.168-.292-1.221-.646-1.686-2.159-1.039-3.379 8.589-16.215 23.256-24.293 23.876-24.629 1.212-.657 2.73-.207 3.389 1.007.657 1.214.207 2.73-1.006 3.388-.19.104-13.997 7.766-21.841 22.574-.449.847-1.315 1.331-2.211 1.331z"/></g><g><path d="m155.71 170.101c-.41 0-.825-.101-1.209-.313-1.208-.668-1.645-2.19-.977-3.398 7.48-13.51 19.454-18.949 19.96-19.174 1.261-.56 2.738.007 3.3 1.27.561 1.26-.006 2.735-1.265 3.297-.108.049-10.982 5.04-17.62 17.029-.457.823-1.309 1.289-2.189 1.289z"/></g><g><path d="m138.849 74.937c-1.264 0-2.348-.954-2.483-2.238-1.795-17.039-10.737-28.536-10.828-28.649-.855-1.084-.67-2.656.413-3.512 1.084-.854 2.656-.671 3.511.413.405.513 9.931 12.762 11.876 31.225.145 1.373-.852 2.604-2.225 2.748-.089.009-.176.013-.264.013z"/></g><g><path d="m122.841 102.532c-1.167 0-2.211-.822-2.449-2.01-3.459-17.296-13.605-28.194-13.707-28.302-.947-1.002-.904-2.584.097-3.533 1.002-.949 2.581-.908 3.531.092.457.48 11.228 11.989 14.983 30.763.271 1.354-.607 2.671-1.961 2.942-.167.032-.332.048-.494.048z"/></g><g><path d="m110.884 137.769c-.95 0-1.857-.544-2.277-1.465-5.571-12.238-13.592-18.79-13.672-18.855-1.074-.865-1.246-2.438-.383-3.513s2.432-1.25 3.51-.388c.365.292 9.002 7.3 15.096 20.685.572 1.256.017 2.739-1.24 3.311-.335.153-.688.225-1.034.225z"/></g><g><path d="m72.367 108.938c-1.005 0-1.953-.61-2.334-1.604-5.384-14.025-16.193-24.959-16.302-25.067-.975-.977-.974-2.56.002-3.535.976-.976 2.559-.976 3.534 0 .474.473 11.658 11.764 17.433 26.809.495 1.289-.149 2.735-1.438 3.23-.295.113-.597.167-.895.167z"/></g><g><path d="m79.341 66.381c-.821 0-1.625-.404-2.104-1.146-4.912-7.621-10.403-12.869-10.458-12.921-1.001-.95-1.043-2.532-.093-3.534.951-1.001 2.531-1.045 3.533-.095.241.229 5.967 5.689 11.221 13.841.748 1.161.414 2.708-.747 3.456-.419.269-.888.399-1.352.399z"/></g><g><path d="m117.148 256.001c-19.411 0-36.52-13.043-41.524-32.207-3.364-12.883-5.166-25.434-5.94-31.769-.244-1.988-1.434-3.735-3.184-4.672-.772-.413-1.271-1.2-1.317-2.074-.331-6.354-1.063-17.416-2.671-34.038-1.93-19.935 4.798-39.691 10.781-52.754.504-1.1 1.722-1.678 2.894-1.381 1.171.3 1.96 1.396 1.873 2.603-.536 7.399 1.813 14.13 3.877 18.474 1.572 3.31 1.404 7.211-.45 10.438-6.881 11.974-.4 23.601 4.076 29.466 2.065 2.706 2.748 6.336 1.826 9.712-2.332 8.526 1.478 16.154 3.956 19.942 1.664 2.544 2.238 5.701 1.575 8.663-1.048 4.687-1.615 10.106-1.685 16.106-.22 18.922 13.678 35.286 32.328 38.064 1.225.183 2.132 1.234 2.132 2.473s-.907 2.29-2.132 2.473c-.959.143-1.771.242-2.557.312-1.294.113-2.582.169-3.858.169zm-47.042-72.277c2.496 1.8 4.16 4.585 4.54 7.695.759 6.211 2.525 18.512 5.815 31.112 3.474 13.305 13.55 23.274 26.022 26.939-12.372-7.77-20.43-21.649-20.251-37.019.074-6.347.681-12.114 1.805-17.14.37-1.651.049-3.413-.88-4.833-2.938-4.492-7.442-13.582-4.594-23.998.514-1.881.149-3.885-.977-5.36-12.637-16.559-7.312-29.986-4.436-34.991 1.037-1.805 1.138-3.974.269-5.801-1.278-2.689-2.652-6.201-3.527-10.23-4.304 11.624-7.809 26.151-6.405 40.662 1.515 15.637 2.257 26.398 2.619 32.964zm18.627 28.756h.01z"/></g><g><path d="m129.238 256.002c-1.277 0-2.563-.057-3.856-.171-15.361-1.364-28.882-10.953-35.285-25.025-.515-1.132-.12-2.47.928-3.141 8.124-5.201 12.975-14.078 12.975-23.746v-27.419c0-65.269 32.654-107.363 46.694-122.431 2.152-2.312 5.421-2.77 8.128-1.147 2.714 1.627 3.849 4.73 2.824 7.722-11.244 32.837-8.27 60.089-5.645 84.132 1.028 9.414 1.999 18.306 1.999 26.724v21.857c0 9.15 4.953 17.592 12.927 22.03.973.542 1.47 1.661 1.221 2.746-.464 2.012-.917 3.864-1.386 5.662-5.004 19.163-22.116 32.207-41.524 32.207zm-33.675-25.394c5.967 11.41 17.382 19.099 30.26 20.242 18.519 1.654 35.387-10.266 40.1-28.319.316-1.213.626-2.454.937-3.754-8.596-5.523-13.86-15.095-13.86-25.42v-21.857c0-8.146-.956-16.906-1.969-26.181-2.682-24.563-5.721-52.403 5.885-86.295.363-1.06-.344-1.621-.664-1.813-.319-.192-1.143-.547-1.899.267-13.636 14.634-45.353 55.529-45.353 119.022v27.419c0 10.63-4.983 20.449-13.437 26.689zm72.78-7.445h.01z"/></g></g></g></svg>