<?xml version="1.0" encoding="UTF-8" standalone="no"?>
<!-- Created with Inkscape (http://www.inkscape.org/) -->

<svg
   version="1.1"
   id="svg10668"
   xml:space="preserve"
   width="682.66669"
   height="682.66669"
   viewBox="0 0 682.66669 682.66669"
   xmlns="http://www.w3.org/2000/svg"
   xmlns:svg="http://www.w3.org/2000/svg"><defs
     id="defs10672"><clipPath
       clipPathUnits="userSpaceOnUse"
       id="clipPath10682"><path
         d="M 0,512 H 512 V 0 H 0 Z"
         id="path10680" /></clipPath></defs><g
     id="g10674"
     transform="matrix(1.3333333,0,0,-1.3333333,0,682.66667)"><g
       id="g10676"><g
         id="g10678"
         clip-path="url(#clipPath10682)"><g
           id="g10684"
           transform="translate(436.7881,294.2207)"><path
             d="m 0,0 h -361.576 v 132.111 c 0,5.523 4.477,10 10,10 H -10 c 5.522,0 10,-4.477 10,-10 z"
             style="fill:#ffcf86;fill-opacity:1;fill-rule:nonzero;stroke:none"
             id="path10686" /></g><g
           id="g10688"
           transform="translate(436.79,426.335)"><path
             d="M 0,0 V -132.11 H -20.92 V 0 c 0,5.521 -4.47,10 -10,10 H -10 C -4.479,10 0,5.521 0,0"
             style="fill:#ffc366;fill-opacity:1;fill-rule:nonzero;stroke:none"
             id="path10690" /></g><g
           id="g10692"
           transform="translate(336.3027,436.332)"><path
             d="m 0,0 h -251.091 c -5.522,0 -10,-4.478 -10,-10 V -142.111 H 100.485 V -10 c 0,5.522 -4.477,10 -10,10 h -55.09"
             style="fill:none;stroke:#000000;stroke-width:15;stroke-linecap:round;stroke-linejoin:round;stroke-miterlimit:10;stroke-dasharray:none;stroke-opacity:1"
             id="path10694" /></g><g
           id="g10696"
           transform="translate(455.5566,256.5508)"><path
             d="m 0,0 h -399.113 l 9.477,35.096 c 3.259,12.068 14.207,20.452 26.708,20.452 h 326.742 c 12.501,0 23.45,-8.384 26.708,-20.452 z"
             style="fill:#5290da;fill-opacity:1;fill-rule:nonzero;stroke:none"
             id="path10698" /></g><g
           id="g10700"
           transform="translate(455.5605,256.5547)"><path
             d="m 0,0 h -25.271 l -9.479,35.09 c -3.261,12.07 -14.211,20.45 -26.711,20.45 h 25.271 c 12.5,0 23.45,-8.38 26.71,-20.45 z"
             style="fill:#0473cf;fill-opacity:1;fill-rule:nonzero;stroke:none"
             id="path10702" /></g><g
           id="g10704"
           transform="translate(455.5566,256.5508)"><path
             d="m 0,0 h -399.113 l 9.477,35.096 c 3.259,12.068 14.207,20.452 26.708,20.452 h 326.742 c 12.501,0 23.45,-8.384 26.708,-20.452 z"
             style="fill:none;stroke:#000000;stroke-width:15;stroke-linecap:round;stroke-linejoin:round;stroke-miterlimit:10;stroke-dasharray:none;stroke-opacity:1"
             id="path10706" /></g><g
           id="g10708"
           transform="translate(484.8291,175.3457)"><path
             d="m 0,0 h -457.658 v 48.537 c 0,25.457 20.637,46.094 46.094,46.094 H -46.907 C -21.001,94.631 0,73.994 0,48.537 Z"
             style="fill:#c9f1fe;fill-opacity:1;fill-rule:nonzero;stroke:none"
             id="path10710" /></g><g
           id="g10712"
           transform="translate(484.8301,223.8848)"><path
             d="M 0,0 V -48.54 H -22.65 V 0 c 0,25.45 -21,46.09 -46.911,46.09 H -46.91 C -21,46.09 0,25.45 0,0"
             style="fill:#9ae7fd;fill-opacity:1;fill-rule:nonzero;stroke:none"
             id="path10714" /></g><g
           id="g10716"
           transform="translate(27.1709,175.3457)"><path
             d="m 0,0 v 48.537 c 0,25.457 20.637,46.094 46.094,46.094 h 364.657 c 25.906,0 46.907,-20.637 46.907,-46.094 V 0"
             style="fill:none;stroke:#000000;stroke-width:15;stroke-linecap:round;stroke-linejoin:round;stroke-miterlimit:10;stroke-dasharray:none;stroke-opacity:1"
             id="path10718" /></g><path
           d="M 461,101.409 H 54.297 v 59.589 H 461 Z"
           style="fill:#83aee4;fill-opacity:1;fill-rule:nonzero;stroke:none"
           id="path10720" /><g
           id="g10722"
           transform="translate(437.542,101.4092)"><path
             d="M 0,0 H -362.43"
             style="fill:none;stroke:#000000;stroke-width:15;stroke-linecap:round;stroke-linejoin:round;stroke-miterlimit:10;stroke-dasharray:none;stroke-opacity:1"
             id="path10724" /></g><g
           id="g10726"
           transform="translate(61.458,75.665)"><path
             d="m 0,0 h -26.322 c -5.524,0 -10,4.478 -10,10 V 78.667 H 10 V 10 C 10,4.478 5.523,0 0,0"
             style="fill:#ffb045;fill-opacity:1;fill-rule:nonzero;stroke:none"
             id="path10728" /></g><g
           id="g10730"
           transform="translate(71.46,154.335)"><path
             d="m 0,0 v -68.67 c 0,-5.52 -4.479,-10 -10,-10 h -18 c 5.521,0 10,4.48 10,10 V 0 Z"
             style="fill:#fb9300;fill-opacity:1;fill-rule:nonzero;stroke:none"
             id="path10732" /></g><g
           id="g10734"
           transform="translate(61.458,75.665)"><path
             d="m 0,0 h -26.322 c -5.524,0 -10,4.478 -10,10 V 78.667 H 10 V 10 C 10,4.478 5.523,0 0,0 Z"
             style="fill:none;stroke:#000000;stroke-width:15;stroke-linecap:round;stroke-linejoin:round;stroke-miterlimit:10;stroke-dasharray:none;stroke-opacity:1"
             id="path10736" /></g><g
           id="g10738"
           transform="translate(476.8643,75.665)"><path
             d="m 0,0 h -26.322 c -5.524,0 -10,4.478 -10,10 V 78.667 H 10 V 10 C 10,4.478 5.523,0 0,0"
             style="fill:#ffb045;fill-opacity:1;fill-rule:nonzero;stroke:none"
             id="path10740" /></g><g
           id="g10742"
           transform="translate(486.8594,154.335)"><path
             d="m 0,0 v -68.67 c 0,-5.52 -4.469,-10 -10,-10 h -18 c 5.531,0 10,4.48 10,10 V 0 Z"
             style="fill:#fb9300;fill-opacity:1;fill-rule:nonzero;stroke:none"
             id="path10744" /></g><g
           id="g10746"
           transform="translate(476.8643,75.665)"><path
             d="m 0,0 h -26.322 c -5.524,0 -10,4.478 -10,10 V 78.667 H 10 V 10 C 10,4.478 5.523,0 0,0 Z"
             style="fill:none;stroke:#000000;stroke-width:15;stroke-linecap:round;stroke-linejoin:round;stroke-miterlimit:10;stroke-dasharray:none;stroke-opacity:1"
             id="path10748" /></g><g
           id="g10750"
           transform="translate(494.5,143.25)"><path
             d="m 0,0 h -477 c -5.522,0 -10,4.477 -10,10 v 41.167 c 0,5.522 4.478,10 10,10 H 0 c 5.522,0 10,-4.478 10,-10 V 10 C 10,4.477 5.522,0 0,0"
             style="fill:#ffcf86;fill-opacity:1;fill-rule:nonzero;stroke:none"
             id="path10752" /></g><g
           id="g10754"
           transform="translate(504.5,194.415)"><path
             d="m 0,0 v -41.17 c 0,-5.52 -4.48,-10 -10,-10 h -19.33 c 5.519,0 10,4.48 10,10 V 0 c 0,5.521 -4.481,10 -10,10 H -10 C -4.48,10 0,5.521 0,0"
             style="fill:#ffc366;fill-opacity:1;fill-rule:nonzero;stroke:none"
             id="path10756" /></g><g
           id="g10758"
           transform="translate(101.3027,204.417)"><path
             d="m 0,0 h -83.803 c -5.522,0 -10,-4.478 -10,-10 v -41.167 c 0,-5.523 4.478,-10 10,-10 h 477 c 5.524,0 10,4.477 10,10 V -10 c 0,5.522 -4.476,10 -10,10 H 35.395"
             style="fill:none;stroke:#000000;stroke-width:15;stroke-linecap:round;stroke-linejoin:round;stroke-miterlimit:10;stroke-dasharray:none;stroke-opacity:1"
             id="path10760" /></g><g
           id="g10762"
           transform="translate(220.0508,300.9531)"><path
             d="m 0,0 h -96.77 c -5.685,0 -10.294,4.609 -10.294,10.296 v 51.05 c 0,5.685 4.609,10.295 10.294,10.295 H 0 c 5.686,0 10.295,-4.61 10.295,-10.295 V 10.296 C 10.295,4.609 5.686,0 0,0"
             style="fill:#c9f1fe;fill-opacity:1;fill-rule:nonzero;stroke:none"
             id="path10764" /></g><g
           id="g10766"
           transform="translate(230.3496,362.2949)"><path
             d="m 0,0 v -51.05 c 0,-5.68 -4.609,-10.29 -10.3,-10.29 h -21 c 5.691,0 10.3,4.61 10.3,10.29 V 0 c 0,5.69 -4.609,10.3 -10.3,10.3 h 21 C -4.609,10.3 0,5.69 0,0"
             style="fill:#9ae7fd;fill-opacity:1;fill-rule:nonzero;stroke:none"
             id="path10768" /></g><g
           id="g10770"
           transform="translate(230.3457,356.6973)"><path
             d="m 0,0 v 5.602 c 0,5.685 -4.609,10.294 -10.295,10.294 h -96.769 c -5.686,0 -10.295,-4.609 -10.295,-10.294 v -51.05 c 0,-5.687 4.609,-10.296 10.295,-10.296 h 96.769 c 5.686,0 10.295,4.609 10.295,10.296 v 10.053"
             style="fill:none;stroke:#000000;stroke-width:15;stroke-linecap:round;stroke-linejoin:round;stroke-miterlimit:10;stroke-dasharray:none;stroke-opacity:1"
             id="path10772" /></g><g
           id="g10774"
           transform="translate(388.7187,300.9531)"><path
             d="m 0,0 h -96.77 c -5.685,0 -10.294,4.609 -10.294,10.296 v 51.05 c 0,5.685 4.609,10.295 10.294,10.295 H 0 c 5.686,0 10.295,-4.61 10.295,-10.295 V 10.296 C 10.295,4.609 5.686,0 0,0"
             style="fill:#c9f1fe;fill-opacity:1;fill-rule:nonzero;stroke:none"
             id="path10776" /></g><g
           id="g10778"
           transform="translate(399.0098,362.2949)"><path
             d="m 0,0 v -51.05 c 0,-5.68 -4.609,-10.29 -10.29,-10.29 h -21 c 5.681,0 10.29,4.61 10.29,10.29 V 0 c 0,5.69 -4.609,10.3 -10.29,10.3 h 21 C -4.609,10.3 0,5.69 0,0"
             style="fill:#9ae7fd;fill-opacity:1;fill-rule:nonzero;stroke:none"
             id="path10780" /></g><g
           id="g10782"
           transform="translate(388.7187,300.9531)"><path
             d="m 0,0 h -96.77 c -5.685,0 -10.294,4.609 -10.294,10.296 v 51.05 c 0,5.685 4.609,10.295 10.294,10.295 H 0 c 5.686,0 10.295,-4.61 10.295,-10.295 V 10.296 C 10.295,4.609 5.686,0 0,0 Z"
             style="fill:none;stroke:#000000;stroke-width:15;stroke-linecap:round;stroke-linejoin:round;stroke-miterlimit:10;stroke-dasharray:none;stroke-opacity:1"
             id="path10784" /></g></g></g></g></svg>
