<?xml version="1.0" encoding="UTF-8" standalone="no"?>
<!-- Created with Inkscape (http://www.inkscape.org/) -->

<svg
   version="1.1"
   id="svg4365"
   xml:space="preserve"
   width="682.66669"
   height="682.66669"
   viewBox="0 0 682.66669 682.66669"
   xmlns="http://www.w3.org/2000/svg"
   xmlns:svg="http://www.w3.org/2000/svg"><defs
     id="defs4369"><clipPath
       clipPathUnits="userSpaceOnUse"
       id="clipPath4379"><path
         d="M 0,512 H 512 V 0 H 0 Z"
         id="path4377" /></clipPath></defs><g
     id="g4371"
     transform="matrix(1.3333333,0,0,-1.3333333,0,682.66667)"><g
       id="g4373"><g
         id="g4375"
         clip-path="url(#clipPath4379)"><g
           id="g4381"
           transform="translate(464.7104,374.5967)"><path
             d="m 0,0 v 23.295 c 0,7.146 -5.847,12.994 -12.994,12.994 h -63.524 c -7.146,0 -12.993,-5.848 -12.993,-12.994 V 0 Z"
             style="fill:#d9e7ec;fill-opacity:1;fill-rule:nonzero;stroke:none"
             id="path4383" /></g><g
           id="g4385"
           transform="translate(110.6113,410.8853)"><path
             d="m 0,0 h -37.151 c -7.147,0 -12.994,-5.847 -12.994,-12.994 v -23.295 h 63.139 v 23.295 C 12.994,-5.847 7.146,0 0,0"
             style="fill:#d9e7ec;fill-opacity:1;fill-rule:nonzero;stroke:none"
             id="path4387" /></g><g
           id="g4389"
           transform="translate(197.3013,374.5967)"><path
             d="m 0,0 v 44.771 c 0,4.615 -3.776,8.391 -8.392,8.391 h -23.28 c -4.616,0 -8.391,-3.776 -8.391,-8.391 V 0 Z"
             style="fill:#d9e7ec;fill-opacity:1;fill-rule:nonzero;stroke:none"
             id="path4391" /></g><g
           id="g4393"
           transform="translate(419.6733,410.8853)"><path
             d="m 0,0 h -31.48 c -7.147,0 -12.994,-5.847 -12.994,-12.994 v -23.295 h 31.48 v 23.295 C -12.994,-5.847 -7.146,0 0,0"
             style="fill:#c4d2dd;fill-opacity:1;fill-rule:nonzero;stroke:none"
             id="path4395" /></g><g
           id="g4397"
           transform="translate(104.9404,410.8853)"><path
             d="m 0,0 h -31.48 c -7.147,0 -12.994,-5.847 -12.994,-12.994 v -23.295 h 31.48 v 23.295 C -12.994,-5.847 -7.146,0 0,0"
             style="fill:#c4d2dd;fill-opacity:1;fill-rule:nonzero;stroke:none"
             id="path4399" /></g><g
           id="g4401"
           transform="translate(185.8794,427.7588)"><path
             d="m 0,0 h -20.25 c -4.616,0 -8.392,-3.776 -8.392,-8.392 v -44.77 h 20.25 v 44.77 C -8.392,-3.776 -4.616,0 0,0"
             style="fill:#c4d2dd;fill-opacity:1;fill-rule:nonzero;stroke:none"
             id="path4403" /></g><g
           id="g4405"
           transform="translate(491.5512,376.5967)"><path
             d="m 0,0 h -471.017 c -7.146,0 -12.993,-5.847 -12.993,-12.994 v -73.757 h 198.376 c 15.064,7.615 32.093,11.91 50.126,11.91 18.033,0 35.061,-4.295 50.125,-11.91 H 12.994 v 73.757 C 12.994,-5.847 7.146,0 0,0"
             style="fill:#e8f9fc;fill-opacity:1;fill-rule:nonzero;stroke:none"
             id="path4407" /></g><g
           id="g4409"
           transform="translate(64.6601,376.5967)"><path
             d="m 0,0 h -44.125 c -7.147,0 -12.994,-5.847 -12.994,-12.994 v -73.757 h 44.125 v 73.757 C -12.994,-5.847 -7.146,0 0,0"
             style="fill:#d9e7ec;fill-opacity:1;fill-rule:nonzero;stroke:none"
             id="path4411" /></g><g
           id="g4413"
           transform="translate(187.4477,114.8086)"><path
             d="m 0,0 c -21.349,20.272 -34.662,48.926 -34.662,80.69 0,43.413 24.867,81.013 61.132,99.347 H -179.907 V 0 Z"
             style="fill:#ffb640;fill-opacity:1;fill-rule:nonzero;stroke:none"
             id="path4415" /></g><path
           d="M 7.541,114.809 H 51.666 V 294.846 H 7.541 Z"
           style="fill:#ffa90f;fill-opacity:1;fill-rule:nonzero;stroke:none"
           id="path4417" /><g
           id="g4419"
           transform="translate(361.3003,195.4986)"><path
             d="M 0,0 C 0,-31.764 -13.313,-60.418 -34.663,-80.69 H 143.245 V 99.347 H -61.132 C -24.867,81.013 0,43.413 0,0"
             style="fill:#ffb640;fill-opacity:1;fill-rule:nonzero;stroke:none"
             id="path4421" /></g><g
           id="g4423"
           transform="translate(7.541,97.2349)"><path
             d="m 0,0 c 0,-7.146 5.847,-12.994 12.994,-12.994 h 235.508 c -30.713,0 -47.519,12.446 -67.651,32.568 L 0,19.574 Z"
             style="fill:#e8f9fc;fill-opacity:1;fill-rule:nonzero;stroke:none"
             id="path4425" /></g><g
           id="g4427"
           transform="translate(51.6665,97.2349)"><path
             d="M 0,0 V 19.574 H -44.125 V 0 c 0,-7.146 5.847,-12.994 12.993,-12.994 H 12.994 C 5.847,-12.994 0,-7.146 0,0"
             style="fill:#d9e7ec;fill-opacity:1;fill-rule:nonzero;stroke:none"
             id="path4429" /></g><g
           id="g4431"
           transform="translate(328.6938,116.8086)"><path
             d="m 0,0 c -20.132,-20.122 -41.938,-32.567 -72.651,-32.567 h 235.508 c 7.147,0 12.994,5.847 12.994,12.993 l 0,19.574 z"
             style="fill:#e8f9fc;fill-opacity:1;fill-rule:nonzero;stroke:none"
             id="path4433" /></g><g
           id="g4435"
           transform="translate(367.3003,195.4986)"><path
             d="m 0,0 c 0,-61.446 -49.812,-111.257 -111.257,-111.257 -61.446,0 -111.258,49.811 -111.258,111.257 0,61.446 49.812,111.257 111.258,111.257 C -49.812,111.257 0,61.446 0,0"
             style="fill:#7b6c79;fill-opacity:1;fill-rule:nonzero;stroke:none"
             id="path4437" /></g><g
           id="g4439"
           transform="translate(184.1723,195.4986)"><path
             d="m 0,0 c 0,54.726 39.512,100.223 91.564,109.52 -6.392,1.142 -12.973,1.737 -19.693,1.737 C 10.425,111.257 -39.387,61.446 -39.387,0 c 0,-61.446 49.812,-111.257 111.258,-111.257 6.72,0 13.301,0.595 19.693,1.737 C 39.512,-100.222 0,-54.726 0,0"
             style="fill:#665e68;fill-opacity:1;fill-rule:nonzero;stroke:none"
             id="path4441" /></g><g
           id="g4443"
           transform="translate(470.8462,351.3008)"><path
             d="m 0,0 h -66.945 c -3.717,0 -6.73,-3.013 -6.73,-6.73 v -17.7 c 0,-3.717 3.013,-6.73 6.73,-6.73 H 0 c 3.717,0 6.73,3.013 6.73,6.73 v 17.7 C 6.73,-3.013 3.717,0 0,0"
             style="fill:#7b6c79;fill-opacity:1;fill-rule:nonzero;stroke:none"
             id="path4445" /></g><g
           id="g4447"
           transform="translate(430.1709,326.8706)"><path
             d="m 0,0 v 17.7 c 0,3.717 3.013,6.73 6.73,6.73 h -33 C -29.987,24.43 -33,21.417 -33,17.7 V 0 c 0,-3.717 3.013,-6.729 6.73,-6.729 h 33 C 3.013,-6.729 0,-3.717 0,0"
             style="fill:#665e68;fill-opacity:1;fill-rule:nonzero;stroke:none"
             id="path4449" /></g><g
           id="g4451"
           transform="translate(69.3618,326.8706)"><path
             d="m 0,0 v 17.7 c 0,3.717 -3.013,6.73 -6.73,6.73 h -18.581 c -3.716,0 -6.73,-3.013 -6.73,-6.73 V 0 c 0,-3.717 3.014,-6.729 6.73,-6.729 H -6.73 C -3.013,-6.729 0,-3.717 0,0"
             style="fill:#62ddfc;fill-opacity:1;fill-rule:nonzero;stroke:none"
             id="path4453" /></g><g
           id="g4455"
           transform="translate(256.0429,274.272)"><path
             d="m 0,0 c -43.436,0 -78.773,-35.338 -78.773,-78.773 0,-43.436 35.337,-78.774 78.773,-78.774 43.436,0 78.773,35.338 78.773,78.774 C 78.773,-35.338 43.436,0 0,0"
             style="fill:#62ddfc;fill-opacity:1;fill-rule:nonzero;stroke:none"
             id="path4457" /></g><g
           id="g4459"
           transform="translate(216.6562,195.4986)"><path
             d="m 0,0 c 0,36.638 25.143,67.514 59.08,76.281 -6.297,1.626 -12.896,2.492 -19.693,2.492 -43.436,0 -78.774,-35.337 -78.774,-78.773 0,-43.436 35.338,-78.773 78.774,-78.773 6.797,0 13.396,0.866 19.693,2.493 C 25.143,-67.514 0,-36.638 0,0"
             style="fill:#00d2fc;fill-opacity:1;fill-rule:nonzero;stroke:none"
             id="path4461" /></g><g
           id="g4463"
           transform="translate(256.0429,234.8853)"><path
             d="m 0,0 c -21.718,0 -39.387,-17.669 -39.387,-39.387 0,-21.717 17.669,-39.386 39.387,-39.386 21.718,0 39.387,17.669 39.387,39.386 C 39.387,-17.669 21.718,0 0,0"
             style="fill:#00d2fc;fill-opacity:1;fill-rule:nonzero;stroke:none"
             id="path4465" /></g><g
           id="g4467"
           transform="translate(256.0429,195.4986)"><path
             d="M 0,0 C 0,14.546 7.933,27.267 19.693,34.088 13.895,37.451 7.171,39.387 0,39.387 -21.718,39.387 -39.387,21.718 -39.387,0 c 0,-21.718 17.669,-39.387 39.387,-39.387 7.171,0 13.895,1.936 19.693,5.299 C 7.933,-27.267 0,-14.546 0,0"
             style="fill:#00c2fb;fill-opacity:1;fill-rule:nonzero;stroke:none"
             id="path4469" /></g><g
           id="g4471"
           transform="translate(144.7427,195.4986)"><path
             d="M 0,0 C 0,43.413 24.867,81.013 61.132,99.347 H -137.245 V -98.264 c 0,-7.146 5.848,-12.993 12.994,-12.993 H 111.257 C 49.812,-111.257 0,-61.446 0,0 Z"
             style="fill:none;stroke:#000000;stroke-width:15;stroke-linecap:round;stroke-linejoin:round;stroke-miterlimit:10;stroke-dasharray:none;stroke-opacity:1"
             id="path4473" /></g><g
           id="g4475"
           transform="translate(367.2573,195.4986)"><path
             d="m 0,0 c 0,-61.446 -49.812,-111.257 -111.257,-111.257 -61.446,0 -111.258,49.811 -111.258,111.257 0,61.446 49.812,111.257 111.258,111.257 C -49.812,111.257 0,61.446 0,0 Z"
             style="fill:none;stroke:#000000;stroke-width:15;stroke-linecap:round;stroke-linejoin:round;stroke-miterlimit:10;stroke-dasharray:none;stroke-opacity:1"
             id="path4477" /></g><g
           id="g4479"
           transform="translate(256,274.272)"><path
             d="m 0,0 c -43.436,0 -78.773,-35.338 -78.773,-78.773 0,-43.436 35.337,-78.774 78.773,-78.774 43.436,0 78.773,35.338 78.773,78.774 C 78.773,-35.338 43.436,0 0,0 Z"
             style="fill:none;stroke:#000000;stroke-width:15;stroke-linecap:round;stroke-linejoin:round;stroke-miterlimit:10;stroke-dasharray:none;stroke-opacity:1"
             id="path4481" /></g><g
           id="g4483"
           transform="translate(256,234.8853)"><path
             d="m 0,0 c -21.718,0 -39.387,-17.669 -39.387,-39.387 0,-21.717 17.669,-39.386 39.387,-39.386 21.718,0 39.387,17.669 39.387,39.386 C 39.387,-17.669 21.718,0 0,0 Z"
             style="fill:none;stroke:#000000;stroke-width:15;stroke-linecap:round;stroke-linejoin:round;stroke-miterlimit:10;stroke-dasharray:none;stroke-opacity:1"
             id="path4485" /></g><g
           id="g4487"
           transform="translate(7.498,97.2349)"><path
             d="m 0,0 c 0,-7.146 5.847,-12.994 12.994,-12.994 h 235.508 c -30.713,0 -58.519,12.446 -78.651,32.568 L 0,19.574 Z"
             style="fill:none;stroke:#000000;stroke-width:15;stroke-linecap:round;stroke-linejoin:round;stroke-miterlimit:10;stroke-dasharray:none;stroke-opacity:1"
             id="path4489" /></g><g
           id="g4491"
           transform="translate(334.6508,116.8086)"><path
             d="m 0,0 c -20.132,-20.122 -47.938,-32.567 -78.651,-32.567 h 235.508 c 7.147,0 12.994,5.847 12.994,12.993 l 0,19.574 z"
             style="fill:none;stroke:#000000;stroke-width:15;stroke-linecap:round;stroke-linejoin:round;stroke-miterlimit:10;stroke-dasharray:none;stroke-opacity:1"
             id="path4493" /></g><g
           id="g4495"
           transform="translate(464.6679,376.5967)"><path
             d="m 0,0 v 21.295 c 0,7.146 -5.847,12.994 -12.994,12.994 h -63.524 c -7.147,0 -12.993,-5.848 -12.993,-12.994 V 0 Z"
             style="fill:none;stroke:#000000;stroke-width:15;stroke-linecap:round;stroke-linejoin:round;stroke-miterlimit:10;stroke-dasharray:none;stroke-opacity:1"
             id="path4497" /></g><g
           id="g4499"
           transform="translate(110.5688,410.8853)"><path
             d="m 0,0 h -37.152 c -7.146,0 -12.994,-5.847 -12.994,-12.994 v -21.295 h 63.139 v 21.295 C 12.993,-5.847 7.146,0 0,0 Z"
             style="fill:none;stroke:#000000;stroke-width:15;stroke-linecap:round;stroke-linejoin:round;stroke-miterlimit:10;stroke-dasharray:none;stroke-opacity:1"
             id="path4501" /></g><g
           id="g4503"
           transform="translate(197.2583,376.5967)"><path
             d="m 0,0 v 42.771 c 0,4.615 -3.776,8.391 -8.392,8.391 h -23.28 c -4.615,0 -8.391,-3.776 -8.391,-8.391 V 0 Z"
             style="fill:none;stroke:#000000;stroke-width:15;stroke-linecap:round;stroke-linejoin:round;stroke-miterlimit:10;stroke-dasharray:none;stroke-opacity:1"
             id="path4505" /></g><g
           id="g4507"
           transform="translate(470.8037,351.3008)"><path
             d="m 0,0 h -66.946 c -3.717,0 -6.729,-3.013 -6.729,-6.73 v -17.7 c 0,-3.717 3.012,-6.73 6.729,-6.73 H 0 c 3.717,0 6.729,3.013 6.729,6.73 v 17.7 C 6.729,-3.013 3.717,0 0,0 Z"
             style="fill:none;stroke:#000000;stroke-width:15;stroke-linecap:round;stroke-linejoin:round;stroke-miterlimit:10;stroke-dasharray:none;stroke-opacity:1"
             id="path4509" /></g><g
           id="g4511"
           transform="translate(69.3188,326.8706)"><path
             d="m 0,0 v 17.7 c 0,3.717 -3.013,6.73 -6.73,6.73 h -18.581 c -3.716,0 -6.729,-3.013 -6.729,-6.73 V 0 c 0,-3.717 3.013,-6.729 6.729,-6.729 H -6.73 C -3.013,-6.729 0,-3.717 0,0 Z"
             style="fill:none;stroke:#000000;stroke-width:15;stroke-linecap:round;stroke-linejoin:round;stroke-miterlimit:10;stroke-dasharray:none;stroke-opacity:1"
             id="path4513" /></g><g
           id="g4515"
           transform="translate(99.4043,335.7207)"><path
             d="M 0,0 H 61.719"
             style="fill:none;stroke:#000000;stroke-width:15;stroke-linecap:round;stroke-linejoin:round;stroke-miterlimit:10;stroke-dasharray:none;stroke-opacity:1"
             id="path4517" /></g><g
           id="g4519"
           transform="translate(238.5,376.5967)"><path
             d="m 0,0 h -218.008 c -7.147,0 -12.994,-5.847 -12.994,-12.994 v -68.757 h 198.377 c 15.063,7.615 32.092,11.91 50.125,11.91 18.033,0 35.062,-4.295 50.125,-11.91 h 198.377 v 68.757 C 266.002,-5.847 260.155,0 253.008,0 H 35"
             style="fill:none;stroke:#000000;stroke-width:15;stroke-linecap:round;stroke-linejoin:round;stroke-miterlimit:10;stroke-dasharray:none;stroke-opacity:1"
             id="path4521" /></g><g
           id="g4523"
           transform="translate(504.5019,221.5)"><path
             d="m 0,0 v 73.345 h -198.376 c 36.264,-18.333 61.131,-55.934 61.131,-99.346 0,-61.446 -49.811,-111.258 -111.257,-111.258 h 235.508 c 7.147,0 12.994,5.847 12.994,12.994 V -35"
             style="fill:none;stroke:#000000;stroke-width:15;stroke-linecap:round;stroke-linejoin:round;stroke-miterlimit:10;stroke-dasharray:none;stroke-opacity:1"
             id="path4525" /></g></g></g></g></svg>
