<svg id="Layer_1" height="512" viewBox="0 0 512 512" width="512" xmlns="http://www.w3.org/2000/svg" data-name="Layer 1"><path d="m450.658 111h-370.941a19.528 19.528 0 0 0 -19.4 17.374v-49.537a22 22 0 1 0 -21 0v385.163a10.5 10.5 0 0 0 21 0v-100.374a19.528 19.528 0 0 0 19.4 17.374h370.941a19.529 19.529 0 0 0 19.529-19.529v-230.942a19.529 19.529 0 0 0 -19.529-19.529z" fill="#2e4593"/><path d="m451.118 381h-371.861c-10.532 0-19.07-8.954-19.07-20v-230c0-11.046 8.538-20 19.07-20h371.861c10.532 0 19.069 8.954 19.069 20v230c0 11.046-8.537 20-19.069 20z" fill="#fff"/><g fill="#28292b"><path d="m114.882 172.898 42.92-45.296 9.597 9.999-42.913 45.309z"/><path d="m128.685 187.62 42.913-45.309 9.609 10.012-42.919 45.302z"/><path d="m142.077 201.715 42.908-45.296 9.603 10-42.913 45.309z"/><path d="m360.404 299.684 16.857-17.813 9.603 10.02-16.869 17.844z"/><path d="m343.945 337.186-9.615-10.011 16.507-17.44 9.567 10.037z"/><path d="m374.357 314.254 16.7-17.649 9.592 10.007-16.725 17.686z"/><path d="m357.765 351.895-9.603-10.012 16.616-17.585 9.579 10.051z"/><path d="m397.372 338.324-9.58-10.044 16.64-17.578 9.592 10.011z"/><path d="m371.164 366.022-9.603-10.018 16.689-17.636 9.578 10.038z"/><path d="m398.515 153.329 16.978 17.686-9.542 10.082-17.014-17.719z"/><path d="m362.766 136.053 9.555-10.075 16.616 17.313-9.567 10.038z"/><path d="m348.764 150.553 9.543-10.075 43.136 44.999-9.53 10.082z"/><path d="m361.681 192.108 9.579-10.038 16.76 17.439-9.542 10.076z"/><path d="m335.293 164.617 9.543-10.082 16.821 17.515-9.591 10.045z"/><path d="m142.626 291.252 9.543-10.076 43.19 45.037-9.548 10.07z"/><path d="m164.495 323.16 16.821 17.522-9.549 10.075-16.851-17.546z"/><path d="m128.618 305.753 9.544-10.082 16.754 17.451-9.573 10.038z"/><path d="m115.153 319.81 9.538-10.069 43.185 44.973-9.544 10.076z"/></g><path d="m338.341 246.009c0 42.276-32.653 76.554-72.958 76.554s-72.963-34.278-72.963-76.554 32.665-76.559 72.963-76.559 72.958 34.272 72.958 76.559z" fill="#2e4593"/><path d="m337.969 246.016a74.715 74.715 0 0 1 -.736 10.7c-2.121-15.164-10.012-42.528-39.895-43.052-21.845 0-29.339 10.183-33.943 22.212-6.675 17.383-7.4 38.546-36.737 38.546-21.569 0-30.913-12.781-34.576-27.276a8.924 8.924 0 0 1 -.048-1.131 79.137 79.137 0 0 1 8.537-35.947c12.277-24.154 36.515-40.632 64.451-40.632 40.256.001 72.947 34.286 72.947 76.58z" fill="#db2e2e"/><path d="m470.187 361c0 11.046-7.981 20-17.826 20h-187.174s30.305-.5 30.305-135-30.305-135-30.305-135h187.174c9.845 0 17.826 8.954 17.826 20z" fill="#1a1a1a" opacity=".15"/></svg>