<svg height="512pt" viewBox="0 -50 512.00054 512" width="512pt" xmlns="http://www.w3.org/2000/svg"><path d="m455.457031 280.996094c-.082031-.332032-.195312-.636719-.335937-.941406-.464844-1.023438-1.179688-1.785157-1.757813-2.398438l-13.816406-14.625 1.066406-1.355469c1.21875-1.550781 1.667969-3.425781 1.921875-4.886719.746094-4.429687.332032-9.027343-1.203125-13.292968l-.929687-2.59375 2.753906-.082032c.765625-.019531 1.554688-.039062 2.34375-.039062 2.542969 0 5.792969.183594 8.398438 1.632812 1.886718 1.050782 3.550781 2.851563 5.015624 4.441407l20.730469 22.429687c2.359375 2.550782 4.796875 5.191406 6.601563 8.15625l1.683594 2.777344-3.234376.257812c-8.644531.6875-17.785156 1.367188-27.160156 2.019532l-1.664062.117187zm0 0" fill="#fff"/><path d="m427.917969 283.359375c-.332031-.5-.703125-.964844-1.027344-1.371094l-12.136719-14.878906 2.042969-1.175781c1.363281-.78125 2.445313-1.828125 3.128906-3.023438.433594-.738281.738281-1.527344.949219-2.4375l.777344-3.386718 2.539062 2.375c1.523438 1.425781 3.109375 2.550781 4.851563 3.4375 1.761719.910156 3.613281 1.410156 5.351562 1.453124l.832031.019532 17.425782 18.453125-4.25.273437c-6.234375.398438-12.457032.789063-18.703125 1.148438l-1.144531.066406zm0 0" fill="#fff"/><path d="m391.375 284.878906c-.269531-.613281-.59375-1.1875-.878906-1.695312l-23.179688-40.398438 4.167969-.09375c5.980469-.132812 11.960937-.265625 17.933594-.410156l1.984375-.050781.0625 1.988281c.269531 8.847656 5.703125 17.382812 13.523437 21.238281 1.277344.628907 2.578125 1.101563 3.867188 1.40625l.816406.191407.5625.9375 13.527344 16.582031-3.929688.210937c-8.332031.453125-17.015625.871094-26.539062 1.28125l-1.363281.058594zm0 0" fill="#fff"/><path d="m358.65625 286.320312c-.296875-.492187-.597656-.964843-.867188-1.378906l-12.265624-18.492187 1.8125-1.074219c1.492187-.878906 2.761718-2.054688 3.675781-3.390625 1.980469-2.953125 2.59375-6.886719 1.714843-11.074219-.328124-1.558594-.867187-3.207031-1.648437-5.03125l-1.171875-2.726562 5.925781-.121094c1.886719-.039062 3.773438-.074219 5.664063-.121094l1.191406-.03125 24.917969 43.441406-3.304688.128907c-8.46875.328125-16.277343.601562-23.875.828125l-1.164062.035156zm0 0" fill="#fff"/><path d="m329.859375 286.527344-11.289063-17.910156 1.992188-.980469c2.0625-1.019531 3.808594-2.746094 5.035156-4.996094l1.269532-2.316406 1.886718 1.847656c2.21875 2.171875 4.683594 3.683594 7.320313 4.484375 1.304687.398438 2.691406.605469 4.125.613281l1.257812.007813.535157 1.140625c.074218.152343.105468.230469.148437.300781l12.4375 18.730469-3.609375.097656c-6.355469.171875-12.699219.3125-19.054688.441406l-1.148437.023438zm0 0" fill="#fff"/><path d="m299.828125 286.964844c-.359375-1.195313-.816406-2.289063-1.292969-3.394532l-4.933594-11.582031 2.03125-.699219c3.132813-1.082031 5.8125-3.640624 7.351563-7.019531l1.226563-2.6875 2.039062 2.136719c2.125 2.222656 4.402344 3.71875 6.773438 4.449219l.929687.285156.347656.90625c.070313.179687.140625.332031.21875.460937l11.515625 18.277344-3.5625.050782c-6.128906.089843-13.378906.1875-20.714844.242187l-1.5.011719zm0 0" fill="#fff"/><path d="m283.003906 288.449219c-6.746094 0-13.585937-.027344-20.335937-.078125l-2.011719-.015625.617188-43.851563 14.257812-.167968.0625 1.960937c.152344 4.859375.34375 10.90625 2.902344 16.226563 1.972656 4.113281 5.675781 7.472656 9.660156 8.777343l.863281.28125 5.785157 13.574219.191406.476562 1.214844 2.785157-3.039063.011719c-3.386719.011718-6.777344.019531-10.167969.019531zm0 0" fill="#fff"/><path d="m254.605469 288.300781c-10.386719-.109375-20.917969-.292969-31.308594-.539062l-2.382813-.058594.511719-2.5625c.054688-.269531.105469-.539063.175781-.804687.269532-.988282.609376-1.984376.9375-2.917969.753907-2.214844 1.539063-4.519531 1.554688-7.019531l.011719-1.226563 1.09375-.550781c.40625-.203125.757812-.398438 1.074219-.597656 8.359374-5.171876 13.457031-15.285157 12.695312-25.179688l-.164062-2.136719 18.398437-.152343-.605469 43.765624zm0 0" fill="#fff"/><path d="m215.113281 287.558594c-6.484375-.164063-13.589843-.382813-22.359375-.6875l-3.398437-.121094 8.628906-14.292969c.0625-.109375.121094-.226562.167969-.363281l.386718-1.074219 1.125-.214843c2.105469-.398438 4.300782-1.367188 6.722657-2.957032 1.371093-.890625 2.707031-1.886718 3.976562-2.964844l3.246094-2.753906.046875 4.257813c.03125 3.007812 1.050781 5.199219 3.019531 6.519531.523438.347656 1.117188.617188 1.765625.792969l1.746094.484375-.3125 1.789062c-.238281 1.371094-.722656 2.773438-1.1875 4.136719-.347656 1-.707031 2.070313-1.011719 3.195313-.203125.746093-.371093 1.5625-.535156 2.574218l-.28125 1.722656zm0 0" fill="#fff"/><path d="m183.527344 286.539062c-6.375-.25-12.757813-.53125-19.132813-.820312l-3.277343-.148438 23.394531-40.757812 1.167969.007812c2.6875.019532 5.304687.039063 7.921874.050782l3.851563.015625-2.226563 3.140625c-1.910156 2.695312-3.550781 5.59375-4.882812 8.621094-.671875 1.507812-2.707031 6.085937-.65625 10.003906.621094 1.183594 1.625 2.222656 2.90625 3l1.703125 1.035156-8.894531 14.742188-.109375.21875-.273438.308593-.621093.617188zm0 0" fill="#fff"/><path d="m155.335938 285.289062c-9.132813-.457031-18.421876-.972656-27.601563-1.535156l-3.714844-.222656 2.238281-2.972656c2.863282-3.808594 5.515626-7.5625 7.875-11.164063.023438-.039062.046876-.101562.078126-.15625l.34375-.695312.753906-.347657c.953125-.371093 1.855468-.808593 2.757812-1.332031 6.992188-4.023437 13.261719-9.539062 18.148438-15.953125.65625-.871094 2.003906-2.648437 2.265625-4.765625l.222656-1.800781 1.816406.046875c5.324219.140625 10.6875.25 15.9375.332031l3.390625.050782-23.289062 40.574218zm0 0" fill="#fff"/><path d="m118.007812 283.144531c-6.761718-.433593-12.863281-.851562-18.65625-1.269531l-3.84375-.277344 12.9375-15.828125.800782-.09375c3.628906-.4375 7.207031-2.109375 11.261718-5.265625l3.148438-2.449218.078125 3.988281c.039063 2.039062.621094 3.65625 1.777344 4.945312.53125.59375 1.117187 1.050781 1.785156 1.40625l1.996094 1.054688-1.285157 1.855469c-2.550781 3.679687-5.347656 7.441406-8.304687 11.179687l-.652344.824219zm0 0" fill="#fff"/><path d="m89.644531 281.15625c-6.574219-.492188-13.207031-1.015625-19.71875-1.5625l-4.574219-.382812 15.957032-14.511719c.078125-.074219.183594-.1875.269531-.300781l.597656-.796876 1.164063.003907c2.335937-.105469 4.414062-1.023438 6.3125-1.996094 2.253906-1.140625 4.476562-2.429687 6.613281-3.839844l2.972656-1.957031.125 3.554688c.023438.644531.15625 1.289062.386719 1.914062.402344 1.070312 1.144531 2.035156 2.144531 2.789062l1.667969 1.25-11.335938 13.894532c-.289062.335937-.519531.652344-.722656.984375l-.632812 1.046875zm0 0" fill="#fff"/><path d="m59.8125 278.722656c-11.507812-1.007812-22.925781-2.082031-33.929688-3.191406l-5.410156-.546875 43.777344-30.210937c.5-.34375.972656-.675782 1.433594-.996094l.535156-.375c4.429688-3.125 7.082031-5 12.167969-5 .179687 0 .363281.003906.546875.007812 2.113281.058594 4.402344.242188 7.203125.585938l4.890625.597656-3.921875 2.976562c-2.699219 2.054688-5.246094 4.347657-7.5625 6.816407-3.589844 3.835937-4.675781 7.769531-2.984375 10.785156.113281.199219.257812.390625.394531.582031l1.039063 1.449219-1.3125 1.207031-13.1875 12c-.457032.417969-1.226563 1.121094-1.683594 2.140625l-.582032 1.296875zm0 0" fill="#fff"/><path d="m200.894531 336.941406c-61.804687 0-117.640625-2.082031-170.699219-6.359375-2.398437-.199219-7.914062-.660156-12.523437-5.066406-4.394531-4.203125-5.226563-9.378906-5.582031-11.585937l-5.667969-35.019532c-.3125-1.933594-1.039063-6.441406 1.265625-11.304687 2.007812-4.246094 5.265625-6.480469 6.65625-7.433594l41.003906-28.296875c.550782-.382812 1.832032-1.285156 1.832032-1.285156 4.96875-3.503906 11.148437-7.859375 21.234374-7.859375.308594 0 .625 0 .917969.011719 5.117188.121093 10.039063.828124 14.796875 1.511718l.386719.054688c2.683594.390625 5.21875.761718 7.621094.992187 13.273437 1.289063 27.097656 2.226563 42.261719 2.863281 17.035156.722657 35.585937 1.058594 58.378906 1.058594 9.839844 0 19.746094-.066406 27.273437-.121094 70.203125-.488281 141.582031-1.8125 212.164063-3.9375 1.074218-.03125 2.152344-.0625 3.242187-.0625 4.109375 0 10.25.375 16.070313 3.613282 4.121094 2.304687 6.882812 5.308594 8.898437 7.503906l20.738281 22.425781c2.78125 3.003907 6.242188 6.746094 8.941407 11.425781 9.0625 15.765626 5.40625 33.808594 2.988281 45.75l-2.097656 10.355469-11.125.59375c-94.539063 5-192.296875 10.171875-288.964844 10.171875zm-122.5-102.597656c-6.398437 0-9.808593 2.40625-14.527343 5.738281-.382813.277344-.796876.566407-1.226563.863281l-.6875.480469-41.023437 28.300781c-.839844.582032-2.089844 1.453126-2.746094 2.839844-.757813 1.601563-.480469 3.324219-.296875 4.460938l5.671875 35.042968c.222656 1.410157.558594 3.535157 2.136718 5.042969 1.652344 1.578125 3.925782 1.765625 5.425782 1.890625 52.507812 4.234375 108.027344 6.292969 169.734375 6.292969 97.039062 0 194.589843-5.167969 288.925781-10.164063.976562-.046874 1.746094-.714843 1.933594-1.628906 2.070312-10.230468 5.199218-25.695312-1.671875-37.636718-2.042969-3.542969-4.773438-6.496094-7.417969-9.351563l-20.726562-22.417969c-1.667969-1.8125-3.558594-3.859375-6.027344-5.230468-3.425782-1.914063-7.324219-2.160157-10.339844-2.160157-1.03125 0-2.027344.03125-2.976562.058594-70.078126 2.121094-141.550782 3.449219-212.425782 3.953125-8.046875.054688-17.566406.109375-27.144531.109375-23.199219 0-41.972656-.335937-59.074219-1.0625-15.371094-.648437-29.402344-1.601563-42.898437-2.90625-2.660157-.257813-5.230469-.628906-8.316407-1.082031-4.46875-.648438-9.09375-1.320313-13.667968-1.429688-.214844-.003906-.425782-.003906-.632813-.003906zm0 0" fill="#939baa"/><path d="m48.289062 163.421875c38.367188-46.757813 80.429688-83.800781 125.019532-110.09375 52.453125-30.925781 109.109375-47.269531 163.84375-47.269531.851562 0 1.691406.003906 2.542968.011718 38.269532.355469 69.253907 9.21875 92.089844 26.347657 7.558594 5.667969 12.417969 11.058593 15.289063 16.957031 3.507812 7.234375 3.574219 15.34375.175781 21.164062-3.398438 5.824219-10.023438 9.828126-20.851562 12.589844-8.460938 2.152344-17.40625 3.441406-26.058594 4.6875-16.679688 2.40625-33.875 4.890625-48.628906 13.605469-6.5 3.832031-9.476563 9.3125-7.585938 13.964844 1.074219 2.632812 3.425781 4.25 5.585938 5.488281 14.425781 8.3125 31.636718 9.761719 48.082031 10.085938 2.105469.035156 4.222656.066406 6.339843.09375l.300782.003906c13.730468.171875 27.933594.351562 41.039062 4.453125 14.71875 4.613281 26.457032 14.820312 30.636719 26.632812l.949219 2.671875-2.839844-.007812c-6.148438-.015625-12.308594-.027344-18.472656-.027344-42.308594 0-85.011719.425781-126.921875 1.257812l-2.34375.046876 3.214843-22.933594c.117188-.863282.277344-2.039063-.167968-3.253906-.699219-1.882813-2.496094-2.8125-3.460938-3.3125-8.195312-4.265626-17.644531-6.515626-27.335937-6.515626-13.011719 0-25.671875 4.023438-35.644531 11.332032l-1.136719.832031-1.164063-.789063c-9.582031-6.496093-21.664062-10.070312-34.019531-10.070312-13.027344 0-25.597656 3.9375-35.390625 11.089844-1.054688.769531-2.140625 1.632812-2.84375 2.953125-.976562 1.832031-.789062 3.804687-.65625 5.246093l1.335938 14.792969-2.15625.035157c-45.261719.703124-91.425782 1.109374-137.214844 1.199218l-4.242188.007813zm0 0" fill="#939baa"/><path d="m263.878906 147.714844c-.007812-.117188-.03125-.195313-.050781-.277344l-.300781-1.265625 1.027344-.789063c9.382812-7.195312 21.566406-11.15625 34.316406-11.15625 9.066406 0 17.824218 2.058594 25.316406 5.957032.199219.101562.375.203125.527344.289062l1.285156.753906-.335938 1.375c0 .019532-11.425781 81.449219-11.425781 81.449219l-1.710937.027344c-13.421875.222656-27.144532.414063-41.941406.582031l-1.898438.023438zm29.140625 46.039062c-4.15625 0-8.273437.546875-12.242187 1.617188-.519532.140625-.957032.480468-1.226563.953125-.269531.46875-.339843 1.015625-.195312 1.535156.238281.894531 1.039062 1.511719 1.949219 1.511719.171874 0 .367187-.027344.5625-.078125 3.605468-.976563 7.375-1.472657 11.171874-1.472657 2.949219 0 5.898438.304688 8.765626.902344.140624.027344.285156.042969.425781.042969.953125 0 1.789062-.679687 1.988281-1.621094.222656-1.085937-.480469-2.167969-1.578125-2.398437-3.140625-.65625-6.382813-.992188-9.621094-.992188zm1.15625-20.140625c-5.511719 0-10.976562.730469-16.242187 2.175781-1.078125.292969-1.71875 1.417969-1.421875 2.5.242187.878907 1.042969 1.488282 1.953125 1.488282.199218 0 .375-.019532.519531-.0625 4.941406-1.355469 10.046875-2.039063 15.195313-2.039063 3.785156 0 7.566406.375 11.238281 1.109375.136719.027344.273437.042969.40625.042969.960937 0 1.800781-.6875 1.992187-1.636719.105469-.53125 0-1.070312-.304687-1.523437-.300781-.453125-.761719-.761719-1.292969-.871094-3.9375-.785156-7.988281-1.183594-12.042969-1.183594zm1.554688-22.296875c-7.148438 0-14.113281 1.171875-20.710938 3.492188-1.058593.371094-1.621093 1.53125-1.246093 2.585937.285156.816407 1.050781 1.367188 1.910156 1.367188.222656 0 .457031-.042969.695312-.125 6.15625-2.164063 12.671875-3.261719 19.351563-3.261719 4.890625 0 9.722656.601562 14.367187 1.785156.167969.042969.335938.066406.503906.066406.925782 0 1.734376-.628906 1.964844-1.53125.132813-.527343.054688-1.074218-.222656-1.539062-.273438-.464844-.714844-.792969-1.242188-.929688-4.96875-1.269531-10.136718-1.910156-15.371093-1.910156zm0 0" fill="#f9d889"/><path d="m198.667969 225.148438-6.746094-74.839844c-.207031-1.933594-.027344-2.433594.070313-2.703125l.070312-.203125.117188-.183594c.222656-.359375.570312-.730469 1.601562-1.476562 8.996094-6.574219 20.707031-10.195313 32.964844-10.195313 11.914062 0 23.410156 3.4375 32.363281 9.683594l1.136719.792969-.34375 1.34375c-.0625.234374-.082032.421874-.074219.582031l4.792969 76.777343-2.105469.023438c-10.84375.109375-21.683594.207031-32.496094.289062-9.800781.074219-18.964843.109376-27.246093.109376zm28.167969-30.875c-6.699219 0-13.265626 1.007812-19.523438 3.003906-.523438.164062-.945312.519531-1.191406 1-.25.480468-.296875 1.03125-.132813 1.542968.269531.855469 1.046875 1.417969 1.9375 1.417969.207031 0 .414063-.03125.601563-.089843 5.878906-1.867188 12.035156-2.8125 18.300781-2.8125 6.066406 0 12.023437.886718 17.714844 2.632812.191406.058594.394531.085938.59375.085938.882812 0 1.6875-.589844 1.949219-1.4375.324218-1.0625-.28125-2.207032-1.355469-2.539063-6.0625-1.859375-12.425781-2.804687-18.894531-2.804687zm.179687-20.730469c-6.695313 0-13.265625 1.011719-19.523437 3.003906-.523438.164063-.945313.523437-1.195313 1.003906s-.292969 1.03125-.125 1.550781c.265625.84375 1.042969 1.410157 1.933594 1.410157.207031 0 .414062-.035157.613281-.097657 5.867188-1.863281 12.023438-2.808593 18.289062-2.808593 6.0625 0 12.023438.886719 17.714844 2.632812.199219.0625.398438.09375.601563.09375.878906 0 1.675781-.59375 1.941406-1.445312.324219-1.0625-.28125-2.203125-1.355469-2.535157-6.0625-1.863281-12.421875-2.808593-18.894531-2.808593zm-2.679687-19.121094c-6.699219 0-13.265626 1.011719-19.523438 3.003906-1.070312.339844-1.664062 1.488281-1.324219 2.554688.269531.847656 1.046875 1.410156 1.9375 1.410156.203125 0 .414063-.03125.613281-.097656 5.867188-1.863281 12.019532-2.808594 18.289063-2.808594 6.0625 0 12.019531.886719 17.710937 2.632813.195313.0625.394532.089843.59375.089843.886719 0 1.679688-.589843 1.9375-1.429687.335938-1.074219-.273437-2.214844-1.347656-2.546875-6.0625-1.863281-12.417968-2.808594-18.886718-2.808594zm0 0" fill="#f9d889"/><path d="m306.03125 402.480469c-5.796875 0-9.34375-1.105469-11.171875-3.46875-1.328125-1.734375-1.671875-3.4375-1.054687-5.214844 1.183593-3.371094 5.863281-6.855469 10.890624-8.097656.980469-.246094 1.832032-.363281 2.597657-.363281l.214843.003906c4.25.035156 8.269532 1.9375 10.980469 5.214844 2.132813 2.582031 3.1875 5.691406 3.042969 8.988281l-.074219 1.785156-1.785156.125c-1.136719.078125-2.351563.207031-3.609375.339844l-.441406.042969c-2.875.292968-6.332032.644531-9.589844.644531zm0 0" fill="#bfc7d8"/><path d="m260.695312 402.480469c-5.796874 0-9.347656-1.105469-11.164062-3.472657-1.332031-1.730468-1.675781-3.433593-1.054688-5.210937 1.171876-3.367187 5.847657-6.851563 10.878907-8.097656.984375-.246094 1.832031-.363281 2.597656-.363281l.214844.003906c4.261719.035156 8.28125 1.9375 10.980469 5.21875 2.132812 2.578125 3.1875 5.6875 3.046874 8.984375l-.078124 1.785156-1.78125.125c-1.144532.082031-2.390626.210937-3.671876.347656l-.382812.039063c-2.863281.289062-6.324219.640625-9.585938.640625zm0 0" fill="#bfc7d8"/><path d="m215.355469 402.480469c-5.800781 0-9.347657-1.105469-11.167969-3.472657-1.328125-1.730468-1.671875-3.433593-1.050781-5.207031 1.183593-3.375 5.863281-6.859375 10.886719-8.101562.984374-.242188 1.832031-.363281 2.597656-.363281l.214844.003906c4.253906.035156 8.273437 1.9375 10.980468 5.214844 2.125 2.570312 3.179688 5.675781 3.046875 8.984374l-.070312 1.789063-1.789063.125c-1.136718.082031-2.351562.207031-3.609375.339844l-.441406.046875c-2.875.289062-6.332031.640625-9.597656.640625zm0 0" fill="#bfc7d8"/><path d="m451.734375 310.382812c2.1875-7.128906 3.492187-14.507812 3.871094-21.925781l.09375-1.769531 1.769531-.121094c9.933594-.679687 19.988281-1.425781 29.894531-2.21875l1.765625-.144531.355469 1.738281c1.539063 7.53125.359375 15.832032-1.144531 23.683594l-.292969 1.539062-37.152344 1.953126zm0 0" fill="#d8deec"/><path d="m429.085938 288.34375 1.542968-.089844c6.246094-.359375 12.492188-.742187 18.738282-1.140625l2.261718-.144531-.136718 2.261719c-.453126 7.304687-1.832032 14.53125-4.105469 21.46875-.058594.183593-.089844.40625-.082031.652343l.046874 1.941407-1.941406.101562c-6.332031.332031-12.664062.652344-19.003906.972657l-2.570312.128906zm0 0" fill="#d8deec"/><path d="m391.863281 290.195312 1.527344-.066406c9.570313-.402344 19.300781-.878906 28.925781-1.40625l2.578125-.144531-5.246093 26.128906-1.554688.078125c-9.84375.492188-19.695312.960938-29.554688 1.421875l-2.628906.121094zm0 0" fill="#d8deec"/><path d="m357.367188 303.828125c.929687-3.3125 1.890624-6.746094 2.40625-10.324219.039062-.203125.050781-.324218.066406-.441406l.210937-1.699219 1.710938-.050781c8.175781-.253906 15.789062-.523438 23.28125-.820312l2.613281-.105469-5.332031 23.367187c-.039063.171875-.046875.363282-.019531.636719l.199218 2.09375-2.101562.09375c-8.050782.359375-16.113282.710937-24.183594 1.050781l-2.753906.113282zm0 0" fill="#d8deec"/><path d="m331.21875 292.070312 1.464844-.03125c6.574218-.128906 13.40625-.292968 20.886718-.496093l2.4375-.066407-.414062 2.402344c-.511719 2.984375-1.304688 5.894532-2.144531 8.855469l-3.699219 13.1875c-.007812.03125-.292969 1.980469-.292969 1.980469l-1.652343.066406c-7.234376.289062-14.464844.558594-21.707032.820312l-2.777344.101563zm0 0" fill="#d8deec"/><path d="m299.714844 295.496094.128906-.59375c.0625-.273438.125-.554688.179688-.835938l.3125-1.605468 1.632812-.011719c8.328125-.066407 15.613281-.152344 22.273438-.257813l2.71875-.046875-7.914063 26.894531-1.441406.046876c-6.945313.242187-13.890625.453124-20.832031.652343l-2.582032.074219zm0 0" fill="#d8deec"/><path d="m260.601562 292.425781 1.988282.015625c5.96875.042969 13.042968.089844 20.273437.089844 2.390625 0 4.785157-.011719 7.175781-.019531l6.191407-.019531-6.230469 27.445312-1.550781.039062c-7.875.21875-16.1875.417969-26.164063.621094l-2.070312.042969zm0 0" fill="#d8deec"/><path d="m221.808594 319.386719c-1.046875-8.460938-1.445313-17.085938-1.183594-25.640625l.0625-1.980469 1.984375.042969c10.320313.246094 21.042969.429687 31.867187.550781l2.003907.019531-.394531 28.335938-1.941407.03125c-11.363281.191406-21.304687.320312-30.398437.394531l-1.78125.011719zm0 0" fill="#d8deec"/><path d="m201.679688 321.234375c-3.300782 0-6.601563-.007813-9.898438-.015625l-1.867188-.003906-2.03125-30.453125 2.210938.078125c8.671875.308594 16.695312.558594 24.523438.769531l2.007812.054687-.0625 2.003907c-.257812 8.433593.113281 16.945312 1.097656 25.296875l.261719 2.222656-2.234375.011719c-4.667969.023437-9.339844.035156-14.007812.035156zm0 0" fill="#d8deec"/><path d="m183.691406 321.179688c-6.09375-.039063-12.179687-.109376-18.261718-.191407l-2.308594-.027343.359375-2.28125c.042969-.273438.03125-.546876-.027344-.792969-1.957031-8.304688-3.582031-16.730469-4.835937-25.058594l-.023438-.175781c-.039062-.277344-.082031-.582032-.109375-.855469l-.230469-2.304687 2.316406.109374c7.128907.339844 14.34375.652344 21.433594.929688l1.796875.070312 2.042969 30.59375zm0 0" fill="#d8deec"/><path d="m157.429688 320.871094c-9.570313-.164063-18.988282-.382813-27.984376-.640625l-1.332031-.039063-.476562-1.246094c-.050781-.136718-.121094-.308593-.1875-.414062l-.210938-.339844-5.085937-30.714844 2.507812.15625c9.578125.597657 18.949219 1.128907 27.847656 1.578126l1.898438.097656v1.902344c0 .839843.113281 1.648437.199219 2.234374 1.25 8.324219 2.867187 16.726563 4.808593 24.964844l.585938 2.503906zm0 0" fill="#d8deec"/><path d="m120.988281 319.957031c-6.964843-.226562-12.777343-.441406-18.289062-.679687l-1.363281-.058594-.441407-1.289062c-2.414062-7.023438-3.355469-14.535157-4.265625-21.800782l-1.3125-10.46875 2.433594.175782c6.667969.480468 12.769531.898437 18.652344 1.277343l1.585937.101563 5.4375 32.824218zm0 0" fill="#d8deec"/><path d="m94.121094 318.886719c-7.636719-.351563-14.46875-.699219-20.882813-1.070313l-1.566406-.089844-.285156-1.542968c-1.796875-9.726563-3.484375-19.9375-5.019531-30.351563l-.367188-2.496093 2.511719.210937c7.855469.660156 14.734375 1.210937 21.035156 1.6875l1.628906.125 1.421875 11.28125c.816406 6.476563 1.660156 13.179687 3.539063 19.695313l.773437 2.679687zm0 0" fill="#d8deec"/><path d="m64.949219 317.316406c-12.15625-.75-23.113281-1.523437-33.496094-2.363281-1.375-.105469-1.910156-.246094-2.21875-.355469l-.855469-.296875-.339844-.839843c-.269531-.667969-.445312-1.851563-.476562-2.082032l-5.199219-32.121094 2.589844.261719c11.90625 1.207031 23.789063 2.324219 35.3125 3.316407l1.578125.140624.230469 1.566407c1.457031 10.097656 3.128906 20.332031 4.964843 30.417969l.460938 2.511718zm0 0" fill="#d8deec"/><g fill="#5b5d6d"><path d="m325.902344 170.164062 1.703125-.035156c42.484375-.855468 85.902343-1.292968 129.046875-1.292968 5.75 0 11.484375.007812 17.21875.023437l2.914062.007813-1.054687 2.714843c-6.257813 16.113281-11.292969 32.863281-14.972657 49.792969l-.46875 2.164062-2.109374-.6875c-4.957032-1.625-9.636719-1.8125-12.726563-1.8125-1.132813 0-2.261719.03125-3.375.0625-39.421875 1.191407-80.265625 2.148438-121.390625 2.839844l-2.339844.039063zm0 0"/><path d="m455.667969 406.9375c-1.140625 0-2.339844-.179688-3.257813-.335938l-7.636718-1.238281c-1.816407-.304687-2.453126-.566406-2.835938-.785156l-.746094-.421875-.207031-.828125c-.109375-.441406-.148437-1.003906-.183594-1.640625l-.003906-.117188c-.953125-22.039062-1.113281-44.335937-.472656-66.296874l.054687-1.84375 1.839844-.097657c6.210938-.320312 12.394531-.636719 18.566406-.96875l2.332032-.125-.234376 2.320313c-.011718.109375-.027343.199218-.019531.289062 1.246094 22.023438.46875 44.296875-2.304687 66.183594-.296875 2.339844-.710938 4.085938-1.773438 5.007812-.703125.613282-1.691406.898438-3.117187.898438zm0 0"/><path d="m440.835938 130.058594c-11.972657-2.757813-24.367188-2.910156-36.355469-3.058594-2.207031-.03125-4.410157-.0625-6.601563-.101562-15.910156-.316407-32.507812-1.691407-46.140625-9.546876-1.558593-.886718-3.238281-2.003906-3.847656-3.511718-1.421875-3.457032 3.03125-7.238282 5.886719-8.921875 14.058594-8.304688 30.089844-10.613281 47.0625-13.0625l.429687-.0625c8.640625-1.253907 17.578125-2.550781 26.128907-4.730469 4.414062-1.128906 10.90625-3.078125 16.285156-6.914062l3.550781-2.53125-.398437 4.34375c-.648438 7.046874-1.089844 13.828124-1.515626 20.386718-.539062 8.253906-1.097656 16.785156-2.046874 25.96875l-.234376 2.25zm0 0"/><path d="m434.695312 260.289062c-1.175781 0-2.558593-.363281-3.796874-1-6.132813-3.144531-9.5-10.121093-11.5-15.09375l-1.070313-2.660156 17.410156-.511718.578125 1.121093c2.210938 4.300781 2.996094 9.261719 2.210938 13.972657-.28125 1.617187-.679688 2.617187-1.285156 3.253906-.621094.621094-1.464844.917968-2.546876.917968zm0 0"/><path d="m411.808594 263.164062c-1.496094 0-3.183594-.453124-5.011719-1.347656-6.496094-3.203125-11.023437-10.308594-11.269531-17.679687l-.070313-2.019531 2.019531-.046876c5.070313-.121093 10.125-.25 15.183594-.390624l1.425782-.039063.675781 1.808594c.085937.234375.171875.472656.265625.710937 1.402344 4.082032 2.128906 8.4375 2.128906 12.667969-.011719 1.367187-.082031 2.898437-.730469 4.042969-.734375 1.257812-2.335937 2.144531-4.089843 2.273437-.179688.011719-.351563.019531-.527344.019531zm0 0"/><path d="m340.253906 263.210938c-1.027344 0-2.03125-.144532-2.984375-.4375-4.867187-1.480469-7.847656-5.761719-9.195312-8.179688-.203125-.355469-.40625-.742188-.609375-1.140625l-.15625-.304687-.046875-.339844c-.269531-1.992188-.84375-4.125-1.757813-6.527344l-1.011718-2.660156 2.84375-.050782c5.5625-.097656 11.128906-.199218 16.699218-.308593l1.253906-.027344.570313 1.121094c1.179687 2.332031 2.347656 4.84375 2.890625 7.390625.640625 3.058594.234375 5.964844-1.117188 7.972656-1.460937 2.15625-4.289062 3.492188-7.378906 3.492188zm0 0"/><path d="m316.242188 264.601562c-2.558594 0-5.464844-1.722656-7.972657-4.71875-1.542969-1.851562-2.929687-3.992187-4.242187-6.550781l-.113282-.21875-.058593-.242187c-.453125-1.953125-1.167969-3.929688-2.183594-6.046875l-1.355469-2.820313 3.128906-.042968c4.871094-.070313 9.742188-.148438 14.621094-.226563l1.792969-.03125.40625 1.503906c.761719 2.828125 1.644531 5.835938 2.925781 8.695313l.152344.34375.019531.375c.015625.367187.035157.859375.007813 1.390625-.152344 3.71875-2.636719 8.054687-6.390625 8.542969-.234375.03125-.484375.046874-.738281.046874zm0 0"/><path d="m301.582031 379.898438c-.347656-4.4375-.941406-8.90625-1.570312-13.476563-1.171875-8.566406-2.273438-16.660156-1.65625-24.953125v-2.019531l5.269531-.15625c2.21875-.0625 4.4375-.128907 6.652344-.203125l2.269531-.074219-.210937 2.261719c-.15625 1.660156-.050782 3.363281.042968 4.867187.726563 11.09375.390625 22.359375-1 33.484375l-.242187 1.929688-1.9375-.1875c-.613281-.0625-1.171875-.09375-1.707031-.101563-1.035157 0-2.21875.140625-3.484376.421875l-2.25.496094zm0 0"/><path d="m292.03125 267.851562c-4.25 0-8.183594-3.566406-9.871094-7.085937-2.003906-4.171875-2.3125-8.804687-2.503906-14.425781l-.070312-2.046875 2.046874-.023438c2.808594-.03125 5.621094-.074219 8.433594-.117187l5.617188-.082032.5 1.304688c1.03125 2.6875 2.253906 5.808594 3.738281 8.835938l.125.257812.050781.277344c.1875 1.09375.269532 2.097656.246094 3.070312-.046875 3.882813-2.207031 8.484375-6.238281 9.726563-.660157.203125-1.359375.308593-2.074219.308593zm0 0"/><path d="m256.046875 379.890625c-.625-12.265625-1.089844-24.839844-1.382813-37.371094l-.046874-2.011719 2.007812-.035156c3.09375-.0625 6.195312-.128906 9.289062-.195312l2.351563-.050782-.050781 2.09375c-.3125 12.398438-1.046875 24.929688-2.1875 37.246094l-.1875 2-2-.195312c-.59375-.058594-1.15625-.09375-1.675782-.101563 0 0 0 0-.003906 0-1.1875 0-2.382812.15625-3.640625.464844l-2.347656.574219zm0 0"/><path d="m220.308594 269.902344c-.539063 0-1.007813-.132813-1.394532-.386719-1.617187-1.113281-1.308593-4.195313-.769531-6.585937 1.230469-5.390626 2.757813-10.714844 4.542969-15.828126l.117188-.347656c.023437-.074218.039062-.179687.058593-.285156l.308594-1.617188 1.652344-.042968 5.449219-.03125c.867187-.007813 1.734374-.019532 2.589843-.019532h1.796875l.191406 1.785157c.929688 8.636719-3.367187 17.480469-10.695312 22.015625-1.386719.855468-2.785156 1.34375-3.847656 1.34375zm0 0"/><path d="m211.867188 379.433594c.714843-12.09375.472656-24.296875-.722657-36.273438l-.21875-2.1875 2.199219-.011718 2.203125-.007813c1.113281 0 2.222656 0 3.335937-.011719l2.34375-.027344-.34375 2.320313c-.015624.105469-.03125.207031-.03125.316406.320313 11.742188.019532 23.839844-.882812 35.910157l-.148438 1.976562-1.980468-.128906c-.277344-.019532-.554688-.03125-.832032-.039063-.773437 0-1.660156.085938-2.570312.25l-2.5.453125zm0 0"/><path d="m197.59375 266.957031c-1.5625 0-3.496094-.671875-4.300781-2.171875-.777344-1.503906-.527344-3.5625.773437-6.503906 1.871094-4.273438 4.40625-8.242188 7.527344-11.785156.109375-.121094.195312-.257813.300781-.480469l.546875-1.125h1.253906c4.207032 0 8.394532-.011719 12.550782-.03125l3.015625-.015625-1.164063 2.785156c-2.855468 6.835938-7.800781 12.808594-13.929687 16.816406-2.421875 1.589844-4.394531 2.386719-6.199219 2.5-.121094.007813-.246094.011719-.375.011719zm0 0"/><path d="m192.382812 225.128906c-18.246093-.089844-33.4375-.414062-47.804687-1.019531-15.15625-.644531-28.910156-1.578125-42.046875-2.859375-2.410156-.230469-5.042969-.609375-7.59375-.980469-4.921875-.71875-10.011719-1.460937-15.539062-1.589843-.324219-.007813-.628907-.011719-.933594-.011719-.015625 0-.035156 0-.050782 0-5.179687 0-9.910156 1.011719-14.46875 3.09375l-2.34375 1.066406-.457031-2.535156c-2.890625-16.074219-7.507812-31.808594-13.71875-46.765625l-1.144531-2.761719 2.988281-.003906c45.941407-.09375 92.519531-.5 138.445313-1.222657l1.855468-.027343 5.011719 55.628906zm0 0"/><path d="m130.804688 265.046875c-.976563 0-1.734376-.28125-2.25-.839844-.878907-1.003906-1-2.742187-.402344-5.207031.929687-3.921875 2.574218-7.589844 4.882812-10.894531l.042969-.066407.050781-.058593c.664063-.8125 1.34375-1.679688 2.066406-2.640625.085938-.121094.179688-.300782.261719-.515625l.515625-1.351563 1.445313.066406c2.085937.101563 4.183593.203126 6.320312.289063 2.089844.089844 4.183594.164063 6.269531.234375l5.566407.195312-1.722657 2.902344c-.253906.425782-.539062.851563-.882812 1.292969-4.527344 5.964844-10.382812 11.117187-16.917969 14.886719-1.886719 1.085937-3.796875 1.707031-5.246093 1.707031zm0 0"/><path d="m107.566406 261.71875c-1.324218-.011719-2.988281-.425781-3.710937-1.328125l-.226563-.28125-.113281-.34375c-.257813-.78125-.175781-1.796875 1.066406-4.226563 2.023438-3.925781 4.335938-7.761718 6.878907-11.414062.109374-.164062.207031-.378906.277343-.625l.441407-1.585938 1.640624.128907c4.46875.351562 9.046876.667969 13.996094.96875l3.960938.238281-2.550782 3.042969c-3.023437 3.605469-6.355468 6.917969-9.894531 9.855469-3.113281 2.5625-7.25 5.511718-11.722656 5.570312zm0 0"/><path d="m83.027344 259.550781c-.894532 0-2.164063-.304687-2.789063-1.164062l-.046875-.066407-.042968-.070312c-1.222657-2.003906 1.503906-5.167969 2.367187-6.089844 3.980469-4.257812 8.597656-7.878906 13.71875-10.761718.128906-.070313.238281-.152344.375-.277344l.679687-.617188 1.476563.183594c.617187.078125 1.238281.152344 1.851563.214844 1.234374.117187 2.480468.238281 3.714843.347656l4.09375.363281-2.8125 2.996094c-5.101562 5.429687-11.253906 10.058594-17.792969 13.382813-1.796874.914062-3.199218 1.492187-4.625 1.558593zm0 0"/><path d="m75.761719 405.71875c-3.402344 0-5.898438-.914062-7.417969-2.722656-1.660156-1.941406-2.054688-4.828125-2.371094-8.117188-1.738281-18.425781-3.015625-37.179687-3.785156-55.734375l-.09375-2.21875 2.21875.136719c4.949219.316406 10.085938.613281 15.699219.910156l1.707031.089844.175781 1.703125c2.070313 20.132813 2.929688 40.582031 2.558594 60.78125-.03125 2.140625-.242187 2.714844-.4375 3.082031l-.203125.390625-.351562.269531c-.410157.3125-.976563.570313-2.542969.875-1.882813.367188-3.617188.554688-5.15625.554688zm0 0"/></g><path d="m484.097656 265.164062-20.734375-22.429687c-1.777343-1.921875-3.789062-4.097656-6.519531-5.621094-4.726562-2.632812-10.0625-2.472656-14.347656-2.34375-70.441406 2.125-141.894532 3.453125-212.378906 3.949219-27.679688.191406-57.132813.277344-86.121094-.949219-15.363282-.648437-29.359375-1.597656-42.789063-2.902343-2.679687-.257813-5.371093-.648438-8.222656-1.0625-4.542969-.660157-9.242187-1.339844-13.90625-1.453126-7.46875-.179687-11.390625 2.59375-16.363281 6.097657-.605469.429687-1.238282.875-1.910156 1.335937l-41.011719 28.296875v.003907c-.945313.648437-2.523438 1.742187-3.414063 3.628906-1.027344 2.175781-.675781 4.359375-.464844 5.660156l5.667969 35.015625c.253907 1.578125.683594 4.214844 2.734375 6.171875 2.167969 2.074219 4.972656 2.300781 6.648438 2.433594 56.414062 4.554687 113.164062 6.308594 169.894531 6.308594 97.101563 0 194.117187-5.140626 289.078125-10.171876 1.835938-.097656 3.371094-1.421874 3.738281-3.226562 2.128907-10.523438 5.351563-26.429688-1.902343-39.03125-2.148438-3.730469-4.957032-6.769531-7.675782-9.710938zm-31.175781-21.007812c1.605469.898438 3.089844 2.5 4.523437 4.050781l20.730469 22.433594c2.300781 2.488281 4.667969 5.058594 6.355469 7.84375-9.039062.71875-18.085938 1.390625-27.136719 2.011719-.113281-.421875-.261719-.855469-.457031-1.285156-.605469-1.320313-1.492188-2.257813-2.136719-2.945313l-12.613281-13.359375c1.507812-1.910156 2.042969-4.167969 2.3125-5.777344.8125-4.808594.351562-9.753906-1.28125-14.3125 3.347656-.097656 7.042969-.140625 9.703125 1.339844zm-7.617187 67.246094c-6.328126.328125-12.664063.652344-19.003907.96875l4.441407-22.117188c6.253906-.363281 12.503906-.738281 18.75-1.148437-.445313 7.128906-1.773438 14.164062-4.003907 20.976562-.144531.4375-.191406.882813-.183593 1.320313zm-56.863282 2.808594 5.03125-22.074219c9.65625-.417969 19.308594-.886719 28.953125-1.410157l-4.429687 22.0625c-9.835938.488282-19.6875.964844-29.554688 1.421876zm-91.726562 3.535156 4.945312-21.808594c.109375-.480469.21875-.976562.324219-1.492188 7.429687-.054687 14.859375-.140624 22.289063-.257812l-6.742188 22.90625c-6.9375.234375-13.875.449219-20.816406.652344zm-34.472656.851562.335937-24.160156c6.761719.050781 13.519531.089844 20.285156.089844 3.617188 0 7.238281-.011719 10.855469-.027344l-5.324219 23.484375c-8.714843.234375-17.433593.4375-26.152343.613281zm-38.449219.539063c-1.035157-8.386719-1.425781-16.882813-1.167969-25.328125 10.628906.25 21.257812.433594 31.890625.550781l-.339844 24.386719c-10.125.179687-20.253906.308594-30.382812.390625zm-121.007813-1.855469c-2.332031-6.78125-3.265625-14.214844-4.171875-21.402344l-1.011719-8.054687c6.222657.453125 12.449219.882812 18.675782 1.285156l4.777344 28.851563c-6.089844-.203126-12.179688-.421876-18.269532-.679688zm-29.433594-1.457031c-1.84375-10.015625-3.515624-20.175781-5.007812-30.28125 7.015625.585937 14.03125 1.152343 21.054688 1.683593l1.214843 9.660157c.832031 6.589843 1.6875 13.378906 3.601563 20.003906-6.960938-.320313-13.914063-.667969-20.863282-1.066406zm9.300782-49.644531c.195312-.179688.371094-.375.523437-.582032.097657 0 .1875.011719.285157.007813 2.664062-.121094 4.992187-1.132813 7.105468-2.210938 2.332032-1.183593 4.601563-2.507812 6.792969-3.957031.035156.832031.191406 1.683594.515625 2.546875.554688 1.46875 1.539062 2.722656 2.820312 3.6875l-10.023437 12.273437c-.242187.296876-.570313.707032-.878906 1.21875-6.570313-.496093-13.132813-1.015624-19.699219-1.5625zm23.714844-9.734376c1.988281-3.855468 4.253906-7.617187 6.734374-11.179687.265626-.378906.441407-.796875.5625-1.222656 4.582032.359375 9.246094.683593 14.03125.96875-2.917968 3.476562-6.140624 6.699219-9.640624 9.59375-2.84375 2.355469-6.605469 5.066406-10.472657 5.113281-1.238281-.011719-2.050781-.425781-2.164062-.582031-.027344-.085938-.117188-.621094.949219-2.691407zm54.097656-10.058593c5.328125.140625 10.652344.257812 15.964844.332031l-21 36.570312c-9.195313-.457031-18.386719-.96875-27.574219-1.527343 2.769531-3.679688 5.4375-7.445313 7.949219-11.269531.09375-.140626.15625-.289063.226562-.4375.996094-.382813 2.015625-.867188 3.046875-1.460938 7.210937-4.152344 13.683594-9.847656 18.722656-16.472656.722657-.945313 2.332031-3.066406 2.664063-5.734375zm33.125.480469c-1.984375 2.808593-3.6875 5.808593-5.078125 8.972656-.761719 1.734375-3.082031 7.003906-.597657 11.742187.828126 1.578125 2.105469 2.851563 3.644532 3.78125l-7.910156 13.109375c-.011719.019532-.027344.046875-.039063.066406-6.378906-.246093-12.753906-.523437-19.125-.820312l21.183594-36.898438c2.648437.019532 5.285156.035157 7.921875.046876zm80-.503907c.1875 5.683594.464844 11.539063 3.105468 17.03125 2.074219 4.320313 6.074219 8.242188 10.835938 9.808594l5.429688 12.742187c.070312.160157.136718.324219.203124.488282-10.15625.039062-20.316406.019531-30.476562-.0625l.554688-39.890625c3.445312-.039063 6.898437-.078125 10.347656-.117188zm20.730468-.269531c1.121094 2.914062 2.324219 5.980469 3.804688 8.992188.164062.925781.238281 1.8125.222656 2.683593-.046875 3.101563-1.757812 6.90625-4.835937 7.855469-3.539063 1.101562-7.796875-2.074219-9.550781-5.722656-1.898438-3.953125-2.140626-8.652344-2.304688-13.632813 4.21875-.050781 8.441406-.117187 12.664062-.175781zm24.011719-.367188c.808594 3.007813 1.714844 6.042969 3.03125 8.996094.023438.394532.027344.792969.011719 1.183594-.121094 2.941406-2.019531 6.320312-4.652344 6.664062-2.023437.269532-4.617187-1.21875-6.917968-3.972656-1.554688-1.867187-2.855469-3.960937-4.003907-6.179687-.535156-2.316407-1.378906-4.480469-2.320312-6.453125 4.949219-.074219 9.898437-.15625 14.851562-.238282zm25.742188-.460937c1.148437 2.269531 2.234375 4.589844 2.71875 6.894531.53125 2.53125.234375 4.878906-.816407 6.4375-1.488281 2.207032-5.054687 3.203125-8.121093 2.265625-4.183594-1.277343-6.828125-5.082031-8.035157-7.238281-.199218-.355469-.390624-.71875-.574218-1.085938-.332032-2.453124-1.046875-4.785156-1.875-6.964843 5.566406-.097657 11.132812-.203125 16.703125-.308594zm17.472656-.351563 22.683594 39.535157c-7.953125.316406-15.910157.59375-23.867188.832031-.304687-.515625-.613281-1-.902343-1.429688l-11.113282-16.746093c1.722656-1.015625 3.207032-2.363281 4.3125-4 2.296875-3.40625 3.015625-7.882813 2.023438-12.605469-.402344-1.902344-1.039063-3.707031-1.773438-5.410156 2.878906-.0625 5.757813-.113282 8.636719-.175782zm51.167969-1.234374c.148437.402343.292968.804687.445312 1.207031 1.3125 3.824219 2 7.917969 1.992188 11.945312-.003906 1.042969-.058594 2.332031-.46875 3.046875-.386719.671875-1.414063 1.195313-2.5 1.273438-1.277344.09375-2.792969-.289063-4.511719-1.136719-5.859375-2.886719-9.929687-9.40625-10.144531-15.945313 5.0625-.125 10.128906-.253906 15.1875-.390624zm21.820312-.613282c1.992188 3.859375 2.734375 8.449219 2.015625 12.722656-.242187 1.433594-.542969 1.984376-.757812 2.199219-.492188.488281-2.246094.414063-3.976563-.472656-5.109375-2.625-8.246094-8.296875-10.5625-14.066406 4.433594-.125 8.855469-.253907 13.28125-.382813zm-30.425781 24.183594c1.457031.71875 2.886719 1.234375 4.285156 1.5625.089844.144531.171875.292969.285157.429688l11.042968 13.546874c-8.835937.476563-17.675781.902344-26.519531 1.285157-.347656-.792969-.746094-1.488281-1.082031-2.074219l-21.398438-37.292969c6.25-.136719 12.503906-.273437 18.746094-.425781.285156 9.527344 6.050781 18.738281 14.640625 22.96875zm-72.234375 18.734375c-.105469-.171875-.207031-.335937-.300781-.484375l-10.128907-16.070312c2.554688-1.257813 4.554688-3.363282 5.90625-5.824219 2.410157 2.359375 5.179688 4.0625 8.148438 4.96875 1.539062.46875 3.117188.691406 4.679688.695312.082031.171875.160156.347657.269531.511719l10.460937 15.769531c-6.34375.167969-12.691406.3125-19.035156.433594zm-30.132812.402344c-.398438-1.324219-.910157-2.539063-1.363282-3.605469l-4.089844-9.597656c3.734376-1.292969 6.777344-4.265625 8.515626-8.089844 2.371093 2.480469 4.964843 4.160156 7.628906 4.984375.097656.265625.21875.523437.375.769531l9.640625 15.296875c-6.902344.109375-13.804688.191407-20.707031.242188zm-47.117188-.082031c-10.429688-.117188-20.855469-.300782-31.28125-.542969.0625-.304688.113281-.613281.195312-.910157.230469-.882812.546876-1.800781.878907-2.773437.785156-2.289063 1.65625-4.84375 1.679687-7.667969.414063-.214844.832032-.441406 1.246094-.699218 9.035156-5.589844 14.425781-16.460938 13.621094-27.023438 4.738281-.039062 9.46875-.074219 14.210937-.121094zm-56.78125-21.359376c-1.191406.082032-2.421875-.410156-2.789062-1.109374-.3125-.59375-.417969-1.898438.835937-4.75 1.808594-4.109376 4.234375-7.902344 7.207031-11.265626.253906-.285156.441406-.605468.597656-.933593 4.214844 0 8.402344-.011719 12.5625-.027344-2.703124 6.464844-7.308593 12.070313-13.183593 15.914063-2.128907 1.390624-3.789063 2.082031-5.230469 2.171874zm-88.359375 2.710938c4.832031-.574219 8.957031-3.113281 12.246094-5.664062.058593 2.507812.824219 4.597656 2.292969 6.238281.6875.765625 1.472656 1.375 2.339843 1.839843-2.617187 3.78125-5.375 7.484376-8.226562 11.078126-6.214844-.398438-12.429688-.820313-18.636719-1.265626zm19.664063 49.820312-4.609376-27.839843c9.285157.570312 18.570313 1.101562 27.863282 1.574219.003906.953124.117187 1.820312.222656 2.515624 1.261719 8.40625 2.894531 16.859376 4.835938 25.144532-9.320313-.15625-18.640626-.371094-27.957032-.644532-.09375-.257812-.207031-.515624-.355468-.75zm36.25-.070312c-1.9375-8.191406-3.550782-16.5625-4.800782-24.878906-.042968-.285156-.09375-.625-.121094-.929688 7.148438.339844 14.296876.65625 21.445313.9375l1.78125 26.640625c-6.085937-.039062-12.171875-.101562-18.253906-.183593.085937-.511719.074219-1.050782-.050781-1.585938zm34.292968-43.917969c.140625-.234375.25-.472656.339844-.71875 3.066406-.578125 5.671875-2.082031 7.457031-3.25 1.453125-.953125 2.847657-1.992187 4.171875-3.109375.042969 4.496094 2.003906 6.890625 3.902344 8.15625.726562.484375 1.515625.835938 2.34375 1.066406-.210938 1.195313-.652344 2.484376-1.113281 3.828126-.363281 1.066406-.742188 2.164062-1.050781 3.328124-.242188.925782-.425782 1.855469-.574219 2.773438-7.449219-.199219-14.894531-.429688-22.34375-.691406zm133.03125 20.550781c6.96875-.136718 13.933594-.304687 20.898438-.496093-.484375 2.851562-1.261719 5.675781-2.09375 8.648437l-3.699219 13.1875c-.054687.195313-.078125.394532-.101563.59375-7.230468.289063-14.464843.558594-21.703124.820313zm26.566406 10.328126c.953126-3.390626 1.933594-6.902344 2.46875-10.578126.023438-.15625.042969-.320312.066407-.480468 7.765625-.238282 15.535156-.511719 23.296875-.820313l-4.746094 20.824219c-.097656.425781-.101562.851562-.066406 1.265625-8.050782.363281-16.109375.714844-24.175782 1.050781zm70.296876-22.117188c-.398438-.601562-.816407-1.125-1.179688-1.566406l-10.613281-13.019532c1.621093-.921874 2.980469-2.207031 3.875-3.761718.5625-.976563.921875-1.984375 1.152343-2.988282 1.558594 1.464844 3.316407 2.746094 5.3125 3.769532 2.082032 1.070312 4.210938 1.617187 6.214844 1.664062l13.929688 14.753906c-6.230469.402344-12.457032.789063-18.691406 1.148438zm-199.410157-35.472656c.894531-.003906 1.796875-.015625 2.691407-.023438.835937 7.808594-3.074219 15.960938-9.765626 20.101563-1.6875 1.046875-2.863281 1.136719-3.070312.996093-.164062-.109374-.667969-1.246093.0625-4.476562 1.195312-5.265625 2.703125-10.511719 4.480469-15.609375.039062-.109375.074219-.214844.113281-.320313.070312-.210937.109375-.421874.148438-.632812 1.777343-.011719 3.570312-.023438 5.339843-.035156zm-78.039062-.640625c-.15625.277343-.394531.632812-.75 1.105469-4.394531 5.773437-10.042969 10.742187-16.332031 14.363281-2.695313 1.554687-4.675782 1.636719-5.027344 1.246093-.214844-.242187-.449219-1.230468.0625-3.382812.871094-3.65625 2.4375-7.140625 4.585937-10.222656.722657-.886719 1.429688-1.792969 2.117188-2.710938.234375-.3125.398437-.652344.527343-1 2.089844.101563 4.199219.199219 6.335938.289063 2.824219.121093 5.652344.21875 8.480469.3125zm-47.980469-2.898438c-4.941406 5.257813-10.835938 9.710938-17.242188 12.96875-1.515624.773438-2.742187 1.292969-3.8125 1.34375-.679687.023438-1.171874-.234375-1.25-.335937-.105468-.1875.15625-1.589844 2.121094-3.6875 3.859375-4.125 8.316406-7.617188 13.246094-10.386719.273438-.152344.515625-.335937.734375-.539063.828125.101563 1.65625.210938 2.476563.292969 1.234374.117188 2.480468.230469 3.726562.34375zm-38.769531 3.183594c.691406-.476563 1.347656-.941406 1.976562-1.382813 4.476563-3.15625 6.71875-4.746093 11.523438-4.625 2.277343.054688 4.636719.273438 7.003906.5625-2.785156 2.125-5.398437 4.472657-7.804687 7.042969-4.226563 4.511719-5.417969 9.300781-3.269532 13.136719.152344.273438.335938.527344.523438.777344l-13.195313 12c-.59375.539062-1.550781 1.441406-2.15625 2.796875-11.3125-.988281-22.613281-2.050781-33.90625-3.191407zm-35.488281 66.289063c-.15625-.367188-.300782-1.253907-.359376-1.609376l-4.789062-29.589843c11.769531 1.191406 23.546875 2.296875 35.339844 3.324219 1.480468 10.164062 3.148437 20.386718 4.980468 30.488281-11.164062-.6875-22.320312-1.464844-33.457031-2.367188-.375-.027343-1.320312-.105469-1.714843-.246093zm161.886718 6.507812-1.757812-26.378906c8.175781.296875 16.355468.554687 24.539062.769531-.261718 8.53125.105469 17.113281 1.105469 25.585937-7.960937.042969-15.925781.046876-23.886719.023438zm294.589844-9.972656c-10.882812.578125-21.796875 1.15625-32.730469 1.726562 2.242188-7.296875 3.570313-14.808594 3.957031-22.414062 9.980469-.683594 19.957032-1.417969 29.925782-2.21875 1.40625 6.914062.402344 14.757812-1.152344 22.90625zm0 0"/><path d="m505.359375 267.050781c-3.027344-5.257812-6.753906-9.289062-9.75-12.527343l-20.730469-22.425782c-1.902344-2.0625-4.65625-5.039062-8.585937-7.582031 4.042969-19.15625 9.828125-38.03125 17.246093-56.136719.511719-1.242187.367188-2.652344-.375-3.769531-.019531-.027344-.042968-.050781-.0625-.078125-3.84375-17.839844-19.652343-29.191406-33.941406-34.175781 1.050782-9.777344 1.640625-18.84375 2.210938-27.613281.691406-10.582032 1.339844-20.574219 2.734375-31.839844.03125-.257813.03125-.511719.015625-.761719 2.675781-7.058594 2.152344-15.695313-1.589844-23.410156-3.300781-6.792969-8.738281-12.882813-17.109375-19.164063-23.890625-17.917968-56.082031-27.191406-95.675781-27.5546872-56.621094-.5156248-115.261719 16.1093752-169.519532 48.0976562-47.230468 27.847656-91.550781 67.464844-131.722656 117.757813-1.390625 1.742187-1.105468 4.277343.632813 5.667968.335937.269532.710937.46875 1.09375.613282 7.269531 16.65625 12.476562 34.160156 15.460937 52.089843-.699218.480469-1.367187.949219-2.003906 1.398438l-.234375.164062c-.496094.347657-1.007813.710938-1.550781 1.085938l-41.011719 28.292969c-1.640625 1.132812-5.992187 4.136718-8.691406 9.84375-3.101563 6.570312-2.1289065 12.589843-1.761719 14.855468l5.667969 35.019532c.417969 2.574218 1.523437 9.40625 7.382812 15.003906 6.1875 5.910156 13.734375 6.519531 16.214844 6.722656 8.710937.703125 17.503906 1.339844 26.378906 1.925781.777344 18.910157 2.074219 38.054688 3.855469 56.902344.296875 3.144531.746094 7.894531 3.78125 11.476563 2.011719 2.371093 5.664062 4.835937 12.152344 4.835937 1.832031 0 3.894531-.195313 6.207031-.648437 1.429687-.28125 4.097656-.800782 6.050781-2.90625 2.292969-2.472657 2.355469-5.78125 2.386719-7.558594.367187-20.042969-.472656-40.308594-2.472656-60.265625 35.707031 1.75 73.035156 2.617187 112.847656 2.617187h.015625c1.375 0 2.753906-.011718 4.132812-.015625 1.359376 13.179688 1.542969 26.546875.53125 39.753907-3.613281 2.164062-6.828124 5.261718-8.15625 9.050781-1.292968 3.707031-.59375 7.582031 1.96875 10.914062 3.597657 4.671875 9.792969 5.839844 16.070313 5.839844 3.488281 0 7.003906-.363281 10.109375-.679687 2.09375-.214844 4.070312-.417969 5.554688-.457032.441406-.011718 1.351562-.035156 2.351562-.484375 1.164062-.53125 2.660156-1.734375 3.152344-4.449219 1.019531-5.613281-.484375-11.363281-4.132813-15.777343-1.882812-2.28125-4.210937-4.089844-6.808593-5.351563 1.003906-12.601562 1.351562-25.382812 1.015624-38.011718-.003906-.160157-.035156-.3125-.058593-.464844 7.316406-.066406 14.636719-.15625 21.960937-.273438.3125 13.496094.832032 27.160156 1.535156 40.625-3.292968 2.128906-6.148437 5.054688-7.382812 8.570313-1.296875 3.707031-.597656 7.582031 1.96875 10.914062 3.597656 4.671875 9.792969 5.839844 16.066406 5.839844 3.492188 0 7.007813-.363281 10.113282-.679687 2.09375-.214844 4.070312-.417969 5.554687-.457032.441406-.011718 1.351563-.035156 2.347656-.484375 1.167969-.53125 2.660157-1.734375 3.15625-4.449219 1.019531-5.613281-.488281-11.363281-4.132812-15.777343-1.664063-2.015625-3.675781-3.664063-5.917969-4.894531 1.257812-13.160157 2.058594-26.492188 2.378906-39.703126 6-.140624 11.996094-.296874 17.996094-.464843-.570312 8.695312.589844 17.292969 1.726562 25.609375.710938 5.207031 1.441407 10.585937 1.710938 15.820312-3.398438 2.144532-6.371094 5.121094-7.632812 8.726563-1.296876 3.703125-.597657 7.582031 1.96875 10.914062 3.597656 4.671875 9.792968 5.835938 16.066406 5.835938 3.492187 0 7.007812-.359375 10.113281-.679688 2.09375-.214843 4.070313-.417969 5.554687-.453125.441407-.011718 1.351563-.035156 2.347657-.484375 1.167969-.53125 2.660156-1.734375 3.15625-4.449219 1.019531-5.613281-.488281-11.363281-4.132813-15.78125-1.671875-2.023437-3.699218-3.679687-5.953125-4.910156 1.582031-11.925781 2-24.042968 1.21875-36.132812-.117187-1.804688-.222656-3.523438.105469-4.84375 38.773438-1.324219 77.433594-3.121094 115.71875-5.070313-.625 21.933594-.464844 44.15625.492188 66.074219.0625 1.398438.15625 3.511719 1.425781 5.464844 2.0625 3.15625 5.824219 3.769531 7.632812 4.066406l7.648438 1.246094c1.09375.179687 2.570312.417968 4.1875.417968 2.316406 0 4.925781-.492187 7.101562-2.371093 2.804688-2.414063 3.445313-5.828125 3.828125-8.835938 2.832032-22.261719 3.621094-44.90625 2.347656-67.308593-.007812-.1875-.050781-.367188-.085937-.546876 7.328125-.386718 14.644531-.773437 21.933594-1.160156l12.128906-.640625c1.835937-.097656 3.371094-1.425781 3.738281-3.226562l2.40625-11.902344c2.601563-12.832031 6.53125-32.230469-3.675781-49.964844zm-46.550781-46.097656c-5.074219-1.667969-9.851563-1.914063-13.351563-1.914063-1.152343 0-2.300781.027344-3.429687.0625-40.25 1.214844-80.832032 2.15625-121.367188 2.84375l6.988282-49.820312c48.503906-.972656 97.652343-1.398438 146.21875-1.261719-6.316407 16.25-11.359376 33.054688-15.058594 50.089844zm-258.316406 2.199219-6.582032-73.027344c-.039062-.46875-.140625-1.566406-.03125-1.847656.097656-.160156.460938-.464844 1.074219-.914063 17.734375-12.957031 45-13.058593 63.007813-.496093-.097657.390624-.15625.800781-.128907 1.226562l4.664063 74.652344c-10.84375.117187-21.679688.21875-32.488282.292968-8.078124.058594-17.628906.113282-27.230468.113282-.769532 0-1.523438 0-2.285156 0zm70.078124-.496094-4.691406-75.066406c-.015625-.210938-.058594-.414063-.101562-.617188 15.785156-12.117187 39.683594-14.277344 57.484375-5.015625.183593.097657.328125.175781.441406.242188-.003906.039062-.011719.078125-.015625.109375l-11.1875 79.777344c-13.996094.222656-27.972656.410156-41.929688.570312zm170.714844-94.542969c-12.109375-2.796875-24.621094-2.964843-36.78125-3.117187-2.203125-.027344-4.398437-.058594-6.589844-.097656-15.640624-.308594-31.9375-1.648438-45.179687-9.273438-1.191406-.6875-2.609375-1.597656-2.992187-2.53125-.714844-1.75 2.007812-4.65625 5.050781-6.453125 13.730469-8.109375 29.585937-10.394531 46.378906-12.816406 8.820313-1.269531 17.941406-2.585938 26.722656-4.824219 5.082031-1.296875 11.511719-3.34375 16.945313-7.214844-.640625 7.058594-1.085938 13.820313-1.515625 20.433594-.535157 8.269531-1.09375 16.808594-2.039063 25.894531zm-266.964844-73.058593c52.996094-31.242188 110.152344-47.496094 165.351563-46.980469 37.835937.347656 68.425781 9.074219 90.910156 25.941406 7.308594 5.480469 11.976563 10.640625 14.695313 16.238281 3.21875 6.632813 3.316406 14.019532.25 19.273438-3.113282 5.335937-9.351563 9.039062-19.625 11.660156-8.363282 2.132812-17.269532 3.417969-25.882813 4.65625-16.828125 2.425781-34.226562 4.933594-49.328125 13.851562-7.402344 4.375-10.707031 10.828126-8.414062 16.441407 1.300781 3.1875 3.980468 5.0625 6.433594 6.476562 14.820312 8.535157 32.328124 10.015625 49.042968 10.34375 2.210938.042969 4.425782.074219 6.648438.101563 13.597656.171875 27.660156.347656 40.472656 4.363281 14.316406 4.484375 25.382812 14.203125 29.351562 25.386719-48.308593-.136719-97.1875.277344-145.445312 1.234375l2.890625-20.617188c.128906-.945312.351563-2.527343-.273437-4.210937-.96875-2.613282-3.296876-3.824219-4.417969-4.40625-20.40625-10.617188-46.699219-8.488282-65.074219 4.980468-20.957031-14.199218-51.210938-13.910156-71.710938 1.066407-1.191406.867187-2.535156 1.9375-3.433593 3.628906-1.242188 2.34375-1.027344 4.765625-.882813 6.367187l1.140625 12.640626c-45.515625.710937-91.617187 1.113281-137.183593 1.195312 38.214843-46.578125 80.0625-83.441406 124.484374-109.632812zm-125.042968 117.699218c45.984375-.082031 92.53125-.488281 138.46875-1.210937l4.648437 51.582031c-18.140625-.085938-33.519531-.417969-47.734375-1.019531-15.078125-.636719-28.792968-1.566407-41.941406-2.839844-2.300781-.226563-4.808594-.589844-7.488281-.976563-5.003907-.726562-10.175781-1.476562-15.789063-1.609374-.347656-.007813-.6875-.011719-1.027344-.011719-6.230468 0-11.203124 1.398437-15.300781 3.269531-2.910156-16.171875-7.539062-32.007812-13.835937-47.183594zm33.179687 227.75c-.023437 1.25-.113281 2.011719-.210937 2.199219-.128906.101563-.53125.269531-1.714844.5-3.675781.71875-8.515625 1.042969-10.660156-1.488281-1.292969-1.523438-1.628906-4.082032-1.90625-7.023438-1.742188-18.425781-3.011719-37.132812-3.785156-55.625 5.210937.320313 10.445312.625 15.726562.90625 2.058594 20.035156 2.917969 40.398438 2.550781 60.53125zm146.40625-1.046875c-1.289062.097657-2.679687.238281-4.121093.386719-6.417969.660156-16.113282 1.652344-18.964844-2.054688-1.160156-1.507812-1.03125-2.527343-.75-3.332031.945312-2.703125 5.195312-5.761719 9.476562-6.8125.847656-.210937 1.617188-.328125 2.269532-.3125 3.710937.039063 7.171874 1.679688 9.5 4.5 1.808593 2.191407 2.707031 4.835938 2.589843 7.625zm-11.113281-20.152343c-.296875-.015626-.59375-.03125-.894531-.03125-.9375-.003907-1.941407.085937-2.992188.273437.726563-12.175781.480469-24.453125-.726562-36.585937 1.851562-.007813 3.695312-.007813 5.546875-.019532-.023438.199219-.050782.398438-.046875.605469.316406 11.878906.011719 23.894531-.886719 35.757813zm52.328125 20.539062c-6.417969.660156-16.113281 1.65625-18.96875-2.054688-1.15625-1.503906-1.027344-2.527343-.746094-3.332031.949219-2.707031 5.199219-5.761719 9.472657-6.8125.851562-.210937 1.621093-.324219 2.273437-.3125 3.707031.039063 7.171875 1.679688 9.5 4.5 1.808594 2.1875 2.707031 4.835938 2.585937 7.625-1.285156.097657-2.675781.238281-4.117187.386719zm-6.046875-20.464844c-.609375-.058594-1.222656-.101562-1.839844-.105468-1.28125-.015626-2.679687.160156-4.152344.511718-.621093-12.390625-1.085937-24.921875-1.378906-37.316406 3.183594-.058594 6.371094-.132812 9.554688-.199219-.304688 12.351563-1.042969 24.796875-2.183594 37.109375zm51.378906 20.464844c-6.414062.660156-16.109375 1.65625-18.964844-2.054688-1.160156-1.503906-1.027343-2.527343-.746093-3.332031.945312-2.707031 5.195312-5.761719 9.472656-6.8125.847656-.210937 1.621094-.328125 2.269531-.3125 3.710938.039063 7.175782 1.679688 9.503906 4.5 1.808594 2.1875 2.707032 4.835938 2.585938 7.625-1.285156.097657-2.675781.238281-4.121094.386719zm-5.023437-53.570312c.714843 11.019531.371093 22.140624-.992188 33.109374-.617187-.0625-1.242187-.105468-1.871093-.109374-1.21875-.003907-2.554688.152343-3.953126.46875-.359374-4.589844-.964843-9.152344-1.574218-13.589844-1.160156-8.492188-2.253906-16.511719-1.640625-24.585938.003906-.058594-.007813-.113281-.003907-.171875 3.328126-.101562 6.660157-.195312 9.988282-.300781-.164063 1.804688-.054688 3.578125.046875 5.179688zm148.183593 54.511718c-.128906 1.023438-.402343 3.148438-1.097656 3.746094-.847656.738281-3.664062.277344-4.726562.105469l-7.648438-1.25c-1.367187-.222657-1.941406-.414063-2.171875-.550781-.082031-.320313-.113281-1.019532-.128906-1.375-.957031-21.9375-1.113281-44.183594-.46875-66.132813 6.199219-.320313 12.386719-.640625 18.5625-.964844-.015625.195313-.035156.386719-.027344.589844 1.246094 21.910156.472657 44.058594-2.292969 65.832031zm42.566407-85.367187-1.792969 8.84375-9.042969.476562c-94.683593 5.015625-192.59375 10.203125-289.394531 10.203125h-.011719c-61.789062 0-117.574219-2.082031-170.542969-6.355468-2.144531-.175782-7.171874-.582032-11.296874-4.515626-3.898438-3.726562-4.636719-8.277343-4.988282-10.460937l-5.667968-35.019531c-.28125-1.738282-.941407-5.816406 1.09375-10.128906 1.765624-3.742188 4.609374-5.703126 5.976562-6.644532l41.011719-28.296875c.5625-.390625 1.097656-.765625 1.613281-1.128906l.238281-.167969c4.984375-3.511718 10.628907-7.492187 20.082031-7.492187.28125 0 .566407.003906.84375.007812 5.121094.125 10.046876.835938 14.839844 1.53125 2.753906.398438 5.351563.777344 7.84375 1.019531 13.292969 1.289063 27.152344 2.230469 42.375 2.871094 16.972656.71875 35.546875 1.054688 58.460938 1.054688 9.625 0 19.195312-.054688 27.285156-.113282 70.417969-.492187 141.8125-1.816406 212.207031-3.941406 1.050781-.03125 2.117188-.058594 3.183594-.058594 3.890625 0 9.683594.347657 15.097656 3.359376 3.792969 2.113281 6.351563 4.882812 8.40625 7.109374l20.734375 22.425782c2.71875 2.941406 6.101563 6.605468 8.679688 11.078125 8.6875 15.09375 5.125 32.695312 2.765625 44.34375zm0 0"/><path d="m206.644531 163.203125c11.207031-3.5625 23.566407-3.625 34.808594-.171875 2.125.652344 4.382813-.542969 5.035156-2.667969.65625-2.128906-.539062-4.386719-2.667969-5.039062-12.796874-3.929688-26.867187-3.863281-39.617187.195312-2.125.675781-3.296875 2.941407-2.621094 5.066407.546875 1.714843 2.132813 2.808593 3.839844 2.808593.40625 0 .816406-.0625 1.222656-.191406zm0 0"/><path d="m206.878906 174.640625c-2.121094.675781-3.292968 2.941406-2.617187 5.0625.546875 1.714844 2.132812 2.8125 3.839843 2.8125.40625 0 .816407-.0625 1.222657-.191406 11.207031-3.566407 23.566406-3.625 34.804687-.171875 2.125.652344 4.382813-.542969 5.039063-2.671875.65625-2.125-.539063-4.382813-2.667969-5.035157-12.792969-3.929687-26.867188-3.863281-39.621094.195313zm0 0"/><path d="m246.320312 195.171875c-12.792968-3.929687-26.863281-3.859375-39.617187.199219-2.121094.671875-3.292969 2.941406-2.621094 5.0625.546875 1.714844 2.132813 2.808594 3.839844 2.808594.40625 0 .820313-.058594 1.226563-.1875 11.203124-3.566407 23.566406-3.628907 34.804687-.175782 2.125.65625 4.382813-.539062 5.039063-2.667968.652343-2.128907-.542969-4.382813-2.671876-5.039063zm0 0"/><path d="m277.023438 160.527344c10.363281-3.640625 21.933593-4.148438 32.578124-1.429688 2.152344.546875 4.351563-.75 4.902344-2.90625.550782-2.160156-.75-4.355468-2.90625-4.90625-12.167968-3.109375-25.398437-2.527344-37.246094 1.636719-2.101562.738281-3.207031 3.039063-2.46875 5.140625.582032 1.65625 2.140626 2.695312 3.804688 2.695312.441406 0 .894531-.074218 1.335938-.230468zm0 0"/><path d="m306.613281 172.84375c-9.632812-1.933594-19.734375-1.578125-29.207031 1.019531-2.148438.585938-3.414062 2.804688-2.824219 4.953125.492188 1.789063 2.117188 2.964844 3.886719 2.964844.351562 0 .710938-.046875 1.066406-.144531 8.269532-2.269531 17.085938-2.574219 25.492188-.886719 2.183594.4375 4.308594-.976562 4.746094-3.160156s-.976563-4.308594-3.160157-4.746094zm0 0"/><path d="m303.050781 192.789062c-7.507812-1.570312-15.386719-1.347656-22.792969.65625-2.148437.578126-3.421874 2.792969-2.839843 4.941407.484375 1.796875 2.113281 2.980469 3.890625 2.980469.347656 0 .699218-.042969 1.054687-.140626 6.183594-1.671874 12.765625-1.859374 19.035157-.542968 2.175781.457031 4.316406-.941406 4.773437-3.117188.457031-2.179687-.9375-4.320312-3.121094-4.777344zm0 0"/></svg>