<svg height="512" viewBox="0 0 88 88" width="512" xmlns="http://www.w3.org/2000/svg"><g id="Ball_Beach" data-name="Ball Beach"><path d="m57 19a1 1 0 0 1 -1-1c0-2.4214 1.2539-7 6-7a1 1 0 0 1 0 2c-3.9541 0-4 4.7959-4 5a1 1 0 0 1 -1 1z" fill="#19844c"/><path d="m86 47a29.0337 29.0337 0 0 1 -29 29 28.7018 28.7018 0 0 1 -9.5-1.6 29.05 29.05 0 0 1 -19.5-27.4 29.6854 29.6854 0 0 1 .15-3 29.0029 29.0029 0 0 1 57.85 3z" fill="#22a061"/><path d="m63 47a32.0072 32.0072 0 0 1 -15.5 27.4 29.05 29.05 0 0 1 -19.5-27.4 29.6854 29.6854 0 0 1 .15-3h31.85a3.0088 3.0088 0 0 1 3 3z" fill="#19844c"/><path d="m76 47c0 15.99-8.52 29-19 29a13.6278 13.6278 0 0 1 -7.91-2.64c-6.54-4.58-11.09-14.68-11.09-26.36 0-1.01.03-2.02.1-3 .99-14.59 9.08-26 18.9-26 10.48 0 19 13.01 19 29z" fill="#19844c"/><path d="m65 47c0 15.99-3.59 29-8 29-1.7 0-3.29-1.95-4.58-5.27-2.07-5.26-3.42-13.93-3.42-23.73 0-1.01.01-2.02.04-3 .42-14.59 3.83-26 7.96-26 4.41 0 8 13.01 8 29z" fill="#22a061"/><path d="m63 47a31.925 31.925 0 0 1 -13.91 26.36c-6.54-4.58-11.09-14.68-11.09-26.36 0-1.01.03-2.02.1-3h21.9a3.0088 3.0088 0 0 1 3 3z" fill="#106b39"/><path d="m63 47a31.84 31.84 0 0 1 -10.58 23.73c-2.07-5.26-3.42-13.93-3.42-23.73 0-1.01.01-2.02.04-3h10.96a3.0088 3.0088 0 0 1 3 3z" fill="#19844c"/><path d="m31 76a29.0331 29.0331 0 0 1 -29-29h58a29.0331 29.0331 0 0 1 -29 29z" fill="#30b779"/><path d="m31 71a24.0275 24.0275 0 0 1 -24-24h48a24.0275 24.0275 0 0 1 -24 24z" fill="#e65039"/><g fill="#2f2e3a"><path d="m61 47a1 1 0 0 0 -1-1h-58a1 1 0 0 0 -1 1 30.05 30.05 0 0 0 6.85 19.085 1 1 0 0 0 1.543-1.2735 28.0452 28.0452 0 0 1 -6.3754-16.8115h3.0078a24.9944 24.9944 0 0 0 49.9492 0h3.0078a28.0026 28.0026 0 0 1 -46.6357 19.8848 1 1 0 0 0 -1.3321 1.4912 30.0018 30.0018 0 0 0 49.9854-22.376zm-30 23a23.0288 23.0288 0 0 1 -22.9785-22h45.957a23.0288 23.0288 0 0 1 -22.9785 22z"/><path d="m58.0861 17.0276c.2199-1.4566 1.0161-4.0276 3.9139-4.0276a1 1 0 0 0 0-2c-4.163 0-5.6386 3.5221-5.9385 6.0218a30.0794 30.0794 0 0 0 -28.7715 25.8425 1 1 0 1 0 1.98.2714 28.0587 28.0587 0 0 1 18.11-22.4139c-5.3927 4.46-9.32 12.55-10.1866 22.1888a1.0006 1.0006 0 0 0 .9063 1.0855c.0312.0024.06.0039.0908.0039a1.0008 1.0008 0 0 0 .9951-.9106c1.05-11.6887 6.7551-20.9264 13.9313-23.4191-3.0076 4.54-4.6946 14.1668-5.0367 23.2921a1 1 0 0 0 .9628 1.0376 1.0159 1.0159 0 0 0 1.0361-.9619c.54-14.3794 4.0147-24.0381 6.9209-24.0381 2.9229 0 7 10.6523 7 28s-4.0771 28-7 28c-1.0322 0-2.2227-1.34-3.2666-3.6777a1 1 0 0 0 -1.8262.8154 14.0514 14.0514 0 0 0 1.49 2.6194 28.2994 28.2994 0 0 1 -4.375-.9065 1 1 0 0 0 -.5642 1.9194 30.0015 30.0015 0 1 0 9.6281-58.7419zm8.5239 56.2731c6.1872-5.107 10.39-14.9807 10.39-26.3007a42.2266 42.2266 0 0 0 -2.6846-15.0576 1 1 0 1 0 -1.8652.72 40.2378 40.2378 0 0 1 2.5498 14.3376c0 13.3635-6.0512 24.5632-14.1136 27.3353 3.3441-5.0398 5.1136-16.4431 5.1136-27.3353 0-10.8839-1.767-22.2776-5.1061-27.3232 3.6146 1.26 6.9426 4.2467 9.4762 8.6176a1 1 0 0 0 1.7305-1.0029 24.1135 24.1135 0 0 0 -5.4494-6.5764 28.0017 28.0017 0 0 1 -.041 52.5856z"/><path d="m31 69a1 1 0 0 0 1-1v-2a1 1 0 0 0 -2 0v2a1 1 0 0 0 1 1z"/><path d="m35.47 67.5435a1 1 0 0 0 1.9317-.5176l-.5176-1.9321a1 1 0 1 0 -1.9317.5175z"/><path d="m40.6338 65.6865a1 1 0 0 0 1.7324-1l-1-1.7319a1 1 0 1 0 -1.7324 1z"/><path d="m45.1426 62.5566a1 1 0 0 0 1.414-1.415l-1.415-1.4141a1 1 0 0 0 -1.4141 1.4151z"/><path d="m46.9541 57.3662 1.7324 1a1 1 0 0 0 1-1.7324l-1.7324-1a1 1 0 1 0 -1 1.7324z"/><path d="m49.0938 52.8833 1.9316.5176a1 1 0 0 0 .5176-1.9317l-1.9317-.5175a1 1 0 1 0 -.5175 1.9316z"/><path d="m25.3057 68.2505a.9982.9982 0 0 0 1.2246-.707l.5176-1.9322a1 1 0 0 0 -1.9317-.5175l-.5176 1.9321a1 1 0 0 0 .7071 1.2246z"/><path d="m20 66.0527a1.0011 1.0011 0 0 0 1.3662-.3662l1-1.7319a1 1 0 1 0 -1.7324-1l-1 1.7319a1 1 0 0 0 .3662 1.3662z"/><path d="m15.4434 62.5562a1 1 0 0 0 1.414 0l1.4151-1.414a1 1 0 0 0 -1.4141-1.4151l-1.415 1.4141a1 1 0 0 0 0 1.415z"/><path d="m11.9473 58a1.0011 1.0011 0 0 0 1.3662.3662l1.7324-1a1 1 0 1 0 -1-1.7324l-1.7324 1a1 1 0 0 0 -.3662 1.3662z"/><path d="m9.75 52.6938a.9982.9982 0 0 0 1.2246.7071l1.9317-.5176a1 1 0 1 0 -.5176-1.9316l-1.9317.5175a1 1 0 0 0 -.707 1.2246z"/></g></g></svg>