<svg height="512" viewBox="0 0 60 60" width="512" xmlns="http://www.w3.org/2000/svg"><g id="Page-1" fill="none" fill-rule="evenodd"><g id="017---Toilet-Roll-Holder"><path id="Shape" d="m1 27.5c0-.51.02-1.01.05-1.5.55-8.41 5.69-15 11.95-15" stroke="#000" stroke-linecap="round" stroke-linejoin="round" stroke-width="2"/><g fill-rule="nonzero"><path id="Shape" d="m43 11c-6.63 0-12 7.39-12 16.5v29.83c.0025899.3524499-.1805531.6802363-.4820582.8627802-.3015052.1825439-.6768428.1928852-.9879418.0272198l-1.81-.97c-.2964514-.1600189-.6535486-.1600189-.95 0l-2.81 1.5c-.292888.1600775-.647112.1600775-.94 0l-2.81-1.5c-.292888-.1600775-.647112-.1600775-.94 0l-2.81 1.5c-.292888.1600775-.647112.1600775-.94 0l-2.8-1.5c-.2964514-.1600189-.6535486-.1600189-.95 0l-2.8 1.5c-.292888.1600775-.647112.1600775-.94 0l-2.81-1.5c-.292888-.1600775-.647112-.1600775-.94 0l-1.81.97c-.31109904.1656654-.68643659.1553241-.98794175-.0272198s-.48464811-.5103303-.48205825-.8627802c0-34.189-.02-29.218.05-31.33.36-5.47 2.66-10.18 5.95-12.79 1.6874744-1.4027765 3.8057749-2.1830172 6-2.21z" fill="#f5f5f5"/><path id="Shape" d="m40 11c-6.63 0-12 7.39-12 16.5v29.83c0 .023-.007.043-.009.065l1.539.825c.311099.1656654.6864366.1553241.9879418-.0272198.3015051-.1825439.4846481-.5103303.4820582-.8627802v-29.83c0-9.11 5.37-16.5 12-16.5z" fill="#cfd8dc"/><path id="Shape" d="m43 44h-12v-16.5c0 9.11 5.37 16.5 12 16.5z" fill="#9e9e9e"/><path id="Shape" d="m54.87 29.92c-.85 7.96-5.84 14.08-11.87 14.08-6.63 0-12-7.39-12-16.5s5.37-16.5 12-16.5c4.92 0 9.15 4.07 11 9.9v3.1c0 .5522847-.4477153 1-1 1h-5.34c-.68-2.35-2.28-4-4.16-4-2.787 0-4.5 3.327-4.5 6.5 0 3.235 1.747 6.5 4.5 6.5 1.88 0 3.48-1.65 4.16-4 6.999 0 6.606.028 7.21-.08z" fill="#f5f5f5"/><path id="Shape" d="m51 20.9v3.1c0 .5522847-.4477153 1-1 1h3c.5522847 0 1-.4477153 1-1v-3.1c-1.85-5.83-6.08-9.9-11-9.9-.4990588.0046551-.9968309.0514885-1.488.14 4.261.737 7.831 4.538 9.488 9.76z" fill="#cfd8dc"/><path id="Shape" d="m54 30h-2.141c-.8 7.251-5.041 12.944-10.362 13.857.4959973.090499.9988357.1383406 1.503.143 6.03 0 11.02-6.12 11.87-14.08-.2870667.0523192-.5782059.0790907-.87.08z" fill="#cfd8dc"/><path id="Shape" d="m47.66 30c-.68 2.35-2.28 4-4.16 4s-3.48-1.65-4.16-4z" fill="#a0522d"/><path id="Shape" d="m47.66 25h-8.32c.68-2.35 2.28-4 4.16-4s3.48 1.65 4.16 4z" fill="#a0522d"/><path id="Shape" d="m59 6v19c-.0018079 2.4243865-1.7425952 4.4981573-4.13 4.92-.2870667.0523192-.5782059.0790907-.87.08h-14.66c-.4533422-1.6358388-.4533422-3.3641612 0-5h13.66c.5522847 0 1-.4477153 1-1v-17c0-.55228475-.4477153-1-1-1h-40c-.5522847 0-1 .44771525-1 1v4.06c-1.8373275.2261736-3.57193436.9720546-5 2.15v-7.21c0-2.76142375 2.23857625-5 5-5h42c1.3260824 0 2.597852.5267842 3.5355339 1.46446609.9376819.9376819 1.4644661 2.20945146 1.4644661 3.53553391z" fill="#02a9f4"/><path id="Shape" d="m.972 59.048c.60119581.3640814 1.35010028.3830988 1.969.05l1.807-.965 2.808 1.5c.5877838.3150285 1.2942162.3150285 1.882 0l2.808-1.5 2.805 1.5c.5884032.3153843 1.2955968.3153843 1.884 0l2.806-1.5 2.808 1.5c.5884069.3139556 1.2945931.3139556 1.883 0l2.813-1.5 1.815.966c.6198338.3300475 1.3673545.31084 1.9694204-.0506043.6020658-.3614443.9704627-1.0121669.9705796-1.7143957v-12.334h11c6.247 0 11.638-6.1 12.767-14.289 2.5145257-.7640143 4.2333363-3.082967 4.233-5.711v-19c-.0033074-3.31233757-2.6876624-5.99669262-6-6h-42c-3.31233757.00330738-5.99669262 2.68766243-6 6v6.718c-4.082 3.482-6 9.395-6 14.782v29.833c-.00342066.7036822.36652597 1.3564173.972 1.715zm29.028-1.714-1.814-.966c-.5881417-.3136-1.2938583-.3136-1.882 0l-2.814 1.5-2.807-1.5c-.5881385-.315027-1.2948615-.315027-1.883 0l-2.807 1.5-2.806-1.5c-.5884069-.3139556-1.2945931-.3139556-1.883 0l-2.804 1.499-2.808-1.5c-.58814166-.3136-1.29385834-.3136-1.882 0l-1.81.966v-16.333h1c.55228475 0 1-.4477153 1-1s-.44771525-1-1-1h-1v-11.5c0-7.323 4.229-15.5 11-15.5h23.986c-4.147 2.928-6.986 8.772-6.986 15.5v11.5h-2c-.5522847 0-1 .4477153-1 1s.4477153 1 1 1h2zm23-41.034c-2.426-3.93-6.062-6.3-10-6.3h-30v-3h40zm-21 26.7v-6.217c1.0968075 2.4683947 2.8146622 4.6103727 4.986 6.217zm11 0c-6.065 0-11-6.953-11-15.5s4.935-15.5 11-15.5c4.3 0 8.206 3.556 10 9.068v2.932h-4.636c-.94-2.448-2.783-4-4.864-4-2.934 0-5.5 3.171-5.5 7.5 0 4.392 2.616 7.5 5.5 7.5 2.081 0 3.924-1.552 4.864-4h5.345c-1.144 6.918-5.601 12-10.709 12zm3.184-19h-5.368c.4554571-1.1121132 1.4880844-1.8815821 2.684-2 1.1959156.1184179 2.2285429.8878868 2.684 2zm-5.369 7h5.369c-.4554571 1.1121132-1.4880844 1.8815821-2.684 2-1.1958712-.1191416-2.2284653-.8882992-2.685-2zm-28.815-29h42c2.209139 0 4 1.790861 4 4v19c0 2.209139-1.790861 4-4 4h-13.849c-.2013287-.9898667-.2013287-2.0101333 0-3h12.849c1.1045695 0 2-.8954305 2-2v-17c0-1.1045695-.8954305-2-2-2h-40c-1.1045695 0-2 .8954305-2 2v3.221c-1.050739.2149004-2.06243372.5892274-3 1.11v-5.331c0-2.209139 1.790861-4 4-4z" fill="#000"/><path id="Shape" d="m10 39h-3c-.55228475 0-1 .4477153-1 1s.44771525 1 1 1h3c.5522847 0 1-.4477153 1-1s-.4477153-1-1-1z" fill="#000"/><path id="Shape" d="m17 39h-3c-.5522847 0-1 .4477153-1 1s.4477153 1 1 1h3c.5522847 0 1-.4477153 1-1s-.4477153-1-1-1z" fill="#000"/><path id="Shape" d="m24 39h-3c-.5522847 0-1 .4477153-1 1s.4477153 1 1 1h3c.5522847 0 1-.4477153 1-1s-.4477153-1-1-1z" fill="#000"/></g></g></g></svg>