<?xml version="1.0" encoding="UTF-8" standalone="no"?>
<!-- Created with Inkscape (http://www.inkscape.org/) -->

<svg
   version="1.1"
   id="svg2676"
   xml:space="preserve"
   width="682.66669"
   height="682.66669"
   viewBox="0 0 682.66669 682.66669"
   xmlns="http://www.w3.org/2000/svg"
   xmlns:svg="http://www.w3.org/2000/svg"><defs
     id="defs2680"><clipPath
       clipPathUnits="userSpaceOnUse"
       id="clipPath2690"><path
         d="M 0,512 H 512 V 0 H 0 Z"
         id="path2688" /></clipPath></defs><g
     id="g2682"
     transform="matrix(1.3333333,0,0,-1.3333333,0,682.66667)"><g
       id="g2684"><g
         id="g2686"
         clip-path="url(#clipPath2690)"><g
           id="g2692"
           transform="translate(19.0151,19.0151)"><path
             d="m 0,0 v 0 c -15.97,15.97 -15.232,42.08 1.613,57.123 0,0 193.671,171.628 253.8,226.646 13.806,12.633 17.732,28.731 17.496,46.172 -0.473,34.893 13.228,74.998 46.667,108.437 48.817,48.818 114.986,61.797 147.793,28.991 34.573,-33.004 22.15,-99.234 -28.991,-147.793 -34.293,-32.562 -73.544,-47.14 -108.437,-46.667 -17.441,0.236 -33.539,-3.69 -46.172,-17.496 C 228.751,195.284 57.123,1.613 57.123,1.613 42.08,-15.232 15.97,-15.97 0,0 Z"
             style="fill:#dbe4ee;fill-opacity:1;fill-rule:nonzero;stroke:none"
             id="path2694" /></g><g
           id="g2696"
           transform="translate(486.3838,486.3838)"><path
             d="m 0,0 v 0 c -0.955,0.955 -1.941,1.867 -2.952,2.745 18.903,-35.513 3.617,-90.611 -40.539,-132.539 -34.294,-32.562 -73.545,-47.14 -108.438,-46.667 -17.441,0.236 -33.539,-3.689 -46.172,-17.496 -55.018,-60.128 -226.647,-253.8 -226.647,-253.8 -13.342,-14.942 -35.387,-17.199 -51.345,-6.376 1.916,-4.811 4.817,-9.328 8.724,-13.236 v 0 0 c 15.97,-15.969 42.08,-15.232 57.123,1.613 0,0 171.628,193.672 226.646,253.8 12.633,13.807 28.731,17.732 46.172,17.496 34.893,-0.473 74.145,14.105 108.438,46.667 C 22.15,-99.234 34.574,-33.003 0,0"
             style="fill:#ccdbeb;fill-opacity:1;fill-rule:nonzero;stroke:none"
             id="path2698" /></g><g
           id="g2700"
           transform="translate(451.2837,388.3315)"><path
             d="m 0,0 c -5.338,-8.33 -11.943,-16.635 -19.833,-24.525 -36.158,-36.158 -81.032,-45.32 -96.998,-29.354 -15.965,15.965 -6.804,60.84 29.354,96.998 C -51.319,79.277 -6.445,88.438 9.521,72.473 29.149,52.844 12.05,18.335 0,0"
             style="fill:#b8c7d7;fill-opacity:1;fill-rule:nonzero;stroke:none"
             id="path2702" /></g><g
           id="g2704"
           transform="translate(74.5996,124.0337)"><path
             d="m 0,0 c 61.936,55.019 160.072,142.374 199.829,178.75 13.806,12.633 17.732,28.731 17.495,46.172 -0.472,34.893 13.229,74.999 46.667,108.438 48.818,48.817 114.987,61.796 147.793,28.99 32.806,-32.807 19.827,-98.975 -28.99,-147.793 -33.439,-33.438 -73.544,-47.14 -108.438,-46.667 -17.44,0.236 -33.539,-3.689 -46.171,-17.495 C 173.167,90.266 1.538,-103.406 1.538,-103.406 c -15.043,-16.845 -41.153,-17.582 -57.122,-1.613 v 0 h -10e-4 c -15.969,15.97 -15.232,42.08 1.613,57.123 0,0 9.113,8.075 23.998,21.284"
             style="fill:none;stroke:#060606;stroke-width:15;stroke-linecap:round;stroke-linejoin:round;stroke-miterlimit:10;stroke-dasharray:none;stroke-opacity:1"
             id="path2706" /></g><g
           id="g2708"
           transform="translate(451.2837,388.3315)"><path
             d="m 0,0 c -5.338,-8.33 -11.943,-16.635 -19.833,-24.525 -36.158,-36.158 -81.032,-45.32 -96.998,-29.354 -15.965,15.965 -6.804,60.84 29.354,96.998 36.158,36.158 81.032,45.319 96.998,29.354 7.708,-7.709 9.559,-22.156 5.342,-39.107"
             style="fill:none;stroke:#060606;stroke-width:15;stroke-linecap:round;stroke-linejoin:round;stroke-miterlimit:10;stroke-dasharray:none;stroke-opacity:1"
             id="path2710" /></g></g></g></g></svg>
