<?xml version="1.0" encoding="UTF-8" standalone="no"?>
<!-- Created with Inkscape (http://www.inkscape.org/) -->

<svg
   version="1.1"
   id="svg1299"
   xml:space="preserve"
   width="682.66669"
   height="682.66669"
   viewBox="0 0 682.66669 682.66669"
   xmlns="http://www.w3.org/2000/svg"
   xmlns:svg="http://www.w3.org/2000/svg"><defs
     id="defs1303"><clipPath
       clipPathUnits="userSpaceOnUse"
       id="clipPath1313"><path
         d="M 0,512 H 512 V 0 H 0 Z"
         id="path1311" /></clipPath></defs><g
     id="g1305"
     transform="matrix(1.3333333,0,0,-1.3333333,0,682.66667)"><g
       id="g1307"><g
         id="g1309"
         clip-path="url(#clipPath1313)"><g
           id="g1315"
           transform="translate(400.998,481.8599)"><path
             d="m 0,0 v -451.72 c 0,-12.51 -10.13,-22.64 -22.64,-22.64 h -244.719 c -11.271,0 -20.611,8.22 -22.351,19 -0.189,1.18 -0.29,2.4 -0.29,3.64 V 0 c 0,12.51 10.13,22.64 22.641,22.64 H -22.64 C -10.13,22.64 0,12.51 0,0"
             style="fill:#b3f6ff;fill-opacity:1;fill-rule:nonzero;stroke:none"
             id="path1317" /></g><g
           id="g1319"
           transform="translate(400.998,481.8599)"><path
             d="m 0,0 v -451.72 c 0,-12.51 -10.13,-22.64 -22.64,-22.64 h -244.719 c -11.271,0 -20.611,8.22 -22.351,19 h 243.07 c 12.51,0 22.64,10.13 22.64,22.64 L -24,0 c 0,12.51 -10.13,22.64 -22.64,22.64 h 24 C -10.13,22.64 0,12.51 0,0"
             style="fill:#a0dbf2;fill-opacity:1;fill-rule:nonzero;stroke:none"
             id="path1321" /></g><g
           id="g1323"
           transform="translate(400.998,42.5)"><path
             d="M 0,0 V -12.36 C 0,-24.87 -10.13,-35 -22.64,-35 h -244.719 c -11.271,0 -20.611,8.22 -22.351,19 -0.189,1.18 -0.29,2.4 -0.29,3.64 V 0 Z"
             style="fill:#616270;fill-opacity:1;fill-rule:nonzero;stroke:none"
             id="path1325" /></g><g
           id="g1327"
           transform="translate(330.998,504.5)"><path
             d="M 0,0 V -22.05 C 0,-28.81 -5.479,-34.3 -12.25,-34.3 h -125.5 c -6.77,0 -12.25,5.49 -12.25,12.25 V 0 Z"
             style="fill:#616270;fill-opacity:1;fill-rule:nonzero;stroke:none"
             id="path1329" /></g><g
           id="g1331"
           transform="translate(330.998,499.4502)"><path
             d="m 0,0 v -17 c 0,-6.76 -5.479,-12.25 -12.25,-12.25 h -125.5 c -6.77,0 -12.25,5.49 -12.25,12.25 v 4.75 H -12.25 C -5.479,-12.25 0,-6.76 0,0"
             style="fill:#40414c;fill-opacity:1;fill-rule:nonzero;stroke:none"
             id="path1333" /></g><g
           id="g1335"
           transform="translate(400.998,42.5)"><path
             d="M 0,0 V -12.36 C 0,-24.87 -10.13,-35 -22.64,-35 h -244.719 c -11.271,0 -20.611,8.22 -22.351,19 h 243.07 c 10.201,0 18.82,6.74 21.65,16 z"
             style="fill:#40414c;fill-opacity:1;fill-rule:nonzero;stroke:none"
             id="path1337" /></g><g
           id="g1339"
           transform="translate(341.6602,187.4761)"><path
             d="m 0,0 -7.1,-11.84 -2.51,-4.19 c -2.56,-4.34 -6.68,-7.52 -11.51,-8.9 -15.99,-4.38 -51.24,-5.27 -107.75,51.24 -56.5,56.51 -55.62,91.76 -51.24,107.75 1.38,4.83 4.56,8.96 8.9,11.51 l 4.6,2.76 11.43,6.86 c 3.659,2.19 8.39,1.12 10.76,-2.43 l 25.55,-38.33 c 2.32,-3.48 1.559,-8.16 -1.74,-10.73 l -11.52,-8.34 c -3.12,-2.4 -4.01,-6.71 -2.11,-10.15 4.219,-7.57 8.21,-16.51 27.969,-36.3 19.771,-19.79 28.731,-23.75 36.301,-27.97 3.44,-1.9 7.75,-1.01 10.15,2.11 l 8.34,11.52 c 2.57,3.3 7.25,4.06 10.73,1.74 L -2.42,10.76 C 1.13,8.39 2.2,3.66 0,0"
             style="fill:#51e08b;fill-opacity:1;fill-rule:nonzero;stroke:none"
             id="path1341" /></g><g
           id="g1343"
           transform="translate(341.6602,187.4761)"><path
             d="m 0,0 -7.1,-11.84 c -15.98,-4.38 -50.74,-4.82 -107.24,51.69 -56.511,56.51 -56.65,92.5 -52.27,108.48 l 11.43,6.86 c 3.659,2.19 8.39,1.12 10.76,-2.43 l 25.55,-38.33 c 2.32,-3.48 1.559,-8.16 -1.74,-10.73 l -11.52,-8.34 c -3.12,-2.4 -4.01,-6.71 -2.11,-10.15 4.219,-7.57 8.21,-16.51 27.969,-36.3 19.771,-19.79 28.731,-23.75 36.301,-27.97 3.44,-1.9 7.75,-1.01 10.15,2.11 l 8.34,11.52 c 2.57,3.3 7.25,4.06 10.73,1.74 L -2.42,10.76 C 1.13,8.39 2.2,3.66 0,0"
             style="fill:#1bc18a;fill-opacity:1;fill-rule:nonzero;stroke:none"
             id="path1345" /></g><g
           id="g1347"
           transform="translate(323.502,482.4497)"><path
             d="M 0,0 C 0,-2.618 -2.13,-4.748 -4.748,-4.748 H -130.252 C -132.87,-4.748 -135,-2.618 -135,0 V 14.55 H 0 Z m 77.5,-30.005 c 4.143,0 7.5,3.358 7.5,7.5 V -0.586 C 85,16.031 71.48,29.55 54.863,29.55 H -189.863 C -206.48,29.55 -220,16.031 -220,-0.586 v -451.727 c 0,-16.618 13.52,-30.137 30.137,-30.137 H 54.863 c 16.617,0 30.137,13.519 30.137,30.137 v 394.775 c 0,4.142 -3.357,7.5 -7.5,7.5 -4.143,0 -7.5,-3.358 -7.5,-7.5 V -432.45 h -194.94 c -4.143,0 -7.5,-3.358 -7.5,-7.5 0,-4.142 3.357,-7.5 7.5,-7.5 H 70 v -4.863 c 0,-8.347 -6.79,-15.137 -15.137,-15.137 h -244.726 c -8.347,0 -15.137,6.79 -15.137,15.137 v 4.863 h 45.462 c 4.142,0 7.5,3.358 7.5,7.5 0,4.142 -3.358,7.5 -7.5,7.5 H -205 V -0.586 c 0,8.346 6.79,15.136 15.137,15.136 H -150 V 0 c 0,-10.889 8.859,-19.748 19.748,-19.748 H -4.748 C 6.141,-19.748 15,-10.889 15,0 V 14.55 H 54.863 C 63.21,14.55 70,7.76 70,-0.586 v -21.919 c 0,-4.142 3.357,-7.5 7.5,-7.5"
             style="fill:#000000;fill-opacity:1;fill-rule:nonzero;stroke:none"
             id="path1349" /></g><g
           id="g1351"
           transform="translate(200.8662,269.04)"><path
             d="m 0,0 c 0.363,-0.654 0.726,-1.319 1.098,-2.001 4.165,-7.644 9.349,-17.155 28.12,-35.95 18.728,-18.753 28.252,-23.935 35.903,-28.099 0.701,-0.381 1.384,-0.753 2.067,-1.133 6.736,-3.729 15.032,-2.008 19.727,4.091 0.045,0.059 0.09,0.119 0.134,0.179 l 8.21,11.35 c 0.163,0.167 0.426,0.2 0.62,0.072 l 38.336,-25.557 v 0.001 c 0.218,-0.146 0.283,-0.437 0.148,-0.661 l -9.648,-16.084 c -1.581,-2.684 -4.103,-4.633 -7.032,-5.467 -34.923,-9.581 -77.93,26.78 -100.457,49.306 -22.528,22.527 -58.889,65.534 -49.33,100.391 0.854,2.999 2.803,5.521 5.54,7.133 l 16.029,9.617 c 0.08,0.047 0.167,0.07 0.254,0.07 0.159,0 0.314,-0.077 0.409,-0.219 L 15.681,28.708 C 15.813,28.51 15.78,28.246 15.613,28.083 L 4.264,19.873 C 4.203,19.829 4.143,19.785 4.084,19.739 -2.016,15.042 -3.736,6.747 0,0 m 24.577,16.055 c 0.072,0.051 0.144,0.105 0.213,0.159 6.359,4.954 7.844,14.092 3.375,20.809 L 2.608,75.36 c -4.594,6.89 -13.754,8.951 -20.858,4.692 L -34.23,70.464 C -40.249,66.918 -44.617,61.265 -46.549,54.476 -52.624,32.327 -48.331,-5.609 6.618,-60.56 c 43.476,-43.475 76.298,-55.238 99.114,-55.238 6.022,0 11.349,0.82 15.989,2.093 6.72,1.913 12.374,6.282 15.888,12.249 l 9.618,16.031 c 4.259,7.102 2.199,16.264 -4.691,20.858 h -0.001 l -38.343,25.561 c -6.709,4.462 -15.846,2.98 -20.801,-3.378 -0.054,-0.07 -0.108,-0.141 -0.161,-0.213 l -8.229,-11.378 c -0.142,-0.15 -0.362,-0.186 -0.534,-0.092 -0.711,0.395 -1.434,0.789 -2.176,1.192 -6.802,3.702 -15.267,8.308 -32.46,25.524 C 22.585,-10.083 17.974,-1.622 14.269,5.177 13.876,5.897 13.493,6.6 13.115,7.279 13.014,7.462 13.051,7.685 13.201,7.826 Z"
             style="fill:#000000;fill-opacity:1;fill-rule:nonzero;stroke:none"
             id="path1353" /></g><g
           id="g1355"
           transform="translate(299.5078,252.2661)"><path
             d="m 0,0 c 0,-4.142 3.357,-7.5 7.5,-7.5 4.143,0 7.5,3.358 7.5,7.5 0,34.871 -28.369,63.24 -63.24,63.24 -4.143,0 -7.5,-3.358 -7.5,-7.5 0,-4.142 3.357,-7.5 7.5,-7.5 C -21.641,48.24 0,26.6 0,0"
             style="fill:#000000;fill-opacity:1;fill-rule:nonzero;stroke:none"
             id="path1357" /></g><g
           id="g1359"
           transform="translate(359.7676,252.2661)"><path
             d="m 0,0 c 0,59.827 -48.673,108.5 -108.5,108.5 -4.143,0 -7.5,-3.358 -7.5,-7.5 0,-4.142 3.357,-7.5 7.5,-7.5 51.556,0 93.5,-41.944 93.5,-93.5 0,-4.142 3.357,-7.5 7.5,-7.5 4.143,0 7.5,3.358 7.5,7.5"
             style="fill:#000000;fill-opacity:1;fill-rule:nonzero;stroke:none"
             id="path1361" /></g></g></g></g></svg>
